<svg width="35" height="35" viewBox="0 0 35 35" fill="none" xmlns="http://www.w3.org/2000/svg">
<path d="M20.7148 4.20942C20.3472 4.1209 19.9785 4.34682 19.89 4.71378C19.8016 5.0808 20.0274 5.45007 20.3944 5.53853C25.935 6.8742 29.8046 11.7929 29.8046 17.4999C29.8046 24.2847 24.2849 29.8046 17.5 29.8046C10.7152 29.8046 5.19537 24.2847 5.19537 17.4999C5.19537 11.7931 9.06477 6.8744 14.6051 5.5386C14.9722 5.45007 15.1979 5.0808 15.1095 4.71384C15.021 4.34682 14.6516 4.12117 14.2847 4.20949C11.3535 4.91625 8.69781 6.61067 6.80693 8.98061C4.85822 11.423 3.82819 14.369 3.82819 17.4999C3.82819 25.0386 9.96137 31.1718 17.5 31.1718C25.0387 31.1718 31.1718 25.0386 31.1718 17.4999C31.1718 14.3689 30.1418 11.4229 28.1929 8.98041C26.302 6.61054 23.6462 4.91612 20.7148 4.20942Z" fill="#F9A61A"/>
<path d="M34.5876 15.8558L33.7879 14.3637L33.9212 12.5191C34.0495 11.3367 33.5779 10.1828 32.658 9.43034L31.3305 8.3433L30.8083 6.77022C30.5159 5.56744 29.6024 4.6007 28.4172 4.24271L26.7785 3.74765L25.5236 2.29707C24.7811 1.42365 23.6572 0.969332 22.517 1.08137L20.8163 1.25083L19.1444 0.412137C18.1141 -0.137128 16.8857 -0.137607 15.8552 0.412069L14.3632 1.21173L12.5187 1.0783C11.3359 0.950055 10.1824 1.42173 9.42996 2.3415L8.34284 3.66904L6.76983 4.19123C5.56699 4.48367 4.60025 5.39716 4.24225 6.5823L3.74727 8.22093L2.29669 9.47594C1.42333 10.2185 0.968741 11.3421 1.08092 12.4825L1.25038 14.1833L0.411683 15.8551C-0.137651 16.8855 -0.138061 18.1139 0.411546 19.1444L1.21128 20.6364L1.07784 22.481C0.949669 23.6633 1.42128 24.8172 2.34105 25.5697L3.66858 26.6568L4.19078 28.2298C4.48315 29.4326 5.39663 30.3994 6.58191 30.7574L8.22048 31.2523L9.47548 32.703C10.2181 33.5764 11.3415 34.0309 12.4821 33.9187L14.1828 33.7492L15.8545 34.5878C16.3698 34.8626 16.9348 35.0001 17.4997 35.0001C18.0642 35.0001 18.6287 34.8628 19.1438 34.5881L20.6359 33.7884L22.4804 33.9218C23.6627 34.0498 24.8166 33.5784 25.5692 32.6586L26.6562 31.3311L28.2294 30.809C29.4321 30.5165 30.3988 29.603 30.7568 28.4178L31.2518 26.7793L32.7025 25.5243C33.5758 24.7817 34.0304 23.6581 33.9182 22.5176L33.7487 20.817L34.5873 19.1451C35.1367 18.1147 35.1372 16.8863 34.5876 15.8558ZM33.378 18.5071C33.375 18.5127 33.3721 18.5183 33.3692 18.524L32.4378 20.3809C32.3797 20.4966 32.3558 20.6264 32.3685 20.7553L32.5577 22.6522C32.6259 23.3459 32.349 24.0301 31.8124 24.4864L30.2075 25.8749C30.1096 25.9596 30.0378 26.0702 30.0004 26.1941L29.448 28.0224C29.2278 28.7514 28.6296 29.3118 27.8869 29.485C27.8666 29.4897 27.8465 29.4954 27.8268 29.5019L26.0375 30.0958C25.9147 30.1366 25.8059 30.2114 25.724 30.3115L24.5113 31.7926C24.0507 32.3556 23.3431 32.6431 22.619 32.5616C22.61 32.5606 22.6009 32.5598 22.592 32.5591L20.5369 32.4105C20.4075 32.4012 20.2788 32.4287 20.1647 32.4898L18.4992 33.3824C17.8711 33.7174 17.121 33.716 16.4924 33.3785C16.4868 33.3756 16.4812 33.3726 16.4756 33.3698L14.6187 32.4384C14.5233 32.3905 14.4183 32.3658 14.3122 32.3658C14.2896 32.3658 14.267 32.3669 14.2444 32.3691L12.3474 32.5581C11.6538 32.6266 10.9695 32.3494 10.5132 31.813L9.12473 30.208C9.04011 30.1101 8.92936 30.0383 8.80543 30.0009L6.97717 29.4486C6.24812 29.2284 5.68771 28.6302 5.51455 27.8874C5.50984 27.8671 5.50416 27.8471 5.4976 27.8273L4.90376 26.038C4.86302 25.9151 4.78824 25.8065 4.68809 25.7245L3.20709 24.5117C2.64409 24.0511 2.35657 23.3437 2.43805 22.6196C2.43908 22.6105 2.4399 22.6015 2.44058 22.5924L2.58919 20.5373C2.59856 20.4083 2.57101 20.2792 2.5099 20.1651L1.6172 18.4998C1.28224 17.8717 1.28367 17.1215 1.62102 16.4929C1.62403 16.4874 1.6269 16.4818 1.62971 16.4762L2.56117 14.6192C2.6192 14.5035 2.6432 14.3737 2.63035 14.2449L2.44133 12.3478C2.37311 11.6542 2.65003 10.9699 3.18658 10.5137L4.79152 9.12519C4.88941 9.04049 4.96119 8.92982 4.99865 8.80595L5.55099 6.97762C5.77117 6.24864 6.36938 5.68823 7.11217 5.51501C7.13248 5.51029 7.15251 5.50462 7.17233 5.49805L8.96149 4.90415C9.08433 4.86341 9.19303 4.78862 9.27499 4.68848L10.4878 3.20741C10.9484 2.64447 11.656 2.35709 12.38 2.43844C12.389 2.43946 12.398 2.44028 12.4071 2.44097L14.4621 2.58958C14.5908 2.59874 14.7202 2.5714 14.8343 2.51028L16.4997 1.61765C17.1277 1.28269 17.878 1.28406 18.5065 1.62148C18.512 1.62442 18.5176 1.62736 18.5233 1.63016L20.3803 2.56162C20.4959 2.61966 20.6257 2.64372 20.7545 2.6308L22.6516 2.44179C23.3451 2.37343 24.0295 2.65049 24.4857 3.18704L25.8742 4.79197C25.9588 4.88986 26.0696 4.96164 26.1935 4.9991L28.0218 5.55144C28.7508 5.77163 29.3112 6.36991 29.4844 7.11263C29.4891 7.13293 29.4948 7.15296 29.5014 7.17278L30.0953 8.96195C30.1361 9.08479 30.2108 9.19348 30.3109 9.27544L31.792 10.4882C32.355 10.9488 32.6425 11.6561 32.561 12.3804C32.5599 12.3894 32.5591 12.3984 32.5585 12.4075L32.4099 14.4626C32.4005 14.5917 32.4281 14.7207 32.4891 14.8348L33.3818 16.5002C33.7169 17.1285 33.7154 17.8786 33.378 18.5071Z" fill="#F9A61A"/>
<path d="M14.5333 13.7755C14.4237 13.5444 14.1888 13.3843 13.9161 13.3843H10.3042C9.92665 13.3843 9.62061 13.6903 9.62061 14.0679V24.4151C9.62061 24.7927 9.92665 25.0987 10.3042 25.0987H13.9161C14.1994 25.0987 14.4425 24.9264 14.5461 24.6807C15.0672 24.7539 15.604 24.9021 16.1629 25.0569C17.0032 25.2895 17.872 25.53 18.7746 25.53H22.7209C23.9409 25.53 24.9294 24.8833 25.3654 23.7999C25.5777 23.272 25.6149 22.7242 25.4908 22.2656C25.7177 22.0615 25.9096 21.8075 26.0546 21.5109C26.3486 20.9099 26.4073 20.234 26.2407 19.6648C26.5513 19.3647 26.7831 18.9684 26.9042 18.5012C27.0175 18.0643 27.0155 17.6333 26.9147 17.2599C27.5313 16.8972 27.9466 16.2382 27.9466 15.4957C27.9466 14.9133 27.7198 14.3767 27.308 13.9847C26.9127 13.6083 26.386 13.401 25.8252 13.401L20.2628 13.4012C19.8402 12.871 19.7086 12.1516 19.9493 11.5725C20.4431 10.3841 20.4125 9.37801 19.8502 8.31065C19.4328 7.51844 18.3105 6.72971 17.3672 6.86438C16.797 6.94587 16.3845 7.34884 16.2635 7.94247C16.2279 8.11713 16.2181 8.3058 16.2068 8.52428C16.1789 9.06322 16.1406 9.80136 15.6754 10.6927C15.36 11.2969 15.2548 11.9184 15.162 12.4667C15.029 13.2521 14.9646 13.6305 14.5333 13.7755ZM10.9878 14.7514H13.2325V23.7315H10.9878V14.7514ZM16.51 12.6949C16.5897 12.2245 16.672 11.738 16.8875 11.3254C17.4906 10.1698 17.5417 9.18401 17.5722 8.59503C17.5803 8.43814 17.588 8.28994 17.6032 8.21543C17.6032 8.21495 17.6034 8.2144 17.6035 8.21393C17.8407 8.21721 18.4242 8.53733 18.6406 8.94804C19.0151 9.6587 19.0275 10.2279 18.6868 11.0481C18.3795 11.7876 18.4026 12.6457 18.7066 13.4087C18.374 13.455 18.1178 13.7397 18.1178 14.0849C18.1178 14.4624 18.4239 14.7685 18.8014 14.7685L25.8252 14.7683C26.0335 14.7683 26.2254 14.8418 26.3654 14.9751C26.4631 15.068 26.5794 15.2338 26.5794 15.4957C26.5794 15.8624 26.2433 16.1795 25.8454 16.1882L24.0859 16.2264C23.7085 16.2346 23.4091 16.5472 23.4173 16.9247C23.4255 17.2971 23.7298 17.5935 24.1005 17.5935C24.1055 17.5935 24.1105 17.5935 24.1157 17.5933L25.581 17.5615C25.6288 17.6969 25.6537 17.9552 25.5531 18.2512C25.4674 18.5029 25.2375 18.925 24.6592 18.925C24.2817 18.925 23.9756 19.2311 23.9756 19.6086C23.9756 19.9862 24.2817 20.2922 24.6592 20.2922C24.7628 20.2922 24.8646 20.2858 24.9641 20.2732C24.9726 20.4666 24.9328 20.6932 24.8266 20.9102C24.7011 21.1667 24.453 21.4725 23.9839 21.4725C23.6065 21.4725 23.3004 21.7786 23.3004 22.1561C23.3004 22.5337 23.6065 22.8397 23.9839 22.8397C24.0547 22.8397 24.1247 22.8366 24.1938 22.8303C24.192 22.9615 24.1654 23.1255 24.0908 23.3049C23.9836 23.5629 23.6355 24.1629 22.7211 24.1629H18.7748C18.0579 24.1629 17.3147 23.9571 16.5279 23.7392C15.9018 23.5659 15.2598 23.3883 14.5998 23.309V15.159C16.1389 14.8801 16.351 13.6342 16.51 12.6949Z" fill="#F9A61A"/>
<path d="M17.5001 5.1954C17.8777 5.1954 18.1837 4.88936 18.1837 4.51181C18.1837 4.13426 17.8777 3.82822 17.5001 3.82822H17.4997C17.1221 3.82822 16.8163 4.13426 16.8163 4.51181C16.8163 4.88936 17.1226 5.1954 17.5001 5.1954Z" fill="#F9A61A"/>
</svg>
