<svg width="29" height="35" viewBox="0 0 29 35" fill="none" xmlns="http://www.w3.org/2000/svg">
<path d="M27.8963 12.1885C28.1794 12.1885 28.409 11.9591 28.409 11.6758V6.72297C28.409 5.71032 27.6196 4.8767 26.6118 4.82523C20.5313 4.51561 17.2632 2.02893 15.8565 0.574244C15.4984 0.203925 15.0166 0 14.5 0C13.9833 0 13.5015 0.203925 13.1436 0.574176C11.7367 2.02886 8.46862 4.51554 2.38799 4.82523C1.38032 4.8767 0.590942 5.71025 0.590942 6.72297V21.0176C0.590942 25.1345 2.80595 28.9708 6.37174 31.0296L12.1722 34.378C12.8902 34.7927 13.695 35.0001 14.5 35.0001C15.3049 35.0001 16.1099 34.7927 16.8277 34.378L22.6283 31.0297C26.194 28.9709 28.4091 25.1345 28.4091 21.0177V14.0686C28.4091 13.7854 28.1795 13.5559 27.8963 13.5559C27.6132 13.5559 27.3836 13.7854 27.3836 14.0686V21.0177C27.3836 24.7694 25.365 28.2655 22.1156 30.1417L16.3149 33.4901C15.1955 34.1367 13.8045 34.1367 12.6849 33.49L6.88439 30.1417C3.63498 28.2655 1.61638 24.7694 1.61638 21.0177V6.72297C1.61638 6.25674 1.97829 5.87295 2.44021 5.84936C8.8721 5.52184 12.3688 2.85037 13.8807 1.28706C14.0438 1.11841 14.2637 1.02551 14.5 1.02551C14.7362 1.02551 14.9561 1.11841 15.1193 1.28713C16.6311 2.85037 20.1278 5.52184 26.5596 5.84936C27.0216 5.87302 27.3836 6.25674 27.3836 6.72297V11.6758C27.3836 11.9591 27.6131 12.1885 27.8963 12.1885Z" fill="#F9A61A"/>
<path d="M3.86617 13.5558C3.58302 13.5558 3.35345 13.7853 3.35345 14.0685V21.0175C3.35345 24.1505 5.03907 27.0703 7.75258 28.6376L13.5533 31.986C13.8413 32.1521 14.1686 32.2399 14.5 32.2399C14.8313 32.2399 15.1586 32.1521 15.4468 31.9859L21.2475 28.6375C23.9609 27.0703 25.6465 24.1505 25.6465 21.0175V8.61249C25.6465 8.00721 25.1948 7.49429 24.5962 7.41943C19.9975 6.84102 16.9723 5.09395 15.2437 3.7297C14.8058 3.38523 14.1942 3.38523 13.7558 3.73018C12.0277 5.09395 9.00245 6.84102 4.40425 7.41936C3.80526 7.49429 3.35352 8.00721 3.35352 8.61249V11.6758C3.35352 11.959 3.58308 12.1885 3.86624 12.1885C4.1494 12.1885 4.37896 11.959 4.37896 11.6758V8.61249C4.37896 8.52321 4.44445 8.44774 4.53182 8.43687C9.3645 7.82899 12.5607 5.97965 14.3904 4.5357C14.4548 4.4849 14.5449 4.48484 14.609 4.53522C16.4393 5.97965 19.6355 7.82906 24.4686 8.43694C24.5555 8.44774 24.6211 8.52328 24.6211 8.61249V21.0175C24.6211 23.7854 23.1319 26.365 20.7347 27.7495L14.9344 31.0978C14.6696 31.2505 14.3303 31.2504 14.0659 31.0979L8.26543 27.7496C5.86823 26.365 4.37896 23.7855 4.37896 21.0175V14.0685C4.37889 13.7853 4.1494 13.5558 3.86617 13.5558Z" fill="#F9A61A"/>
<path d="M8.28478 16.2969C8.70118 16.2969 9.09255 16.459 9.38692 16.7534L12.066 19.4318C12.2663 19.6321 12.5909 19.632 12.7911 19.4318L15.7259 16.497C15.9261 16.2967 15.9261 15.9721 15.7259 15.7719C15.5257 15.5717 15.201 15.5717 15.0008 15.7719L12.4286 18.3442L10.112 16.0283C9.62407 15.5403 8.97518 15.2716 8.28485 15.2716C7.59453 15.2716 6.94563 15.5404 6.45766 16.0283C5.96935 16.5166 5.70041 17.1657 5.70041 17.8561C5.70041 18.5466 5.96941 19.1956 6.45766 19.6834L10.6008 23.8265C11.0885 24.315 11.7376 24.584 12.4286 24.584C13.1192 24.584 13.7681 24.3149 14.2555 23.8268L22.5422 15.54C23.0306 15.052 23.2996 14.403 23.2996 13.7126C23.2996 13.0222 23.0307 12.3731 22.5424 11.8848C22.0544 11.3968 21.4055 11.1282 20.7152 11.1282C20.0249 11.1282 19.376 11.3969 18.888 11.8848L16.6929 14.0799C16.4927 14.2802 16.4927 14.6047 16.6929 14.805C16.8931 15.0051 17.2178 15.0051 17.4179 14.805L19.6131 12.6099C19.9074 12.3156 20.2987 12.1535 20.7152 12.1535C21.1316 12.1535 21.523 12.3156 21.8173 12.6099C22.112 12.9046 22.2743 13.2962 22.2743 13.7126C22.2743 14.129 22.112 14.5203 21.8173 14.8148L13.5301 23.1021C13.2361 23.3965 12.845 23.5587 12.4286 23.5587C12.0118 23.5587 11.6204 23.3965 11.3262 23.1017L7.18258 18.9581C6.88807 18.6638 6.72585 18.2725 6.72585 17.8561C6.72585 17.4396 6.88814 17.048 7.18278 16.7534C7.47701 16.459 7.86839 16.2969 8.28478 16.2969Z" fill="#F9A61A"/>
</svg>
