<svg width="35" height="35" viewBox="0 0 35 35" fill="none" xmlns="http://www.w3.org/2000/svg">
<path d="M10.3223 6.2207C10.3223 7.40223 9.81943 8.46802 9.0173 9.2171L9.01771 9.22277C9.09038 10.2267 9.14924 11.285 9.19394 12.3771C11.2935 11.9816 12.7812 11.1855 13.6234 10.0031C14.7093 8.47854 14.4201 6.68801 14.3056 6.17558C13.9239 4.46722 14.9355 2.73656 16.6493 2.40734C17.6398 2.2171 18.6283 2.12208 19.6102 2.12208C23.0528 2.12208 26.5052 3.29868 29.3553 5.65271C32.9414 8.61472 34.9988 12.9328 35 17.4997C35.0025 26.1555 27.4743 33.2172 19.6125 32.9349C15.3172 32.7806 11.4569 30.6646 8.79534 28.3355C8.7613 28.6529 8.72568 28.962 8.68843 29.2616C8.49319 30.8327 8.26255 32.078 8.00292 32.9632C7.82422 33.5727 7.40559 35 6.22072 35C5.03584 35 4.61721 33.5727 4.43851 32.9632C4.17888 32.078 3.94831 30.8327 3.75301 29.2616C3.36062 26.1045 3.14454 21.9274 3.14454 17.5C3.14454 14.6074 3.24106 11.7452 3.42372 9.22284L3.42413 9.2171C2.622 8.46802 2.11914 7.40223 2.11914 6.2207V4.10156C2.11914 2.9899 1.14871 2.05078 0 2.05078V0H4.16993C7.55714 0 10.3223 2.80732 10.3223 6.2207ZM19.6861 30.8854C26.2931 31.1225 32.9514 25.0906 32.9493 17.5003C32.9482 13.547 31.1622 9.80506 28.0493 7.23386C24.973 4.69294 20.9587 3.66789 17.0362 4.42128C16.4653 4.53093 16.1782 5.15163 16.3071 5.72838C16.5137 6.65342 16.8288 9.03779 15.2938 11.1929C14.0894 12.8838 12.0622 13.9765 9.26066 14.4481C9.28445 15.4525 9.29669 17.5764 9.29669 17.6147C9.69625 17.1491 10.2255 16.8139 10.8309 16.6517C12.473 16.2117 14.1605 17.1922 14.5985 18.8269C15.0375 20.4654 14.0617 22.1554 12.4233 22.5944C11.1928 22.9241 9.96442 22.4597 9.23462 21.5578C9.18902 23.0145 9.11882 24.4117 9.02585 25.7178C11.3462 28.1693 15.2691 30.7268 19.6861 30.8854ZM10.6367 19.8885C10.7834 20.436 11.3451 20.7603 11.8926 20.6136C12.4387 20.4673 12.764 19.9039 12.6177 19.3578C12.4713 18.8116 11.9077 18.4864 11.3618 18.6327C10.8144 18.7793 10.49 19.341 10.6367 19.8885ZM5.6871 28.1338C5.86422 29.7843 6.05371 30.903 6.22072 31.656C6.38772 30.903 6.57721 29.7843 6.75433 28.1338C7.07145 25.1786 7.24611 21.4021 7.24611 17.5C7.24611 17.1575 7.24467 16.8156 7.24194 16.4746H5.19949C5.19676 16.8156 5.19532 17.1575 5.19532 17.5C5.19532 21.4021 5.36998 25.1786 5.6871 28.1338ZM5.23258 14.4245H7.20885C7.17372 12.9765 7.1139 11.5682 7.03084 10.2415C6.76882 10.2942 6.49798 10.3223 6.22072 10.3223C5.94345 10.3223 5.67261 10.2942 5.41059 10.2415C5.3276 11.5682 5.26778 12.9764 5.23258 14.4245ZM4.16993 4.10156V6.2207C4.16993 7.3515 5.08991 8.27148 6.22072 8.27148C7.35152 8.27148 8.2715 7.3515 8.2715 6.2207C8.2715 3.92144 6.43154 2.05078 4.16993 2.05078H3.60555C3.97374 2.66882 4.16993 3.37107 4.16993 4.10156Z" fill="#F9A61A"/>
<path d="M27.5266 21.1253C28.7287 22.3274 28.729 24.2732 27.5266 25.4756C26.3273 26.6749 24.3756 26.675 23.1761 25.4756C21.974 24.2735 21.9737 22.3276 23.1761 21.1253C24.3755 19.9259 26.3271 19.9259 27.5266 21.1253ZM24.6263 24.0254C25.0261 24.4252 25.6765 24.4253 26.0764 24.0254C26.4772 23.6247 26.4772 22.9761 26.0764 22.5754C25.6765 22.1755 25.0261 22.1756 24.6263 22.5754C24.2255 22.9761 24.2255 23.6247 24.6263 24.0254Z" fill="#F9A61A"/>
<path d="M18.2239 22.4523C19.8622 22.8913 20.8381 24.5814 20.3991 26.2198C19.96 27.8581 18.2699 28.834 16.6316 28.395C14.9932 27.956 14.0174 26.2658 14.4564 24.6274C14.8964 22.9853 16.5814 22.0123 18.2239 22.4523ZM17.1624 26.4141C17.7097 26.5607 18.2722 26.2339 18.4183 25.6891C18.5646 25.143 18.2393 24.5796 17.6932 24.4333C17.1458 24.2866 16.584 24.6108 16.4373 25.1583C16.2909 25.7044 16.6162 26.2678 17.1624 26.4141Z" fill="#F9A61A"/>
<path d="M18.7026 8.78035C19.141 7.14443 20.8294 6.16562 22.4702 6.60529C24.1086 7.04428 25.0843 8.73435 24.6453 10.3727C24.2053 12.0145 22.5206 12.9879 20.8778 12.5478C19.2394 12.1088 18.2636 10.4187 18.7026 8.78035ZM21.4087 10.567C21.957 10.714 22.5181 10.3883 22.6644 9.84201C22.8108 9.29583 22.4855 8.7325 21.9394 8.58615C21.3932 8.4398 20.8299 8.76518 20.6836 9.31115C20.5372 9.85732 20.8625 10.4207 21.4087 10.567Z" fill="#F9A61A"/>
<path d="M24.5031 16.173C24.0641 14.5346 25.0399 12.8446 26.6783 12.4055C28.3192 11.9658 30.0054 12.9372 30.4458 14.5807C30.8858 16.2228 29.913 17.9081 28.2707 18.3481C26.6286 18.7884 24.9433 17.8154 24.5031 16.173ZM28.4649 15.1115C28.3184 14.5642 27.7565 14.2397 27.2091 14.3864C26.663 14.5328 26.3377 15.0961 26.4841 15.6423C26.6304 16.1885 27.1914 16.5143 27.7399 16.3673C28.2859 16.221 28.6112 15.6577 28.4649 15.1115Z" fill="#F9A61A"/>
</svg>
