<svg width="27" height="35" viewBox="0 0 27 35" fill="none" xmlns="http://www.w3.org/2000/svg">
<path d="M22.5918 2.73438H17.4357C16.8712 1.14288 15.3508 0 13.5684 0C11.7859 0 10.2655 1.14288 9.70098 2.73438H4.47656C2.21483 2.73438 0.375 4.5742 0.375 6.83594V30.8984C0.375 33.1602 2.21483 35 4.47656 35H22.5961C24.8554 34.9976 26.6934 33.1578 26.6934 30.8984V6.83594C26.6934 4.5742 24.8535 2.73438 22.5918 2.73438ZM12.2012 5.46875V4.10156C12.2012 3.34774 12.8145 2.73438 13.5684 2.73438C14.3222 2.73438 14.9355 3.34774 14.9355 4.10156V5.46875H17.6699V8.13477H9.4668V5.46875H12.2012ZM23.959 30.8984C23.959 31.6515 23.3462 32.2648 22.5947 32.2656H4.47656C3.72274 32.2656 3.10938 31.6523 3.10938 30.8984V6.83594C3.10938 6.08212 3.72274 5.46875 4.47656 5.46875H6.73242V10.8691H20.4043V5.46875H22.5918C23.3456 5.46875 23.959 6.08212 23.959 6.83594V30.8984ZM18.7778 15.7253L20.8 17.5657L12.0439 27.1873L6.26031 21.593L8.16156 19.6277L11.9189 23.2619L18.7778 15.7253Z" fill="#F9A61A"/>
</svg>
