<svg width="178" height="83" viewBox="0 0 178 83" fill="none" xmlns="http://www.w3.org/2000/svg">
<path d="M46.08 18.16V11.8H57.16V41H50.04V18.16H46.08ZM61.8391 26C61.8391 21.4133 62.7191 17.8 64.4791 15.16C66.2657 12.52 69.1324 11.2 73.0791 11.2C77.0257 11.2 79.8791 12.52 81.6391 15.16C83.4257 17.8 84.3191 21.4133 84.3191 26C84.3191 30.64 83.4257 34.28 81.6391 36.92C79.8791 39.56 77.0257 40.88 73.0791 40.88C69.1324 40.88 66.2657 39.56 64.4791 36.92C62.7191 34.28 61.8391 30.64 61.8391 26ZM77.5991 26C77.5991 23.3067 77.3057 21.24 76.7191 19.8C76.1324 18.3333 74.9191 17.6 73.0791 17.6C71.2391 17.6 70.0257 18.3333 69.4391 19.8C68.8524 21.24 68.5591 23.3067 68.5591 26C68.5591 27.8133 68.6657 29.32 68.8791 30.52C69.0924 31.6933 69.5191 32.6533 70.1591 33.4C70.8257 34.12 71.7991 34.48 73.0791 34.48C74.3591 34.48 75.3191 34.12 75.9591 33.4C76.6257 32.6533 77.0657 31.6933 77.2791 30.52C77.4924 29.32 77.5991 27.8133 77.5991 26ZM87.9328 26C87.9328 21.4133 88.8128 17.8 90.5728 15.16C92.3595 12.52 95.2261 11.2 99.1728 11.2C103.119 11.2 105.973 12.52 107.733 15.16C109.519 17.8 110.413 21.4133 110.413 26C110.413 30.64 109.519 34.28 107.733 36.92C105.973 39.56 103.119 40.88 99.1728 40.88C95.2261 40.88 92.3595 39.56 90.5728 36.92C88.8128 34.28 87.9328 30.64 87.9328 26ZM103.693 26C103.693 23.3067 103.399 21.24 102.813 19.8C102.226 18.3333 101.013 17.6 99.1728 17.6C97.3328 17.6 96.1195 18.3333 95.5328 19.8C94.9461 21.24 94.6528 23.3067 94.6528 26C94.6528 27.8133 94.7595 29.32 94.9728 30.52C95.1861 31.6933 95.6128 32.6533 96.2528 33.4C96.9195 34.12 97.8928 34.48 99.1728 34.48C100.453 34.48 101.413 34.12 102.053 33.4C102.719 32.6533 103.159 31.6933 103.373 30.52C103.586 29.32 103.693 27.8133 103.693 26ZM114.027 26C114.027 21.4133 114.907 17.8 116.667 15.16C118.453 12.52 121.32 11.2 125.267 11.2C129.213 11.2 132.067 12.52 133.827 15.16C135.613 17.8 136.507 21.4133 136.507 26C136.507 30.64 135.613 34.28 133.827 36.92C132.067 39.56 129.213 40.88 125.267 40.88C121.32 40.88 118.453 39.56 116.667 36.92C114.907 34.28 114.027 30.64 114.027 26ZM129.787 26C129.787 23.3067 129.493 21.24 128.907 19.8C128.32 18.3333 127.107 17.6 125.267 17.6C123.427 17.6 122.213 18.3333 121.627 19.8C121.04 21.24 120.747 23.3067 120.747 26C120.747 27.8133 120.853 29.32 121.067 30.52C121.28 31.6933 121.707 32.6533 122.347 33.4C123.013 34.12 123.987 34.48 125.267 34.48C126.547 34.48 127.507 34.12 128.147 33.4C128.813 32.6533 129.253 31.6933 129.467 30.52C129.68 29.32 129.787 27.8133 129.787 26Z" fill="#FDAF2F"/>
<path d="M12.28 63.06V77H10.46V70.68H3.36V77H1.54V63.06H3.36V69.18H10.46V63.06H12.28ZM14.7077 71.48C14.7077 70.36 14.9343 69.38 15.3877 68.54C15.841 67.6867 16.461 67.0267 17.2477 66.56C18.0477 66.0933 18.9343 65.86 19.9077 65.86C20.8677 65.86 21.701 66.0667 22.4077 66.48C23.1143 66.8933 23.641 67.4133 23.9877 68.04V66.04H25.8277V77H23.9877V74.96C23.6277 75.6 23.0877 76.1333 22.3677 76.56C21.661 76.9733 20.8343 77.18 19.8877 77.18C18.9143 77.18 18.0343 76.94 17.2477 76.46C16.461 75.98 15.841 75.3067 15.3877 74.44C14.9343 73.5733 14.7077 72.5867 14.7077 71.48ZM23.9877 71.5C23.9877 70.6733 23.821 69.9533 23.4877 69.34C23.1543 68.7267 22.701 68.26 22.1277 67.94C21.5677 67.6067 20.9477 67.44 20.2677 67.44C19.5877 67.44 18.9677 67.6 18.4077 67.92C17.8477 68.24 17.401 68.7067 17.0677 69.32C16.7343 69.9333 16.5677 70.6533 16.5677 71.48C16.5677 72.32 16.7343 73.0533 17.0677 73.68C17.401 74.2933 17.8477 74.7667 18.4077 75.1C18.9677 75.42 19.5877 75.58 20.2677 75.58C20.9477 75.58 21.5677 75.42 22.1277 75.1C22.701 74.7667 23.1543 74.2933 23.4877 73.68C23.821 73.0533 23.9877 72.3267 23.9877 71.5ZM30.7233 68.06C31.0833 67.4333 31.6166 66.9133 32.3233 66.5C33.0433 66.0733 33.8766 65.86 34.8233 65.86C35.7966 65.86 36.6766 66.0933 37.4633 66.56C38.2633 67.0267 38.8899 67.6867 39.3433 68.54C39.7966 69.38 40.0233 70.36 40.0233 71.48C40.0233 72.5867 39.7966 73.5733 39.3433 74.44C38.8899 75.3067 38.2633 75.98 37.4633 76.46C36.6766 76.94 35.7966 77.18 34.8233 77.18C33.8899 77.18 33.0633 76.9733 32.3433 76.56C31.6366 76.1333 31.0966 75.6067 30.7233 74.98V82.2H28.9033V66.04H30.7233V68.06ZM38.1633 71.48C38.1633 70.6533 37.9966 69.9333 37.6633 69.32C37.3299 68.7067 36.8766 68.24 36.3033 67.92C35.7433 67.6 35.1233 67.44 34.4433 67.44C33.7766 67.44 33.1566 67.6067 32.5833 67.94C32.0233 68.26 31.5699 68.7333 31.2233 69.36C30.8899 69.9733 30.7233 70.6867 30.7233 71.5C30.7233 72.3267 30.8899 73.0533 31.2233 73.68C31.5699 74.2933 32.0233 74.7667 32.5833 75.1C33.1566 75.42 33.7766 75.58 34.4433 75.58C35.1233 75.58 35.7433 75.42 36.3033 75.1C36.8766 74.7667 37.3299 74.2933 37.6633 73.68C37.9966 73.0533 38.1633 72.32 38.1633 71.48ZM44.2389 68.06C44.5989 67.4333 45.1322 66.9133 45.8389 66.5C46.5589 66.0733 47.3922 65.86 48.3389 65.86C49.3122 65.86 50.1922 66.0933 50.9789 66.56C51.7789 67.0267 52.4056 67.6867 52.8589 68.54C53.3122 69.38 53.5389 70.36 53.5389 71.48C53.5389 72.5867 53.3122 73.5733 52.8589 74.44C52.4056 75.3067 51.7789 75.98 50.9789 76.46C50.1922 76.94 49.3122 77.18 48.3389 77.18C47.4056 77.18 46.5789 76.9733 45.8589 76.56C45.1522 76.1333 44.6122 75.6067 44.2389 74.98V82.2H42.4189V66.04H44.2389V68.06ZM51.6789 71.48C51.6789 70.6533 51.5122 69.9333 51.1789 69.32C50.8456 68.7067 50.3922 68.24 49.8189 67.92C49.2589 67.6 48.6389 67.44 47.9589 67.44C47.2922 67.44 46.6722 67.6067 46.0989 67.94C45.5389 68.26 45.0856 68.7333 44.7389 69.36C44.4056 69.9733 44.2389 70.6867 44.2389 71.5C44.2389 72.3267 44.4056 73.0533 44.7389 73.68C45.0856 74.2933 45.5389 74.7667 46.0989 75.1C46.6722 75.42 47.2922 75.58 47.9589 75.58C48.6389 75.58 49.2589 75.42 49.8189 75.1C50.3922 74.7667 50.8456 74.2933 51.1789 73.68C51.5122 73.0533 51.6789 72.32 51.6789 71.48ZM65.3745 66.04L58.7745 82.16H56.8945L59.0545 76.88L54.6345 66.04H56.6545L60.0945 74.92L63.4945 66.04H65.3745ZM71.8561 71.5C71.8561 70.3667 72.0828 69.38 72.5361 68.54C72.9894 67.6867 73.6161 67.0267 74.4161 66.56C75.2294 66.0933 76.1561 65.86 77.1961 65.86C78.5428 65.86 79.6494 66.1867 80.5161 66.84C81.3961 67.4933 81.9761 68.4 82.2561 69.56H80.2961C80.1094 68.8933 79.7428 68.3667 79.1961 67.98C78.6628 67.5933 77.9961 67.4 77.1961 67.4C76.1561 67.4 75.3161 67.76 74.6761 68.48C74.0361 69.1867 73.7161 70.1933 73.7161 71.5C73.7161 72.82 74.0361 73.84 74.6761 74.56C75.3161 75.28 76.1561 75.64 77.1961 75.64C77.9961 75.64 78.6628 75.4533 79.1961 75.08C79.7294 74.7067 80.0961 74.1733 80.2961 73.48H82.2561C81.9628 74.6 81.3761 75.5 80.4961 76.18C79.6161 76.8467 78.5161 77.18 77.1961 77.18C76.1561 77.18 75.2294 76.9467 74.4161 76.48C73.6161 76.0133 72.9894 75.3533 72.5361 74.5C72.0828 73.6467 71.8561 72.6467 71.8561 71.5ZM94.4045 66.04V77H92.5845V75.38C92.2379 75.94 91.7512 76.38 91.1245 76.7C90.5112 77.0067 89.8312 77.16 89.0845 77.16C88.2312 77.16 87.4645 76.9867 86.7845 76.64C86.1045 76.28 85.5645 75.7467 85.1645 75.04C84.7779 74.3333 84.5845 73.4733 84.5845 72.46V66.04H86.3845V72.22C86.3845 73.3 86.6579 74.1333 87.2045 74.72C87.7512 75.2933 88.4979 75.58 89.4445 75.58C90.4179 75.58 91.1845 75.28 91.7445 74.68C92.3045 74.08 92.5845 73.2067 92.5845 72.06V66.04H94.4045ZM101.358 77.18C100.518 77.18 99.7642 77.04 99.0975 76.76C98.4308 76.4667 97.9042 76.0667 97.5175 75.56C97.1308 75.04 96.9175 74.4467 96.8775 73.78H98.7575C98.8108 74.3267 99.0642 74.7733 99.5175 75.12C99.9842 75.4667 100.591 75.64 101.338 75.64C102.031 75.64 102.578 75.4867 102.978 75.18C103.378 74.8733 103.578 74.4867 103.578 74.02C103.578 73.54 103.364 73.1867 102.938 72.96C102.511 72.72 101.851 72.4867 100.958 72.26C100.144 72.0467 99.4775 71.8333 98.9575 71.62C98.4508 71.3933 98.0108 71.0667 97.6375 70.64C97.2775 70.2 97.0975 69.6267 97.0975 68.92C97.0975 68.36 97.2642 67.8467 97.5975 67.38C97.9308 66.9133 98.4042 66.5467 99.0175 66.28C99.6308 66 100.331 65.86 101.118 65.86C102.331 65.86 103.311 66.1667 104.058 66.78C104.804 67.3933 105.204 68.2333 105.258 69.3H103.438C103.398 68.7267 103.164 68.2667 102.738 67.92C102.324 67.5733 101.764 67.4 101.058 67.4C100.404 67.4 99.8842 67.54 99.4975 67.82C99.1108 68.1 98.9175 68.4667 98.9175 68.92C98.9175 69.28 99.0308 69.58 99.2575 69.82C99.4975 70.0467 99.7908 70.2333 100.138 70.38C100.498 70.5133 100.991 70.6667 101.618 70.84C102.404 71.0533 103.044 71.2667 103.538 71.48C104.031 71.68 104.451 71.9867 104.798 72.4C105.158 72.8133 105.344 73.3533 105.358 74.02C105.358 74.62 105.191 75.16 104.858 75.64C104.524 76.12 104.051 76.5 103.438 76.78C102.838 77.0467 102.144 77.18 101.358 77.18ZM110.147 67.54V74C110.147 74.5333 110.26 74.9133 110.487 75.14C110.713 75.3533 111.107 75.46 111.667 75.46H113.007V77H111.367C110.353 77 109.593 76.7667 109.087 76.3C108.58 75.8333 108.327 75.0667 108.327 74V67.54H106.907V66.04H108.327V63.28H110.147V66.04H113.007V67.54H110.147ZM119.992 77.18C118.965 77.18 118.032 76.9467 117.192 76.48C116.365 76.0133 115.712 75.3533 115.232 74.5C114.765 73.6333 114.532 72.6333 114.532 71.5C114.532 70.38 114.772 69.3933 115.252 68.54C115.745 67.6733 116.412 67.0133 117.252 66.56C118.092 66.0933 119.032 65.86 120.072 65.86C121.112 65.86 122.052 66.0933 122.892 66.56C123.732 67.0133 124.392 67.6667 124.872 68.52C125.365 69.3733 125.612 70.3667 125.612 71.5C125.612 72.6333 125.359 73.6333 124.852 74.5C124.359 75.3533 123.685 76.0133 122.832 76.48C121.979 76.9467 121.032 77.18 119.992 77.18ZM119.992 75.58C120.645 75.58 121.259 75.4267 121.832 75.12C122.405 74.8133 122.865 74.3533 123.212 73.74C123.572 73.1267 123.752 72.38 123.752 71.5C123.752 70.62 123.579 69.8733 123.232 69.26C122.885 68.6467 122.432 68.1933 121.872 67.9C121.312 67.5933 120.705 67.44 120.052 67.44C119.385 67.44 118.772 67.5933 118.212 67.9C117.665 68.1933 117.225 68.6467 116.892 69.26C116.559 69.8733 116.392 70.62 116.392 71.5C116.392 72.3933 116.552 73.1467 116.872 73.76C117.205 74.3733 117.645 74.8333 118.192 75.14C118.739 75.4333 119.339 75.58 119.992 75.58ZM141.185 65.84C142.038 65.84 142.798 66.02 143.465 66.38C144.132 66.7267 144.658 67.2533 145.045 67.96C145.432 68.6667 145.625 69.5267 145.625 70.54V77H143.825V70.8C143.825 69.7067 143.552 68.8733 143.005 68.3C142.472 67.7133 141.745 67.42 140.825 67.42C139.878 67.42 139.125 67.7267 138.565 68.34C138.005 68.94 137.725 69.8133 137.725 70.96V77H135.925V70.8C135.925 69.7067 135.652 68.8733 135.105 68.3C134.572 67.7133 133.845 67.42 132.925 67.42C131.978 67.42 131.225 67.7267 130.665 68.34C130.105 68.94 129.825 69.8133 129.825 70.96V77H128.005V66.04H129.825V67.62C130.185 67.0467 130.665 66.6067 131.265 66.3C131.878 65.9933 132.552 65.84 133.285 65.84C134.205 65.84 135.018 66.0467 135.725 66.46C136.432 66.8733 136.958 67.48 137.305 68.28C137.612 67.5067 138.118 66.9067 138.825 66.48C139.532 66.0533 140.318 65.84 141.185 65.84ZM158.61 71.1C158.61 71.4467 158.59 71.8133 158.55 72.2H149.79C149.857 73.28 150.224 74.1267 150.89 74.74C151.57 75.34 152.39 75.64 153.35 75.64C154.137 75.64 154.79 75.46 155.31 75.1C155.844 74.7267 156.217 74.2333 156.43 73.62H158.39C158.097 74.6733 157.51 75.5333 156.63 76.2C155.75 76.8533 154.657 77.18 153.35 77.18C152.31 77.18 151.377 76.9467 150.55 76.48C149.737 76.0133 149.097 75.3533 148.63 74.5C148.164 73.6333 147.93 72.6333 147.93 71.5C147.93 70.3667 148.157 69.3733 148.61 68.52C149.064 67.6667 149.697 67.0133 150.51 66.56C151.337 66.0933 152.284 65.86 153.35 65.86C154.39 65.86 155.31 66.0867 156.11 66.54C156.91 66.9933 157.524 67.62 157.95 68.42C158.39 69.2067 158.61 70.1 158.61 71.1ZM156.73 70.72C156.73 70.0267 156.577 69.4333 156.27 68.94C155.964 68.4333 155.544 68.0533 155.01 67.8C154.49 67.5333 153.91 67.4 153.27 67.4C152.35 67.4 151.564 67.6933 150.91 68.28C150.27 68.8667 149.904 69.68 149.81 70.72H156.73ZM162.833 67.82C163.153 67.1933 163.606 66.7067 164.193 66.36C164.793 66.0133 165.519 65.84 166.373 65.84V67.72H165.893C163.853 67.72 162.833 68.8267 162.833 71.04V77H161.013V66.04H162.833V67.82ZM172.354 77.18C171.514 77.18 170.76 77.04 170.094 76.76C169.427 76.4667 168.9 76.0667 168.514 75.56C168.127 75.04 167.914 74.4467 167.874 73.78H169.754C169.807 74.3267 170.06 74.7733 170.514 75.12C170.98 75.4667 171.587 75.64 172.334 75.64C173.027 75.64 173.574 75.4867 173.974 75.18C174.374 74.8733 174.574 74.4867 174.574 74.02C174.574 73.54 174.36 73.1867 173.934 72.96C173.507 72.72 172.847 72.4867 171.954 72.26C171.14 72.0467 170.474 71.8333 169.954 71.62C169.447 71.3933 169.007 71.0667 168.634 70.64C168.274 70.2 168.094 69.6267 168.094 68.92C168.094 68.36 168.26 67.8467 168.594 67.38C168.927 66.9133 169.4 66.5467 170.014 66.28C170.627 66 171.327 65.86 172.114 65.86C173.327 65.86 174.307 66.1667 175.054 66.78C175.8 67.3933 176.2 68.2333 176.254 69.3H174.434C174.394 68.7267 174.16 68.2667 173.734 67.92C173.32 67.5733 172.76 67.4 172.054 67.4C171.4 67.4 170.88 67.54 170.494 67.82C170.107 68.1 169.914 68.4667 169.914 68.92C169.914 69.28 170.027 69.58 170.254 69.82C170.494 70.0467 170.787 70.2333 171.134 70.38C171.494 70.5133 171.987 70.6667 172.614 70.84C173.4 71.0533 174.04 71.2667 174.534 71.48C175.027 71.68 175.447 71.9867 175.794 72.4C176.154 72.8133 176.34 73.3533 176.354 74.02C176.354 74.62 176.187 75.16 175.854 75.64C175.52 76.12 175.047 76.5 174.434 76.78C173.834 77.0467 173.14 77.18 172.354 77.18Z" fill="#5A5A5A"/>
</svg>
