<svg width="139" height="81" viewBox="0 0 139 81" fill="none" xmlns="http://www.w3.org/2000/svg">
<path d="M2.04 20.04C2.14667 17.1867 3.08 14.9867 4.84 13.44C6.6 11.8933 8.98667 11.12 12 11.12C14 11.12 15.7067 11.4667 17.12 12.16C18.56 12.8533 19.64 13.8 20.36 15C21.1067 16.2 21.48 17.5467 21.48 19.04C21.48 20.8 21.04 22.24 20.16 23.36C19.28 24.4533 18.2533 25.2 17.08 25.6V25.76C18.6 26.2667 19.8 27.1067 20.68 28.28C21.56 29.4533 22 30.96 22 32.8C22 34.4533 21.6133 35.92 20.84 37.2C20.0933 38.4533 18.9867 39.44 17.52 40.16C16.08 40.88 14.36 41.24 12.36 41.24C9.16 41.24 6.6 40.4533 4.68 38.88C2.78667 37.3067 1.78667 34.9333 1.68 31.76H8.32C8.34667 32.9333 8.68 33.8667 9.32 34.56C9.96 35.2267 10.8933 35.56 12.12 35.56C13.16 35.56 13.96 35.2667 14.52 34.68C15.1067 34.0667 15.4 33.2667 15.4 32.28C15.4 31 14.9867 30.08 14.16 29.52C13.36 28.9333 12.0667 28.64 10.28 28.64H9V23.08H10.28C11.64 23.08 12.7333 22.8533 13.56 22.4C14.4133 21.92 14.84 21.08 14.84 19.88C14.84 18.92 14.5733 18.1733 14.04 17.64C13.5067 17.1067 12.7733 16.84 11.84 16.84C10.8267 16.84 10.0667 17.1467 9.56 17.76C9.08 18.3733 8.8 19.1333 8.72 20.04H2.04ZM26.0188 26C26.0188 21.4133 26.8988 17.8 28.6588 15.16C30.4454 12.52 33.3121 11.2 37.2588 11.2C41.2054 11.2 44.0588 12.52 45.8188 15.16C47.6054 17.8 48.4988 21.4133 48.4988 26C48.4988 30.64 47.6054 34.28 45.8188 36.92C44.0588 39.56 41.2054 40.88 37.2588 40.88C33.3121 40.88 30.4454 39.56 28.6588 36.92C26.8988 34.28 26.0188 30.64 26.0188 26ZM41.7788 26C41.7788 23.3067 41.4854 21.24 40.8988 19.8C40.3121 18.3333 39.0988 17.6 37.2588 17.6C35.4188 17.6 34.2054 18.3333 33.6188 19.8C33.0321 21.24 32.7388 23.3067 32.7388 26C32.7388 27.8133 32.8454 29.32 33.0588 30.52C33.2721 31.6933 33.6988 32.6533 34.3388 33.4C35.0054 34.12 35.9788 34.48 37.2588 34.48C38.5388 34.48 39.4988 34.12 40.1388 33.4C40.8054 32.6533 41.2454 31.6933 41.4588 30.52C41.6721 29.32 41.7788 27.8133 41.7788 26ZM52.1125 26C52.1125 21.4133 52.9925 17.8 54.7525 15.16C56.5392 12.52 59.4058 11.2 63.3525 11.2C67.2992 11.2 70.1525 12.52 71.9125 15.16C73.6992 17.8 74.5925 21.4133 74.5925 26C74.5925 30.64 73.6992 34.28 71.9125 36.92C70.1525 39.56 67.2992 40.88 63.3525 40.88C59.4058 40.88 56.5392 39.56 54.7525 36.92C52.9925 34.28 52.1125 30.64 52.1125 26ZM67.8725 26C67.8725 23.3067 67.5792 21.24 66.9925 19.8C66.4058 18.3333 65.1925 17.6 63.3525 17.6C61.5125 17.6 60.2992 18.3333 59.7125 19.8C59.1258 21.24 58.8325 23.3067 58.8325 26C58.8325 27.8133 58.9392 29.32 59.1525 30.52C59.3658 31.6933 59.7925 32.6533 60.4325 33.4C61.0992 34.12 62.0725 34.48 63.3525 34.48C64.6325 34.48 65.5925 34.12 66.2325 33.4C66.8992 32.6533 67.3392 31.6933 67.5525 30.52C67.7658 29.32 67.8725 27.8133 67.8725 26ZM110.686 12.92V41H103.846V24.16L97.5663 41H92.0463L85.7263 24.12V41H78.8863V12.92H86.9662L94.8463 32.36L102.646 12.92H110.686ZM135.885 30.08H128.925V37.2H122.445V30.08H115.485V23.96H122.445V16.8H128.925V23.96H135.885V30.08Z" fill="#FDAF2F"/>
<path d="M20.12 61.06V62.54H16.32V75H14.5V62.54H10.68V61.06H20.12ZM24.1803 65.82C24.5003 65.1933 24.9536 64.7067 25.5403 64.36C26.1403 64.0133 26.867 63.84 27.7203 63.84V65.72H27.2403C25.2003 65.72 24.1803 66.8267 24.1803 69.04V75H22.3603V64.04H24.1803V65.82ZM29.1413 69.48C29.1413 68.36 29.3679 67.38 29.8213 66.54C30.2746 65.6867 30.8946 65.0267 31.6813 64.56C32.4813 64.0933 33.3679 63.86 34.3413 63.86C35.3013 63.86 36.1346 64.0667 36.8413 64.48C37.5479 64.8933 38.0746 65.4133 38.4213 66.04V64.04H40.2613V75H38.4213V72.96C38.0613 73.6 37.5213 74.1333 36.8013 74.56C36.0946 74.9733 35.2679 75.18 34.3213 75.18C33.3479 75.18 32.4679 74.94 31.6813 74.46C30.8946 73.98 30.2746 73.3067 29.8213 72.44C29.3679 71.5733 29.1413 70.5867 29.1413 69.48ZM38.4213 69.5C38.4213 68.6733 38.2546 67.9533 37.9213 67.34C37.5879 66.7267 37.1346 66.26 36.5613 65.94C36.0013 65.6067 35.3813 65.44 34.7013 65.44C34.0213 65.44 33.4013 65.6 32.8413 65.92C32.2813 66.24 31.8346 66.7067 31.5013 67.32C31.1679 67.9333 31.0013 68.6533 31.0013 69.48C31.0013 70.32 31.1679 71.0533 31.5013 71.68C31.8346 72.2933 32.2813 72.7667 32.8413 73.1C33.4013 73.42 34.0213 73.58 34.7013 73.58C35.3813 73.58 36.0013 73.42 36.5613 73.1C37.1346 72.7667 37.5879 72.2933 37.9213 71.68C38.2546 71.0533 38.4213 70.3267 38.4213 69.5ZM48.6769 63.84C50.0102 63.84 51.0902 64.2467 51.9169 65.06C52.7435 65.86 53.1569 67.02 53.1569 68.54V75H51.3569V68.8C51.3569 67.7067 51.0835 66.8733 50.5369 66.3C49.9902 65.7133 49.2435 65.42 48.2969 65.42C47.3369 65.42 46.5702 65.72 45.9969 66.32C45.4369 66.92 45.1569 67.7933 45.1569 68.94V75H43.3369V64.04H45.1569V65.6C45.5169 65.04 46.0035 64.6067 46.6169 64.3C47.2435 63.9933 47.9302 63.84 48.6769 63.84ZM60.0098 75.18C59.1698 75.18 58.4165 75.04 57.7498 74.76C57.0832 74.4667 56.5565 74.0667 56.1698 73.56C55.7832 73.04 55.5698 72.4467 55.5298 71.78H57.4098C57.4632 72.3267 57.7165 72.7733 58.1698 73.12C58.6365 73.4667 59.2432 73.64 59.9898 73.64C60.6832 73.64 61.2298 73.4867 61.6298 73.18C62.0298 72.8733 62.2298 72.4867 62.2298 72.02C62.2298 71.54 62.0165 71.1867 61.5898 70.96C61.1632 70.72 60.5032 70.4867 59.6098 70.26C58.7965 70.0467 58.1298 69.8333 57.6098 69.62C57.1032 69.3933 56.6632 69.0667 56.2898 68.64C55.9298 68.2 55.7498 67.6267 55.7498 66.92C55.7498 66.36 55.9165 65.8467 56.2498 65.38C56.5832 64.9133 57.0565 64.5467 57.6698 64.28C58.2832 64 58.9832 63.86 59.7698 63.86C60.9832 63.86 61.9632 64.1667 62.7098 64.78C63.4565 65.3933 63.8565 66.2333 63.9098 67.3H62.0898C62.0498 66.7267 61.8165 66.2667 61.3898 65.92C60.9765 65.5733 60.4165 65.4 59.7098 65.4C59.0565 65.4 58.5365 65.54 58.1498 65.82C57.7632 66.1 57.5698 66.4667 57.5698 66.92C57.5698 67.28 57.6832 67.58 57.9098 67.82C58.1498 68.0467 58.4432 68.2333 58.7898 68.38C59.1498 68.5133 59.6432 68.6667 60.2698 68.84C61.0565 69.0533 61.6965 69.2667 62.1898 69.48C62.6832 69.68 63.1032 69.9867 63.4498 70.4C63.8098 70.8133 63.9965 71.3533 64.0098 72.02C64.0098 72.62 63.8432 73.16 63.5098 73.64C63.1765 74.12 62.7032 74.5 62.0898 74.78C61.4898 75.0467 60.7965 75.18 60.0098 75.18ZM65.8991 69.48C65.8991 68.36 66.1257 67.38 66.5791 66.54C67.0324 65.6867 67.6524 65.0267 68.4391 64.56C69.2391 64.0933 70.1257 63.86 71.0991 63.86C72.0591 63.86 72.8924 64.0667 73.5991 64.48C74.3057 64.8933 74.8324 65.4133 75.1791 66.04V64.04H77.0191V75H75.1791V72.96C74.8191 73.6 74.2791 74.1333 73.5591 74.56C72.8524 74.9733 72.0257 75.18 71.0791 75.18C70.1057 75.18 69.2257 74.94 68.4391 74.46C67.6524 73.98 67.0324 73.3067 66.5791 72.44C66.1257 71.5733 65.8991 70.5867 65.8991 69.48ZM75.1791 69.5C75.1791 68.6733 75.0124 67.9533 74.6791 67.34C74.3457 66.7267 73.8924 66.26 73.3191 65.94C72.7591 65.6067 72.1391 65.44 71.4591 65.44C70.7791 65.44 70.1591 65.6 69.5991 65.92C69.0391 66.24 68.5924 66.7067 68.2591 67.32C67.9257 67.9333 67.7591 68.6533 67.7591 69.48C67.7591 70.32 67.9257 71.0533 68.2591 71.68C68.5924 72.2933 69.0391 72.7667 69.5991 73.1C70.1591 73.42 70.7791 73.58 71.4591 73.58C72.1391 73.58 72.7591 73.42 73.3191 73.1C73.8924 72.7667 74.3457 72.2933 74.6791 71.68C75.0124 71.0533 75.1791 70.3267 75.1791 69.5ZM79.4147 69.5C79.4147 68.3667 79.6414 67.38 80.0947 66.54C80.548 65.6867 81.1747 65.0267 81.9747 64.56C82.788 64.0933 83.7147 63.86 84.7547 63.86C86.1014 63.86 87.208 64.1867 88.0747 64.84C88.9547 65.4933 89.5347 66.4 89.8147 67.56H87.8547C87.668 66.8933 87.3014 66.3667 86.7547 65.98C86.2214 65.5933 85.5547 65.4 84.7547 65.4C83.7147 65.4 82.8747 65.76 82.2347 66.48C81.5947 67.1867 81.2747 68.1933 81.2747 69.5C81.2747 70.82 81.5947 71.84 82.2347 72.56C82.8747 73.28 83.7147 73.64 84.7547 73.64C85.5547 73.64 86.2214 73.4533 86.7547 73.08C87.288 72.7067 87.6547 72.1733 87.8547 71.48H89.8147C89.5214 72.6 88.9347 73.5 88.0547 74.18C87.1747 74.8467 86.0747 75.18 84.7547 75.18C83.7147 75.18 82.788 74.9467 81.9747 74.48C81.1747 74.0133 80.548 73.3533 80.0947 72.5C79.6414 71.6467 79.4147 70.6467 79.4147 69.5ZM94.4631 65.54V72C94.4631 72.5333 94.5765 72.9133 94.8031 73.14C95.0298 73.3533 95.4231 73.46 95.9831 73.46H97.3231V75H95.6831C94.6698 75 93.9098 74.7667 93.4031 74.3C92.8965 73.8333 92.6431 73.0667 92.6431 72V65.54H91.2231V64.04H92.6431V61.28H94.4631V64.04H97.3231V65.54H94.4631ZM100.468 62.26C100.122 62.26 99.8283 62.14 99.5883 61.9C99.3483 61.66 99.2283 61.3667 99.2283 61.02C99.2283 60.6733 99.3483 60.38 99.5883 60.14C99.8283 59.9 100.122 59.78 100.468 59.78C100.802 59.78 101.082 59.9 101.308 60.14C101.548 60.38 101.668 60.6733 101.668 61.02C101.668 61.3667 101.548 61.66 101.308 61.9C101.082 62.14 100.802 62.26 100.468 62.26ZM101.348 64.04V75H99.5283V64.04H101.348ZM109.23 75.18C108.203 75.18 107.27 74.9467 106.43 74.48C105.603 74.0133 104.95 73.3533 104.47 72.5C104.003 71.6333 103.77 70.6333 103.77 69.5C103.77 68.38 104.01 67.3933 104.49 66.54C104.983 65.6733 105.65 65.0133 106.49 64.56C107.33 64.0933 108.27 63.86 109.31 63.86C110.35 63.86 111.29 64.0933 112.13 64.56C112.97 65.0133 113.63 65.6667 114.11 66.52C114.603 67.3733 114.85 68.3667 114.85 69.5C114.85 70.6333 114.597 71.6333 114.09 72.5C113.597 73.3533 112.923 74.0133 112.07 74.48C111.217 74.9467 110.27 75.18 109.23 75.18ZM109.23 73.58C109.883 73.58 110.497 73.4267 111.07 73.12C111.643 72.8133 112.103 72.3533 112.45 71.74C112.81 71.1267 112.99 70.38 112.99 69.5C112.99 68.62 112.817 67.8733 112.47 67.26C112.123 66.6467 111.67 66.1933 111.11 65.9C110.55 65.5933 109.943 65.44 109.29 65.44C108.623 65.44 108.01 65.5933 107.45 65.9C106.903 66.1933 106.463 66.6467 106.13 67.26C105.797 67.8733 105.63 68.62 105.63 69.5C105.63 70.3933 105.79 71.1467 106.11 71.76C106.443 72.3733 106.883 72.8333 107.43 73.14C107.977 73.4333 108.577 73.58 109.23 73.58ZM122.583 63.84C123.916 63.84 124.996 64.2467 125.823 65.06C126.65 65.86 127.063 67.02 127.063 68.54V75H125.263V68.8C125.263 67.7067 124.99 66.8733 124.443 66.3C123.896 65.7133 123.15 65.42 122.203 65.42C121.243 65.42 120.476 65.72 119.903 66.32C119.343 66.92 119.063 67.7933 119.063 68.94V75H117.243V64.04H119.063V65.6C119.423 65.04 119.91 64.6067 120.523 64.3C121.15 63.9933 121.836 63.84 122.583 63.84Z" fill="#5A5A5A"/>
</svg>
