<svg width="175" height="83" viewBox="0 0 175 83" fill="none" xmlns="http://www.w3.org/2000/svg">
<path d="M60.4 41H67.24V35.8H70.52V29.88H67.24V12.2H59.6L46.96 30.28V35.8H60.4V41ZM54.16 29.88L60.88 19.72V29.88H54.16ZM81.7903 37.64C81.7903 35.52 80.1503 33.88 77.7503 33.88C75.3103 33.88 73.6703 35.52 73.6703 37.64C73.6703 39.68 75.3103 41.32 77.7503 41.32C80.1503 41.32 81.7903 39.68 81.7903 37.64ZM84.4794 11.84V17.68H96.9194L86.7594 41H93.7594L103.799 16.92V11.84H84.4794ZM111.366 25.32C108.566 26.64 106.926 29.12 106.926 32.44C106.926 38.28 111.766 41.56 117.726 41.56C123.686 41.56 128.526 38.28 128.526 32.44C128.526 29.12 126.886 26.68 124.046 25.32C126.246 24.16 127.806 22.04 127.806 19.04C127.806 14.88 124.606 11.2 117.726 11.2C110.846 11.2 107.606 14.88 107.606 19.04C107.606 22.12 109.126 24.12 111.366 25.32ZM117.726 23.48C115.766 23.48 114.286 22.24 114.286 20.12C114.286 17.88 115.686 16.64 117.726 16.64C119.766 16.64 121.166 17.88 121.166 20.08C121.166 22.2 119.686 23.48 117.726 23.48ZM117.726 28.28C120.166 28.28 121.846 29.72 121.846 32.12C121.846 34.28 120.326 35.96 117.726 35.96C115.086 35.96 113.526 34.32 113.526 32.12C113.526 29.64 115.286 28.28 117.726 28.28Z" fill="#FDAF2F"/>
<path d="M9 67.16C9 68.72 8.1 69.84 6.04 69.84H3.36V64.56H6.04C8.12 64.56 9 65.58 9 67.16ZM1.54 63.06V77H3.36V71.3H5.56L8.88 77H11.06L7.56 71.16C9.9 70.64 10.88 68.94 10.88 67.16C10.88 64.88 9.32 63.06 6.04 63.06H1.54ZM13.028 71.48C13.028 74.88 15.288 77.18 18.208 77.18C20.228 77.18 21.648 76.14 22.308 74.96V77H24.148V66.04H22.308V68.04C21.668 66.9 20.268 65.86 18.228 65.86C15.288 65.86 13.028 68.06 13.028 71.48ZM22.308 71.5C22.308 74.08 20.588 75.58 18.588 75.58C16.588 75.58 14.888 74.06 14.888 71.48C14.888 68.9 16.588 67.44 18.588 67.44C20.588 67.44 22.308 68.96 22.308 71.5ZM27.6236 74C27.6236 76.2 28.7236 77 30.6636 77H32.3036V75.46H30.9636C29.8436 75.46 29.4436 75.08 29.4436 74V67.54H32.3036V66.04H29.4436V63.28H27.6236V66.04H26.2036V67.54H27.6236V74ZM34.5088 77H36.3288V66.04H34.5088V77ZM35.4488 64.26C36.1088 64.26 36.6488 63.72 36.6488 63.02C36.6488 62.32 36.1088 61.78 35.4488 61.78C34.7488 61.78 34.2088 62.32 34.2088 63.02C34.2088 63.72 34.7488 64.26 35.4488 64.26ZM47.4506 77H49.2506V70.54C49.2506 67.4 47.3106 65.84 44.7706 65.84C43.2906 65.84 41.9706 66.46 41.2506 67.6V66.04H39.4306V77H41.2506V70.94C41.2506 68.58 42.5306 67.42 44.3906 67.42C46.2306 67.42 47.4506 68.56 47.4506 70.8V77ZM51.5436 71.48C51.5436 74.88 53.8036 77.18 56.7436 77.18C58.7436 77.18 60.1636 76.12 60.8236 74.94V77.24C60.8236 79.58 59.3636 80.82 57.4236 80.82C55.6236 80.82 54.3236 79.92 53.9236 78.6H52.1236C52.4836 80.94 54.5436 82.4 57.4236 82.4C60.6436 82.4 62.6636 80.26 62.6636 77.24V66.04H60.8236V68.04C60.1836 66.86 58.7436 65.86 56.7436 65.86C53.8036 65.86 51.5436 68.06 51.5436 71.48ZM60.8236 71.5C60.8236 74.08 59.1036 75.58 57.1036 75.58C55.1036 75.58 53.4036 74.06 53.4036 71.48C53.4036 68.9 55.1036 67.44 57.1036 67.44C59.1036 67.44 60.8236 68.96 60.8236 71.5ZM73.8913 77.02L75.9113 77L79.2713 65.78L82.5113 77H84.5513L88.5913 63.06H86.6313L83.5713 74.84L80.3713 63.06H78.3313L74.9713 74.88L71.9313 63.06H69.9913L73.8913 77.02ZM100.983 71.5C100.983 68.04 98.563 65.86 95.443 65.86C92.343 65.86 89.903 68.04 89.903 71.5C89.903 74.98 92.263 77.18 95.363 77.18C98.483 77.18 100.983 74.98 100.983 71.5ZM91.763 71.5C91.763 68.74 93.503 67.44 95.423 67.44C97.303 67.44 99.123 68.74 99.123 71.5C99.123 74.28 97.263 75.58 95.363 75.58C93.463 75.58 91.763 74.28 91.763 71.5ZM105.196 71.04C105.196 68.5 106.516 67.72 108.256 67.72H108.736V65.84C106.996 65.84 105.816 66.6 105.196 67.82V66.04H103.376V77H105.196V71.04ZM110.837 77H112.657V62.2H110.837V77ZM115.079 71.48C115.079 74.88 117.339 77.18 120.279 77.18C122.279 77.18 123.699 76.16 124.359 74.94V77H126.199V62.2H124.359V68C123.599 66.74 122.019 65.86 120.299 65.86C117.339 65.86 115.079 68.06 115.079 71.48ZM124.359 71.5C124.359 74.08 122.639 75.58 120.639 75.58C118.639 75.58 116.939 74.06 116.939 71.48C116.939 68.9 118.639 67.44 120.639 67.44C122.639 67.44 124.359 68.96 124.359 71.5ZM131.414 77H133.294L135.934 68.3L138.574 77H140.454L143.874 66.04H142.074L139.594 75.26L136.934 66.04H135.074L132.354 75.24L129.834 66.04H127.974L131.414 77ZM145.681 77H147.501V66.04H145.681V77ZM146.621 64.26C147.281 64.26 147.821 63.72 147.821 63.02C147.821 62.32 147.281 61.78 146.621 61.78C145.921 61.78 145.381 62.32 145.381 63.02C145.381 63.72 145.921 64.26 146.621 64.26ZM149.923 71.48C149.923 74.88 152.183 77.18 155.123 77.18C157.123 77.18 158.543 76.16 159.203 74.94V77H161.043V62.2H159.203V68C158.443 66.74 156.863 65.86 155.143 65.86C152.183 65.86 149.923 68.06 149.923 71.48ZM159.203 71.5C159.203 74.08 157.483 75.58 155.483 75.58C153.483 75.58 151.783 74.06 151.783 71.48C151.783 68.9 153.483 67.44 155.483 67.44C157.483 67.44 159.203 68.96 159.203 71.5ZM168.778 67.4C170.658 67.4 172.258 68.58 172.238 70.72H165.318C165.518 68.58 166.998 67.4 168.778 67.4ZM173.898 73.62H171.938C171.538 74.8 170.498 75.64 168.858 75.64C166.998 75.64 165.438 74.42 165.298 72.2H174.058C174.098 71.82 174.118 71.5 174.118 71.1C174.118 68.1 172.038 65.86 168.858 65.86C165.658 65.86 163.438 68.04 163.438 71.5C163.438 74.98 165.738 77.18 168.858 77.18C171.578 77.18 173.338 75.62 173.898 73.62Z" fill="#5A5A5A"/>
</svg>
