<svg width="653" height="517" viewBox="0 0 653 517" fill="none" xmlns="http://www.w3.org/2000/svg">
<g clip-path="url(#clip0)">
<path fill-rule="evenodd" clip-rule="evenodd" d="M436.806 190.079C431.218 201.033 425.263 211.767 419.308 222.5C416.146 228.235 405.927 251.76 403.28 252.716C400.412 253.671 382.988 243.453 377.988 241.468C369.092 237.865 360.637 234.557 351.373 232.352C341.006 229.925 330.492 228.088 319.758 228.97C315.052 229.337 307.259 230.514 311.891 223.897C315.347 219.045 318.655 214.634 323.287 211.105C326.669 208.532 331.595 203.901 335.565 202.21C339.683 200.445 345.859 200.813 350.343 200.96C355.196 201.107 378.135 208.238 379.458 200.739C381.811 202.871 383.135 202.063 385.855 203.092C388.869 204.268 390.781 206.547 393.795 207.944C395.78 208.826 399.31 212.355 401.515 212.428C404.383 212.428 405.191 210.076 407.25 208.312C411.882 204.342 418.058 201.769 423.131 198.313C427.469 195.226 431.66 192.064 436.806 190.079ZM386.296 103.329C385.928 108.329 387.252 112.96 387.252 118.18C387.252 120.459 387.105 122.664 387.84 124.87C388.428 126.781 388.061 130.31 388.355 132.369C382.62 130.604 371.959 128.031 366.077 130.384C360.49 132.663 359.754 143.029 359.607 148.101C359.46 151.557 361.004 156.85 359.828 160.158C359.54 160.861 359.366 161.606 359.313 162.363C359.166 162.29 358.725 162.29 357.181 163.466C355.637 164.569 353.725 165.231 352.181 166.48C349.388 168.759 348.873 171.333 347.476 174.641C346.711 176.39 345.458 177.881 343.867 178.937C342.276 179.993 340.415 180.569 338.506 180.596C341.741 174.714 346.226 169.274 343.653 162.363C341.741 157.144 345.123 151.042 347.77 146.116C348.652 144.499 358.504 131.928 354.167 131.045C351.299 130.457 344.829 143.764 343.579 146.116C340.124 143.764 338.58 140.897 341.227 137.368C343.285 134.648 345.785 132.295 347.77 129.501C351.005 124.943 354.167 119.503 358.063 115.46C364.68 108.255 376.518 103.403 386.296 103.329ZM477.17 95.5366C481.508 99.6536 486.949 103.109 491.14 107.446C494.816 111.269 499.742 117.665 501.433 122.738C492.537 124.429 477.685 129.722 474.156 139.059C460.26 126.34 454.893 149.572 452.173 159.349C444.085 155.82 445.702 144.131 445.776 137.294C445.85 131.854 449.158 125.458 441.291 125.017C435.409 124.723 429.675 127.075 424.381 129.354C417.502 132.255 411.125 136.225 405.486 141.117L399.898 136.78C409.015 131.633 413.794 121.856 419.161 112.887C420.852 110.019 423.131 106.858 424.381 103.771C425.263 101.639 425.851 97.3011 426.807 95.3896C428.278 92.3754 442.762 91.5667 446.585 90.8316C456.804 88.8466 468.936 87.6703 477.17 95.5366Z" fill="#F9A61A"/>
<path fill-rule="evenodd" clip-rule="evenodd" d="M474.887 161.958C478.637 161.737 482.387 162.62 486.063 162.252C482.828 159.458 479.593 156.591 476.284 153.798C474.887 156.297 474.814 159.164 474.887 161.958ZM386.145 103.806C376.44 103.88 364.677 108.732 357.913 115.789C354.384 119.539 351.369 124.611 348.355 128.802C346.449 131.689 344.283 134.396 341.885 136.889C338.282 140.491 339.311 141.373 343.355 144.093C344.605 141.667 351.369 128.949 354.236 129.463C358.574 130.346 350.193 143.873 349.31 145.49C346.59 150.489 342.252 157.4 344.237 162.693C346.811 169.604 343.061 173.574 339.826 179.455C343.208 179.528 343.576 178.205 344.752 175.338C346.296 171.589 347.914 168.501 351.075 165.928C353.575 163.943 357.619 163.061 358.721 160.708C360.192 157.694 359.236 151.813 359.383 148.504C359.53 143.432 359.604 131.522 365.118 129.316C370.926 126.964 381.44 129.169 387.101 130.934C386.366 126.523 384.16 123.582 384.16 118.656C384.307 113.51 385.704 108.879 386.145 103.806ZM311.74 186.292C316.813 184.675 321.592 182.984 326.812 181.881C332.253 180.705 332.621 179.455 335.709 174.75C338.061 171.221 340.855 168.427 340.194 164.09C339.752 161.296 338.282 159.973 338.723 156.812C339.157 154.8 339.772 152.831 340.561 150.93C341.37 148.651 343.061 146.078 339.164 146.005C337.032 145.931 336.959 147.034 335.488 148.945C332.841 152.474 329.753 155.635 326.886 158.944C321.96 164.752 316.74 170.927 311.226 176.367C305.106 182.418 299.971 189.388 296.006 197.025C295.271 198.422 290.86 206.656 292.771 208.274C294.462 209.744 304.094 206.289 305.858 205.921C313.431 204.157 321.96 203.568 329.092 200.334C332.694 198.716 340.708 196.805 343.576 194.305C346.222 191.953 346.149 186.365 344.605 183.057C340.267 185.777 308.946 195.923 311.74 186.292ZM405.997 139.976C411.135 135.427 416.968 131.729 423.274 129.022C428.862 126.596 435.773 123.876 442.023 124.317C449.743 124.832 446.508 131.081 446.508 136.374C446.508 143.432 443.42 153.577 451.801 157.179C454.522 147.402 460.33 124.391 474.226 137.183C477.755 127.773 490.401 124.611 499.297 122.92C497.679 118.215 492.753 113.878 489.371 110.349C485.107 105.938 481.799 100.718 477.534 96.3073C469.153 87.7059 453.933 90.426 443.273 92.6315C439.743 93.3667 429.45 94.2489 427.686 96.822C426.583 98.4393 427.245 102.483 426.436 104.468C425.333 107.188 423.421 109.761 421.951 112.334C416.437 121.597 410.849 130.934 401.365 136.301L405.997 139.976ZM436.803 190.041C431.803 191.953 428.127 195.188 423.716 197.834C418.348 201.069 412.025 204.157 407.246 208.2C405.482 209.67 404.526 212.243 402.026 212.39C399.894 212.537 396.659 210.111 394.821 209.229C391.66 207.759 388.645 205.627 385.484 204.304C382.91 203.274 381.734 203.495 379.455 201.436C378.205 208.935 355.266 201.951 350.413 201.804C345.928 201.731 339.826 202.245 335.709 204.01C331.738 205.7 328.651 209.45 325.268 212.023C320.637 215.552 316.225 219.081 312.77 223.933C308.064 230.623 315.122 228.711 319.828 228.27C330.562 227.388 341.002 229.887 351.369 232.387C360.662 234.512 369.78 237.338 378.646 240.841C383.646 242.826 388.866 244.738 393.571 247.311C396.071 248.708 400.041 252.09 402.909 251.06C405.482 250.178 408.129 242.679 409.673 239.739C412.761 233.931 415.922 228.27 419.157 222.536C425.333 211.802 431.215 201.069 436.803 190.041ZM375.411 333.179C378.499 331.414 383.499 331.855 386.881 331.12C390.765 330.21 394.575 329.005 398.277 327.518C401.882 326.128 405.416 324.558 408.864 322.813C410.408 322.004 412.467 321.195 413.937 320.019C415.113 319.063 415.481 317.373 416.584 316.564C419.378 314.358 420.186 315.755 420.554 311.565C420.922 307.007 418.422 304.434 415.187 300.978C412.191 297.893 408.775 295.245 405.041 293.112C403.423 292.156 401.732 291.127 400.115 290.171C397.688 288.775 394.38 286.495 393.13 289.436C395.777 290.098 396.365 293.553 394.012 294.729C392.689 295.391 390.704 294.435 389.16 295.097C386.881 296.2 384.601 299.287 382.616 300.978C376.146 306.419 369.897 308.477 361.442 308.918C343.723 309.8 325.121 307.815 307.697 305.169C303.212 304.507 298.727 305.242 294.242 305.095C289.831 304.948 285.272 303.992 280.934 303.257C272.626 301.86 263.803 300.684 255.642 298.552C245.639 296.047 235.873 292.677 226.454 288.48C217.558 284.363 207.411 277.6 197.412 277.085C201.677 281.276 208.073 282.893 213.293 285.687C217.484 287.966 224.101 289.363 226.748 293.112C228.512 295.538 229.321 299.949 230.645 302.816C232.115 305.977 233.439 309.139 234.762 312.3C236.085 315.535 237.482 318.696 238.585 322.004C239.247 324.063 239.541 328.327 241.158 329.723C243.732 331.929 252.26 332.958 255.642 333.693C262.039 335.09 269.391 334.87 275.935 335.017C278.655 335.09 281.375 335.458 283.949 335.458C287.551 335.531 287.257 334.87 287.184 331.782C287.184 329.87 287.184 326.489 289.683 328.033C291.374 329.062 290.198 333.767 289.904 335.458C304.458 336.974 319.096 337.538 333.724 337.149C347.84 336.634 361.442 334.796 375.411 333.179ZM440.552 300.023C443.126 281.717 446.213 263.117 449.669 245.105C453.198 226.873 457.389 208.788 462.168 190.629C459.006 189.894 455.918 189.159 452.757 188.35C452.61 192.173 451.36 195.482 450.772 199.304C450.037 204.598 448.566 209.67 447.684 214.89C445.993 224.888 442.978 234.593 440.258 244.297C437.538 254.222 436.582 264.44 434.082 274.365C432.024 282.599 430.921 291.568 429.744 300.023C426.951 320.46 422.907 340.971 419.819 361.409C416.951 380.597 416.657 400.153 416.804 419.561C416.878 431.397 418.716 443.16 418.642 454.996C418.642 457.937 418.863 460.877 419.01 463.745C419.084 465.803 417.981 471.537 418.937 473.228C419.525 474.331 422.098 475.36 422.98 476.831C424.377 479.257 424.745 482.124 427.024 483.888C428.862 476.389 427.98 466.465 427.612 458.819C427.245 451.467 427.98 443.822 428.127 436.323C428.421 421.619 429.23 407.137 429.965 392.433C430.774 376.26 433.126 359.792 435.406 343.765C437.538 329.356 438.935 314.579 440.552 300.023ZM372.397 70.797C371.367 70.7235 370.411 70.5764 369.382 70.5029C369.529 72.6349 369.088 76.0902 370.559 77.1929C371.661 78.0016 374.014 77.7811 375.338 78.0016C379.822 78.8838 385.116 79.619 389.601 78.0016C391.366 77.4135 390.189 76.3843 392.615 76.8254C395.483 77.34 394.453 77.7811 395.262 79.5455C395.924 80.9423 396.218 83.2948 396.953 84.9857C397.909 87.1912 399.894 91.2347 399.085 93.8078C398.277 96.3073 395.189 97.0425 393.865 99.9097C392.909 102.042 393.13 105.056 392.615 107.408C391.954 110.496 391.071 113.584 390.704 116.745C390.263 120.715 390.41 125.42 395.336 126.008C399.894 126.596 403.203 125.126 406.291 121.744C412.172 115.348 418.863 106.379 422.319 98.3658C422.686 97.4101 423.715 95.8662 423.568 94.837C423.274 92.852 423.201 94.837 422.539 93.5137C421.951 92.1904 420.995 91.0141 420.481 89.5438C418.492 84.2729 417.086 78.8 416.29 73.223C415.921 70.7168 415.773 68.1829 415.849 65.6508C415.849 64.7686 416.363 62.1955 416.069 61.6074C415.775 61.0192 414.084 60.7252 413.569 60.137C412.614 59.0343 410.996 55.8731 409.893 55.0644C408.57 54.0351 405.702 54.8438 405.188 52.8589C404.379 49.6241 424.304 44.3309 414.966 39.9934C407.982 36.7587 397.321 53.0794 394.895 40.214C394.453 38.0085 395.262 34.9943 394.306 32.9358C393.204 30.6568 390.263 29.8481 388.277 28.7453C385.631 27.3485 382.984 25.8782 380.484 24.4078C378.72 23.3786 376.22 20.585 374.382 20.2909C375.117 24.0403 373.72 27.7896 373.72 31.6125C377.764 30.5097 380.484 30.5097 384.454 32.4212C386.366 33.3769 393.498 38.5966 389.822 41.0962C386.875 39.336 383.744 37.906 380.484 36.8322C379.112 36.3243 377.678 36.0029 376.22 35.8765C373.058 35.803 373.499 36.1705 372.323 38.5231C371.147 40.8021 371.441 46.8305 368.867 48.3008C366.294 49.8447 368.279 47.7127 366.074 48.1538C364.824 48.4479 363.427 49.4036 362.25 49.9182C363.868 51.6826 367.029 53.2264 368.132 55.1379C369.676 57.9315 369.162 63.7394 369.382 66.7536C371.367 66.0184 373.499 66.0184 375.558 65.4302C377.47 64.9156 380.116 62.7101 380.337 65.9449C380.631 69.8413 374.97 70.797 372.397 70.797ZM398.644 164.972C398.791 161.884 398.938 158.797 399.306 155.709C399.526 153.65 401.512 147.622 400.409 145.858C399.232 143.873 395.189 143.726 393.204 143.285C389.454 142.402 385.925 141.594 382.102 141.006C378.692 140.514 375.253 140.244 371.808 140.197C367.985 140.05 367.029 139.021 366.221 143.211C365.559 146.519 364.677 149.975 364.53 153.356C364.383 156.518 365.412 159.311 362.25 161.443C369.162 161.443 378.205 155.268 384.528 160.782C393.571 168.648 377.837 170.927 373.646 172.691C377.102 174.382 382.249 175.706 383.866 179.528C385.704 183.792 383.057 185.63 379.014 185.998C379.381 187.689 380.852 188.718 381.293 190.703C381.955 193.644 379.896 192.688 382.469 194.893C385.925 197.834 393.057 199.819 397.321 201.731C398.35 202.172 399.306 202.613 400.335 202.98C401.953 204.377 403.129 204.157 403.864 202.172C406.07 200.775 407.982 197.687 409.893 195.923C414.204 191.927 418.966 188.448 424.083 185.557C421.951 184.675 419.451 186.66 417.393 185.704C415.775 184.895 416.363 183.498 415.407 182.469C415.775 181.072 415.407 180.558 414.158 180.925C413.578 180.978 412.994 180.876 412.467 180.631C411.437 179.381 410.996 178.94 410.923 176.955C410.849 174.897 412.025 174.162 412.54 172.471C414.084 171.442 414.01 170.412 412.467 169.457C411.797 168.429 411.439 167.228 411.437 166.001C411.143 161.37 415.334 159.532 418.569 157.106C412.834 156.444 413.055 149.754 417.025 146.813C421.142 143.726 429.891 144.975 434.817 145.711C435.847 145.858 438.641 147.181 439.67 146.372C440.332 145.858 439.891 141.447 439.891 140.638C439.964 138.874 440.405 136.742 440.111 134.977C439.523 131.301 440.773 133.139 438.126 133.066C431.803 132.845 423.789 138.359 418.201 140.932C411.952 143.873 407.982 144.314 407.908 151.519C407.835 158.356 405.923 165.119 405.114 171.883C404.747 174.823 404.453 190.041 399.085 184.454C397.027 182.249 398.35 178.94 398.497 176.22C398.644 172.471 398.571 168.648 398.644 164.972ZM51.3226 393.536C54.4105 394.051 59.4101 392.286 62.7186 392.139C68.6486 391.909 74.55 391.196 80.3641 390.007C84.849 389.051 89.9956 388.243 92.4218 383.832C94.554 379.935 95.3627 375.083 96.5391 370.819C97.1273 368.54 98.7448 365.306 98.7448 362.953C98.7448 359.939 98.3036 360.527 95.1422 358.836C91.1719 356.704 87.2752 353.837 82.9374 352.661C81.614 352.44 80.2905 352.146 79.0407 351.925C77.3496 350.97 76.3938 351.411 76.1733 353.396C74.5558 355.16 73.5265 358.321 72.203 360.38C69.2077 364.781 65.1653 368.368 60.4394 370.819C51.9876 375.507 43.1287 379.419 33.9712 382.508C28.7511 384.273 23.9721 386.699 18.899 388.61C14.8553 390.154 9.19401 390.595 6.10605 394.051C2.57695 397.873 8.01764 399.27 11.0321 401.917C13.5319 404.049 13.5318 404.564 16.9139 403.534C19.4137 402.799 21.6929 401.255 24.0456 400.3C32.3537 396.771 42.3528 394.492 51.3226 393.536ZM240.644 454.555L231.38 452.57C234.394 458.231 240.791 466.538 236.232 473.081C234.541 475.507 231.674 476.242 229.101 477.492C226.069 479.074 223.124 480.816 220.278 482.712C208.294 490.137 196.089 497.636 183.443 503.958C187.413 505.208 193.516 506.09 197.559 504.988C202.338 503.664 206.676 500.724 211.602 499.4C220.419 496.985 229.383 495.144 238.438 493.887C245.717 492.931 263.877 495.136 262.995 484.182C262.186 473.816 255.937 463.892 254.098 453.673C249.54 454.628 245.276 454.481 240.644 454.555ZM424.598 288.48C428.127 271.204 430.186 253.633 434.376 236.504C436.435 227.976 437.905 219.301 439.964 210.7C440.92 206.73 441.582 202.686 442.537 198.716C443.493 194.673 445.478 190.997 445.919 186.807C442.537 187.615 441.802 195.335 440.773 198.202C438.958 203.487 436.847 208.666 434.45 213.714C430.627 221.801 426.583 229.593 422.245 237.46C417.812 245.719 412.8 253.654 407.246 261.206C405.408 263.705 402.835 265.617 401.659 268.337C399.747 272.601 398.938 277.747 397.174 282.158C398.424 282.82 401.732 282.967 403.276 283.261C405.946 283.721 408.543 284.537 410.996 285.687C415.922 288.113 420.039 290.98 423.274 295.391C424.083 293.333 424.304 290.906 424.598 288.48ZM287.845 420.223C287.772 403.608 287.551 386.846 287.845 370.305C287.917 365.606 288.286 360.916 288.948 356.263C289.389 353.396 291.816 347.294 290.198 345.971C288.801 344.794 281.522 345.603 279.758 345.53C276.302 345.456 272.847 345.309 269.391 345.015C269.391 351.19 271.817 358.174 272.92 364.276C273.95 369.937 274.832 375.671 275.714 381.406C277.552 393.757 278.14 406.328 280.125 418.752C281.964 430 284.39 441.175 285.713 452.423C286.448 458.598 287.919 464.406 289.095 470.582C289.683 473.816 291.889 487.049 294.609 488.373C295.198 483.594 292.845 477.86 292.404 473.081C291.963 468.156 291.595 463.156 290.786 458.157C289.831 452.276 289.389 446.321 289.022 440.366C288.801 436.764 288.728 433.088 288.434 429.486C288.139 426.839 287.184 422.796 287.845 420.223ZM374.529 197.908C374.676 196.07 369.97 196.143 369.088 194.085C367.324 189.894 371.367 190.629 373.867 190.188C372.985 187.836 356.442 188.718 360.265 182.322C362.912 177.911 373.132 184.675 375.779 180.484C377.543 177.764 372.691 177.323 370.779 177.102C367.912 176.661 361.074 178.058 361.295 174.235C361.589 169.53 374.823 166.222 378.573 164.899C378.131 161.664 362.177 166.295 359.898 167.545C354.678 170.486 350.634 175.853 349.899 181.734C349.016 188.645 352.472 194.011 359.383 195.702C362.25 196.437 364.383 196.511 367.029 197.54C368.794 198.202 374.455 199.966 375.632 198.202C375.264 198.128 374.896 197.981 374.529 197.908ZM468.27 155.047C468.564 152.107 470.991 146.593 468.123 144.608C464.153 141.888 462.462 146.372 461.58 149.019C460.477 152.254 455.845 160.267 459.889 162.325C460.845 162.767 465.329 162.252 466.138 161.958C468.344 162.546 469.079 161.737 468.27 159.458V155.047ZM370.853 392.507C370.632 384.493 374.235 374.789 376.22 366.923C378.499 358.027 379.749 348.911 382.175 340.089C379.436 340.337 376.712 340.73 374.014 341.266C370.338 342.001 370.264 341.927 370.559 345.53C370.926 350.97 370.411 356.263 370.191 361.63C369.603 372.437 371 383.464 370.117 394.198C370.926 394.345 371.147 393.83 370.853 392.507ZM472.535 181.881C481.312 183.26 489.836 185.936 497.826 189.821C502.238 191.879 507.09 194.085 512.09 194.967C517.604 195.923 523.412 195.482 529 195.776C530.985 195.923 536.205 196.878 538.117 195.702C540.029 194.526 539.882 192.614 539.955 190.262C540.176 184.307 537.455 178.426 535.029 173.059C532.97 168.427 531.353 164.899 528.118 161.002C523.927 155.93 520.324 150.416 516.428 145.123C513.487 141.153 510.546 137.183 507.531 133.139C505.399 130.272 505.473 129.316 502.238 129.61C499.076 129.905 495.841 131.816 492.827 132.772C488.342 134.242 482.975 135.051 478.931 137.403C476.284 138.947 476.211 139.241 476.211 141.888C476.2 144.571 477.022 147.191 478.564 149.387C481.651 153.43 486.798 155.562 491.209 157.547C493.683 158.773 496.024 160.251 498.194 161.958C500.62 163.722 505.546 164.678 507.458 166.663C512.899 172.397 502.973 171.295 500.253 171.074C494.297 170.706 488.342 170.78 482.313 170.78C475.77 170.78 469.226 170.486 462.756 170.706C460.726 170.745 458.714 170.313 456.877 169.446C455.041 168.579 453.429 167.299 452.169 165.707C450.992 164.163 450.551 162.693 448.934 161.076C446.875 158.944 445.111 156.738 442.611 155.121C438.567 152.474 431.215 150.93 426.362 151.96C428.127 152.18 436.214 154.974 432.612 158.429C432.171 158.87 426.951 159.164 425.848 159.679C423.789 160.635 421.216 161.958 420.039 163.943C423.568 163.355 436.508 162.693 429.891 169.383C428.274 171 423.568 172.691 427.539 174.456C428.421 174.823 430.259 174.309 431.435 174.676C433.2 175.191 434.597 176.661 436.214 177.47C440.846 179.675 447.243 180.999 452.095 180.558C458.933 179.822 465.918 180.999 472.535 181.881ZM294.904 384.346C295.124 393.977 294.757 403.681 294.977 413.386C295.198 423.751 296.521 433.897 297.183 444.116C297.771 453.305 299.021 462.348 299.977 471.464C300.565 476.757 301.227 481.756 302.109 486.976C302.918 491.902 303.065 496.166 297.256 497.489C286.081 499.988 284.316 483.888 282.184 477.125C278.949 466.979 276.891 456.393 275.273 445.88C272.332 426.325 268.362 407.063 266.818 387.434C265.862 375.304 264.465 363.321 263.73 351.19C263.583 348.838 264.171 345.162 262.112 344.133C260.863 343.471 257.407 343.471 255.789 343.03C251.378 341.78 247.334 339.869 242.996 337.884C246.084 353.837 247.04 369.717 249.319 385.817C250.569 394.345 252.849 403.24 254.907 411.621C256.966 420.37 257.48 429.706 259.833 438.234C260.863 441.984 261.818 443.527 260.274 447.35C258.363 452.055 259.613 453.232 262.039 457.863C266.377 466.391 269.759 476.537 268.95 486.167C268.362 494.034 262.406 498.15 255.054 500.282C245.864 502.929 236.159 502.635 226.895 505.649C218.807 508.296 210.573 510.207 202.78 513.663C199.618 515.059 196.604 516.75 193.075 516.971C188.222 517.338 184.987 514.545 180.429 513.957C177.561 513.589 173.444 514.986 171.753 511.972C170.429 509.619 171.9 504.473 173.591 502.561C178.149 497.195 187.34 492.563 193.516 489.402C200.698 485.649 207.581 481.347 214.102 476.537C218.072 473.669 222.19 470.949 226.16 468.082C228.807 466.171 229.836 466.171 229.542 463.156C229.321 460.73 228.218 458.451 228.071 456.025C227.924 454.114 228.586 451.614 227.704 450.365C227.042 449.482 224.616 448.821 223.66 448.159C220.131 445.659 219.322 442.572 217.705 438.749C214.102 430.147 209.911 421.766 206.382 413.091C198.883 394.418 194.251 374.789 188.001 355.748C181.605 336.266 175.944 315.902 172.415 295.685C167.709 297.082 163.298 303.478 159.548 306.566C154.475 310.83 149.328 314.873 144.329 319.21C136.168 326.342 128.007 333.252 121.243 341.78C118.008 345.897 115.361 350.308 112.42 354.646C110.729 357.145 109.185 359.939 107.347 362.365C107.053 362.732 107.053 363.541 106.759 363.835C106.097 364.57 104.7 363.615 104.259 364.056C101.465 366.923 101.539 375.157 100.656 378.98C99.48 384.199 98.1566 390.301 94.0393 393.904C87.7163 399.491 76.0262 400.373 68.0122 400.667C57.719 401.035 47.72 403.902 38.0149 406.99C33.4565 408.46 29.0452 410.077 24.4867 411.474C21.8399 412.283 18.8255 413.9 16.0316 413.533C12.6496 413.165 10.0028 410.298 7.50298 408.166C3.53275 404.784 -0.143389 401.476 0.00365679 395.889C0.150702 390.007 3.31218 385.596 8.38525 382.655C18.0903 376.995 28.9716 373.392 39.4119 369.496C43.2737 368.037 47.032 366.318 50.6609 364.35C56.1015 361.483 62.2775 359.204 67.13 355.454C68.5269 354.352 73.747 350.97 74.1882 349.205C74.2617 348.985 72.9383 346.338 72.9383 345.897C72.9383 344.794 73.6 343.618 73.9676 342.662C76.4674 336.781 80.6582 331.12 83.8932 325.606C89.775 315.461 95.6568 305.242 102.494 295.685C116.096 276.644 131.315 257.971 147.784 241.356C155.798 233.269 162.783 224.08 170.871 216.066C173.987 212.95 177.557 210.323 181.458 208.274C185.869 205.994 190.869 205.553 195.942 204.818C208.22 203.127 218.513 206.73 230.056 209.964C241.011 212.979 251.893 215.478 262.921 218.639C274.979 222.095 286.89 225.329 298.947 229.079C305.344 231.064 311.961 232.314 318.431 234.225C321.519 235.181 333.282 240.915 335.856 239.004C327.695 235.181 319.313 231.652 310.564 229.373C307.991 228.711 306.373 229.446 306.447 226.506C306.52 224.888 308.285 222.756 308.946 221.36C310.49 218.198 312.255 215.111 313.799 211.876C308.285 213.42 293.36 218.86 289.169 213.273C284.831 207.391 288.434 195.849 291.154 190.041C298.286 174.97 310.417 162.399 322.254 151.077C324.827 148.651 330.342 145.417 331.665 142.329C332.106 141.373 331.15 139.976 332.106 138.727C332.694 137.991 334.9 137.477 335.782 136.668C339.017 133.801 341.664 127.699 343.87 123.95C346.222 119.98 348.355 115.716 351.296 112.187C356.148 106.379 361.148 100.204 369.015 98.8804C372.838 98.2188 376.955 98.5864 380.631 97.2631C385.116 95.6457 389.307 93.1461 393.792 91.4552C392.689 89.1762 391.733 85.5004 389.601 85.2798C387.542 85.0592 384.454 86.8237 382.102 86.8237C378.784 86.7383 375.483 86.3196 372.25 85.5739C368.5 84.8387 367.324 84.9857 365.927 80.9423C364.53 76.6783 364.897 71.8262 364.897 67.4152C364.897 65.2832 365.338 62.6366 365.118 60.5046C364.824 57.3434 364.236 57.1964 361.736 55.2114C358.648 52.7118 354.825 49.3301 358.574 44.9926C360.633 42.64 364.897 44.4779 366.662 41.9049C368.5 39.3318 368.426 32.7888 369.015 29.7746C363.28 32.5682 365.412 22.0553 365.412 19.5557C365.412 15.8799 362.912 9.26336 366.515 6.17566C368.132 4.77884 369.382 5.95511 371.294 5.14642C373.426 4.1907 374.823 1.76465 377.102 0.808926C381.66 -1.10251 386.292 1.17651 390.998 0.808926C396.365 0.367825 401.659 -0.440861 407.026 0.441342C409.599 0.882443 410.628 1.83816 412.834 2.94092C414.893 3.97015 417.025 4.26422 419.304 4.92587C421.289 5.51401 423.054 5.80807 424.451 7.57248C425.554 8.9693 425.112 11.3218 426.142 12.4981C427.245 13.6744 429.303 13.5273 430.627 14.9242C431.877 16.2475 432.612 18.453 433.2 20.1439C434.082 22.4229 434.156 23.2316 435.7 25.0695C437.023 26.6133 438.935 27.9366 440.038 29.7011C442.611 33.8915 442.684 40.0669 441.876 44.772C441.582 46.3894 439.229 50.5798 439.596 51.9767C439.964 53.3 442.17 52.9324 443.126 53.7411C444.008 54.4762 444.743 57.6375 445.405 57.858C446.875 58.2991 448.713 55.3584 449.816 54.9173C451.728 54.1822 452.536 53.3735 453.639 56.2406C454.448 58.3726 453.345 61.2398 452.757 63.2247C452.022 65.7978 451.213 68.8855 449.228 70.797C446.949 73.076 445.111 71.8262 442.537 73.076C438.714 74.9139 439.817 80.6482 435.185 82.3391C430.7 83.883 425.774 78.9574 422.392 76.6783C423.127 82.1921 425.701 87.4853 424.451 93.1461C434.744 89.1027 444.89 83.4419 456.066 82.1186C461.8 81.4569 467.535 80.7218 472.902 83.0743C479.225 85.8679 483.048 91.9698 487.313 97.0425C495.327 106.6 503.561 115.863 511.281 125.788C518.339 134.83 524.295 145.343 532.088 153.798C539.955 162.399 545.91 176.367 545.028 188.203C544.955 189.306 544.146 191.732 544.219 192.908C544.293 193.791 545.102 194.893 545.102 195.629C545.028 198.055 544.293 199.451 541.94 200.775C537.97 203.127 532.015 204.23 527.53 204.818C521.134 205.627 514.662 205.627 508.267 204.818C502.091 204.01 496.65 200.554 490.989 198.422C486.012 196.715 480.928 195.34 475.77 194.305C472.902 193.644 469.667 191.879 467.903 193.57C466.285 195.188 465.918 203.274 465.55 205.48C461.433 228.932 456.507 251.575 452.169 274.953C447.243 301.419 443.861 327.812 440.405 354.499C437.317 378.759 436.288 403.24 435.553 427.501C435.185 439.043 435.185 450.512 435.259 462.054C435.332 468.523 438.567 490.137 428.936 490.946C423.274 491.46 418.789 483.374 417.246 478.963C415.02 472.262 413.733 465.285 413.422 458.231C412.687 444.116 411.731 430 411.143 415.959C410.555 400.667 411.29 385.155 412.54 369.937C413.79 354.646 417.025 339.501 417.981 324.136C415.04 328.327 414.084 329.135 409.232 330.9C404.158 332.811 399.232 335.09 394.086 336.855C392.321 337.443 389.601 337.81 388.13 338.839C385.484 340.677 387.248 338.619 386.366 342.148C385.484 345.971 385.263 350.529 385.043 354.425C383.94 372.731 378.867 390.889 376.514 409.122C375.926 413.533 376.734 432.206 369.162 426.325C363.353 421.766 363.427 407.578 362.618 400.888C361.515 391.992 362.103 382.876 362.324 373.907C362.545 363.688 362.692 353.028 365.118 343.103C360.78 342.368 354.751 344.353 350.34 344.721C346.517 345.015 342.767 345.235 339.017 345.382C330.047 345.897 320.784 346.265 311.667 346.118C309.976 346.118 299.168 344.574 297.771 345.824C297.33 346.191 297.183 351.705 297.109 352.367C296.815 354.866 296.374 357.366 296.006 359.939C295.565 367.805 294.609 376.407 294.904 384.346Z" fill="black"/>
<path fill-rule="evenodd" clip-rule="evenodd" d="M456.286 460.432C463.124 463.079 470.403 464.108 477.314 466.534C483.49 468.74 489.224 471.681 495.327 473.886C495.694 471.092 495.841 466.314 494.812 463.594C493.342 459.844 489.445 459.697 485.622 458.374C476.284 455.139 466.506 454.404 457.242 450.581C458.933 453.669 458.198 457.712 456.286 460.432ZM574.658 450.581C559.88 451.022 545.69 454.478 531.132 456.61C524.001 457.639 516.942 458.595 509.811 459.55C507.09 459.918 502.091 459.477 500.106 461.829C498.488 463.814 500.253 470.504 499.518 473.371C502.532 473.592 507.826 470.798 511.061 470.357C516.134 469.622 521.133 468.666 526.206 468.299C534.294 467.784 542.234 467.343 550.322 466.461C558.556 465.579 566.497 463.814 574.805 463.226C578.849 462.932 580.466 463.667 580.687 459.403C580.76 457.712 580.981 454.992 580.54 453.301C581.275 451.316 580.613 450.287 578.555 450.361C577.252 450.216 575.935 450.29 574.658 450.581ZM546.057 436.981C550.028 436.613 554.071 436.098 558.115 435.804C558.924 435.731 563.041 436.025 563.703 435.216C564.659 434.113 563.629 430.217 563.409 429.041C562.821 424.924 562.159 422.498 557.674 422.498C553.851 422.498 549.954 423.306 546.205 423.674C529.074 425.365 512.016 426.1 495.033 429.261C496.062 433.672 497.238 438.23 495.988 442.715C504.149 443.156 513.046 441.539 520.986 439.995C529.273 438.471 537.646 437.464 546.057 436.981ZM518.854 395.591C512.752 395.591 506.282 398.311 500.179 397.723C500.106 398.825 502.017 397.943 502.532 398.972C503.708 398.972 504.076 399.34 503.708 400.075C503.722 400.188 503.711 400.302 503.676 400.411C503.641 400.519 503.583 400.618 503.507 400.702C503.43 400.786 503.336 400.852 503.231 400.896C503.126 400.94 503.013 400.961 502.9 400.957C502.605 400.957 502.385 401.031 502.091 401.031C500.914 401.104 500.694 401.84 501.503 403.383C501.135 405.295 501.65 407.721 501.723 409.632C512.605 408.162 523.118 406.618 534.073 405.957C539.22 405.662 544.44 405.662 549.587 405.221C555.248 404.78 561.497 405.736 567.011 404.707C569.952 404.119 569.658 404.192 569.438 400.296C569.291 397.943 569.364 395.15 567.453 393.459C564.291 390.591 557.012 392.282 553.189 392.356C541.687 392.708 530.219 393.788 518.854 395.591ZM525.177 450.728C541.573 449.258 557.895 445.95 574.437 445.95C573.261 444.773 570.761 444.479 569.291 443.818C567.6 443.083 566.056 441.539 564.438 440.951C561.203 439.701 557.895 441.465 554.513 442.2C546.499 444.038 538.191 444.112 530.177 445.95C521.832 447.914 513.39 449.436 504.885 450.508C500.841 450.949 496.503 451.905 492.533 450.802C492.239 450.581 491.871 450.361 491.577 450.14C491.209 448.67 490.254 448.229 488.636 448.964C486.651 448.596 484.078 449.111 482.019 449.111C481.946 449.92 489.445 452.493 490.842 453.081C494.297 454.625 496.65 455.727 500.326 455.066C508.634 453.522 516.795 451.757 525.177 450.728ZM467.388 402.722C468.05 405.221 470.697 404.119 473.049 404.339C476.137 404.707 479.225 405.809 482.313 406.618C487.754 408.088 493.268 409.559 498.709 411.103C498.488 408.897 499.003 403.898 497.826 401.913C496.577 399.855 490.842 398.972 488.122 398.311C481.357 396.767 474.079 397.649 467.168 397.943C467.241 399.561 467.315 401.104 467.388 402.722ZM532.676 418.381C539.146 417.866 545.616 417.425 552.013 417.205C559.439 416.911 553.998 415.734 553.851 411.25C544.146 412.794 534.294 413.088 524.662 414.411C516.648 415.514 507.09 418.381 498.856 416.837C494.959 416.102 491.062 415.808 486.945 415.44C483.048 415.073 479.446 413.235 475.549 412.794C471.285 412.279 466.873 414.705 462.609 415.367C460.771 415.661 460.403 416.837 459.521 414.705C458.639 412.426 461.139 410.588 462.168 409.265C463.344 407.721 462.83 410.22 463.491 407.794C463.638 407.133 463.197 405.368 463.124 404.633C462.903 402.722 462.315 400.737 462.241 398.825C462.168 397.134 462.168 394.488 464.006 393.459C465.182 392.871 465.991 393.753 466.947 393.532C475.17 392.16 483.559 392.11 491.798 393.385C500.326 394.782 507.752 391.033 516.134 389.562C526.059 387.798 536.058 387.504 545.984 386.769C554.513 386.107 570.099 382.799 573.334 393.679C574.29 396.767 575.614 405.295 573.114 407.868C569.879 411.323 562.306 410.22 558.115 411.103C558.777 412.867 560.615 414.117 559.953 416.249C565.835 416.543 566.864 422.057 567.82 427.276C568.776 432.643 566.938 434.775 572.011 437.569C579.143 441.465 586.716 445.435 586.642 454.698C586.569 459.33 586.054 466.387 581.275 468.813C576.569 471.166 568.923 470.798 563.776 471.607C553.777 473.298 543.705 475.209 533.632 476.239C522.898 477.268 512.016 478.15 501.282 478.665C495.4 478.959 490.401 479.841 484.739 477.856C479.152 475.945 473.785 474.474 468.05 473.077C462.388 471.681 445.037 469.769 450.11 460.065C450.919 458.521 453.713 457.271 454.154 455.801C454.889 453.448 452.463 451.61 452.536 449.478C452.757 445.582 457.095 445.067 460.183 445.067C454.963 441.833 461.947 437.936 461.874 435.143C461.8 430.291 455.698 427.129 455.404 423.012C454.595 413.088 486.136 423.454 490.989 425.586C487.239 431.099 469.888 426.321 464.741 425.512C465.524 427.244 466.069 429.074 466.359 430.952C466.506 432.496 465.918 434.26 466.506 435.804C467.388 438.23 467.315 437.789 470.329 438.451C472.535 438.966 474.74 439.554 477.02 440.068C480.475 440.877 485.842 443.009 489.224 442.935C492.165 442.862 491.577 443.744 492.165 440.436C492.459 438.671 491.945 436.76 491.651 435.069C491.062 431.393 490.107 428.012 493.268 425.365C496.283 422.865 502.679 421.689 506.429 420.807C514.663 418.748 524.221 418.234 532.676 418.381Z" fill="black"/>
<path fill-rule="evenodd" clip-rule="evenodd" d="M572.011 356.189C563.042 354.77 553.948 354.302 544.881 354.792C545.396 357.071 545.837 359.277 546.351 361.556C554.807 359.35 563.409 358.027 572.011 356.189ZM499.076 373.613C495.474 373.319 497.974 374.936 498.856 377.289C499.959 380.156 499.738 383.832 499.959 386.846C510.472 382.802 522.751 380.45 533.926 379.126C539.22 378.465 544.587 378.318 549.954 378.024C551.498 377.95 557.233 378.612 558.409 377.509C559.292 376.7 558.63 372.363 557.821 371.407C553.336 366.188 536.058 370.672 529.809 371.187C519.442 371.995 509.37 373.833 499.076 373.613ZM514.001 359.645C523.339 360.527 532.309 360.453 541.646 361.85C540.911 355.895 541.793 354.425 535.029 354.131C529.074 353.837 523.045 353.616 517.089 353.616C503.708 353.616 490.327 353.396 476.872 353.396V359.424C489.371 358.101 501.576 360.38 514.001 359.645ZM469.226 381.773C475.108 381.773 480.696 383.979 486.577 384.567C490.107 384.934 489.004 385.375 491.43 387.14C495.253 389.86 496.356 388.39 495.841 384.714C494.224 372.069 478.196 374.863 469.006 374.201C469.594 377.215 468.197 379.788 466.138 381.847H469.226V381.773ZM532.75 365.526C524.295 365.673 515.84 366.114 507.458 365.967C503.708 365.893 498.856 365.158 495.18 365.82C492.459 366.261 490.254 367.658 487.239 368.172C491.577 370.525 493.783 368.908 498.341 368.393C502.9 367.878 507.531 367.878 512.163 367.584C519.663 367.143 527.75 365.305 535.176 365.82C535.25 364.717 534.441 364.644 532.75 365.526ZM465.697 392.874C461.8 392.874 467.167 388.463 467.829 388.022C463.565 388.022 462.462 385.449 463.712 381.332C464.888 377.436 465.771 378.612 462.83 375.377C460.624 372.951 460.256 371.113 462.903 368.393C465.55 365.599 470.991 366.408 473.343 364.129C477.387 360.233 472.167 352.44 477.755 349.426C481.504 347.367 487.607 347.661 491.724 347.22C495.78 346.829 499.854 346.657 503.929 346.706C512.752 346.559 521.868 348.029 530.691 348.911C533.926 349.205 537.455 350.528 540.617 350.528C543.852 350.528 547.234 349.793 550.542 349.867C554.365 349.94 558.115 349.646 562.085 350.308C565.1 350.822 572.232 351.043 574.584 353.322C582.378 360.894 563.923 364.35 560.762 365.158C563.997 368.687 563.85 373.392 563.335 377.803C564.879 377.803 567.526 377.142 568.335 378.832C569.291 380.964 565.688 381.553 564.806 381.773C559.806 383.243 553.998 382.802 548.925 383.317C538.705 384.346 528.559 384.934 518.413 386.919C513.487 387.875 508.561 389.051 503.635 389.933C502.753 390.081 501.944 390.228 501.061 390.301C499.738 390.154 499.297 391.036 499.812 392.801C498.415 393.462 493.342 391.771 491.724 391.551C482.681 390.154 474.667 390.742 465.697 392.874Z" fill="black"/>
<path fill-rule="evenodd" clip-rule="evenodd" d="M648.181 480.649C642.372 485.208 636.932 489.545 630.609 493.515C635.094 493.441 649.945 486.31 648.181 480.649ZM645.901 473.151C642.74 470.431 639.579 470.725 635.608 469.842C632.006 469.107 628.477 467.784 624.874 466.902C622.007 466.24 619.213 465.284 616.419 464.623C612.449 463.741 612.007 464.696 608.331 466.828C595.318 474.254 580.687 479.4 567.011 485.428C571.055 488.957 580.099 489.104 585.172 490.28C588.813 491.135 592.398 492.215 595.906 493.515C599.214 494.765 604.435 497.558 607.964 497.632C610.905 497.705 613.257 494.838 615.757 493.294C619.066 491.236 622.374 489.251 625.683 487.266C632.594 483.076 639.211 477.929 645.901 473.151ZM587.01 503.293C585.539 501.822 580.981 501.896 579.069 501.455C575.32 500.573 571.717 499.69 567.894 499.029C561.791 497.999 552.16 497.485 551.498 489.545C550.91 482.929 558.924 481.385 563.556 479.179C570.541 475.797 577.672 472.71 584.878 469.769C591.642 466.975 598.406 464.623 605.317 462.27C606.64 461.829 607.743 461.903 608.846 460.8C609.728 459.991 609.434 458.3 610.39 457.418C612.522 455.433 615.389 456.462 617.963 456.977C623.975 458.11 629.879 459.758 635.608 461.903C641.417 464.182 646.71 464.623 648.107 471.239C651.122 469.842 653.327 469.622 652.96 473.739C652.886 474.915 652.004 476.238 651.783 477.488C651.489 479.326 652.004 481.238 651.71 483.076C650.607 489.766 641.564 494.765 635.976 497.411C629.065 500.646 620.168 505.425 612.449 506.086C604.14 506.821 595.171 503.587 587.01 503.293Z" fill="black"/>
<path fill-rule="evenodd" clip-rule="evenodd" d="M482.387 391.992C479.96 391.992 477.461 391.992 475.034 392.065C477.464 391.636 479.949 391.612 482.387 391.992Z" fill="black"/>
<path fill-rule="evenodd" clip-rule="evenodd" d="M339.017 132.771C338.282 134.021 337.547 135.198 336.812 136.447C337.032 134.83 337.62 133.507 339.017 132.771Z" fill="black"/>
<path fill-rule="evenodd" clip-rule="evenodd" d="M482.387 427.133C483.857 427.133 485.328 427.133 486.798 427.206C485.328 427.206 483.857 427.206 482.387 427.133Z" fill="black"/>
<path fill-rule="evenodd" clip-rule="evenodd" d="M516.207 347.22C514.516 347.147 512.752 347 511.061 346.926C512.752 347 514.443 347.073 516.207 347.22Z" fill="black"/>
<path fill-rule="evenodd" clip-rule="evenodd" d="M486.798 392.062C485.328 392.062 483.857 392.062 482.387 391.988C483.836 391.608 485.362 391.633 486.798 392.062Z" fill="black"/>
<path fill-rule="evenodd" clip-rule="evenodd" d="M545.322 183.498C545.249 182.028 545.249 180.557 545.175 179.087C545.249 180.557 545.249 182.028 545.322 183.498Z" fill="black"/>
<path fill-rule="evenodd" clip-rule="evenodd" d="M295.271 405.519C295.271 404.269 295.198 403.093 295.198 401.843C295.271 403.019 295.271 404.269 295.271 405.519Z" fill="black"/>
<path fill-rule="evenodd" clip-rule="evenodd" d="M466.947 81.5302C465.697 81.6037 464.521 81.6772 463.271 81.8243C464.447 81.6772 465.697 81.6037 466.947 81.5302Z" fill="black"/>
<path fill-rule="evenodd" clip-rule="evenodd" d="M435.773 440.807C435.773 439.851 435.7 438.822 435.7 437.866C435.7 438.822 435.7 439.778 435.773 440.807Z" fill="black"/>
<path fill-rule="evenodd" clip-rule="evenodd" d="M437.17 403.314C437.17 402.358 437.097 401.329 437.097 400.373C437.17 401.329 437.17 402.284 437.17 403.314Z" fill="black"/>
<path fill-rule="evenodd" clip-rule="evenodd" d="M412.099 420.222C412.099 421.178 412.172 422.207 412.172 423.163C412.172 422.134 412.172 421.178 412.099 420.222Z" fill="black"/>
<path fill-rule="evenodd" clip-rule="evenodd" d="M554.439 383.096C555.174 383.096 555.909 383.023 556.645 383.023C555.909 383.023 555.174 383.096 554.439 383.096Z" fill="black"/>
<path fill-rule="evenodd" clip-rule="evenodd" d="M413.569 443.748C413.643 444.703 413.643 445.733 413.716 446.688C413.643 445.659 413.643 444.703 413.569 443.748Z" fill="black"/>
<path fill-rule="evenodd" clip-rule="evenodd" d="M492.386 438.602C492.312 439.557 492.312 440.587 492.239 441.542C492.239 440.513 492.312 439.557 492.386 438.602Z" fill="black"/>
<path fill-rule="evenodd" clip-rule="evenodd" d="M407.614 0.514611C406.585 0.367577 405.555 0.220543 404.526 0.147026C405.555 0.367577 406.658 -0.514626 407.614 0.514611Z" fill="black"/>
<path fill-rule="evenodd" clip-rule="evenodd" d="M362.912 377.583C362.912 378.538 362.839 379.568 362.839 380.523C362.912 379.494 362.912 378.538 362.912 377.583Z" fill="black"/>
<path fill-rule="evenodd" clip-rule="evenodd" d="M299.756 467.273C299.682 466.317 299.682 465.288 299.609 464.332C299.609 465.288 299.682 466.244 299.756 467.273Z" fill="black"/>
<path fill-rule="evenodd" clip-rule="evenodd" d="M537.529 384.567C538.264 384.567 538.999 384.567 539.734 384.493C538.999 384.567 538.264 384.567 537.529 384.567Z" fill="black"/>
<path fill-rule="evenodd" clip-rule="evenodd" d="M455.694 420.958C455.694 421.913 455.62 422.942 455.62 423.898C455.432 423.429 455.341 422.926 455.354 422.42C455.366 421.915 455.482 421.417 455.694 420.958Z" fill="black"/>
<path fill-rule="evenodd" clip-rule="evenodd" d="M586.789 503.59C587.524 503.59 588.26 503.664 588.995 503.664C588.26 503.664 587.524 503.664 586.789 503.59Z" fill="black"/>
<path fill-rule="evenodd" clip-rule="evenodd" d="M255.569 417.282C255.569 416.547 255.495 415.811 255.495 415.076C255.569 415.811 255.569 416.547 255.569 417.282Z" fill="black"/>
<path fill-rule="evenodd" clip-rule="evenodd" d="M556.645 416.69C555.983 417.352 555.174 416.984 554.439 416.984C555.174 416.91 555.909 416.763 556.645 416.69Z" fill="black"/>
<path fill-rule="evenodd" clip-rule="evenodd" d="M469.153 393.165C468.698 393.4 468.194 393.523 467.682 393.523C467.17 393.523 466.666 393.4 466.212 393.165H469.153Z" fill="black"/>
<path fill-rule="evenodd" clip-rule="evenodd" d="M491.945 392.797C490.989 392.723 489.96 392.65 489.004 392.503C489.96 392.576 490.915 392.65 491.945 392.797Z" fill="black"/>
<path fill-rule="evenodd" clip-rule="evenodd" d="M267.332 389.345C267.332 390.08 267.259 390.816 267.259 391.551C267.332 390.816 267.332 390.08 267.332 389.345Z" fill="black"/>
<path fill-rule="evenodd" clip-rule="evenodd" d="M436.361 429.044C436.435 428.309 436.435 427.574 436.508 426.839C436.435 427.574 436.435 428.309 436.361 429.044Z" fill="black"/>
<path fill-rule="evenodd" clip-rule="evenodd" d="M537.529 386.625C536.573 386.699 535.544 386.772 534.588 386.846C535.544 386.772 536.499 386.699 537.529 386.625Z" fill="black"/>
<path fill-rule="evenodd" clip-rule="evenodd" d="M295.271 384.199C295.271 383.464 295.198 382.729 295.198 381.994C295.271 382.729 295.271 383.464 295.271 384.199Z" fill="black"/>
<path fill-rule="evenodd" clip-rule="evenodd" d="M418.128 327.591C418.054 328.326 417.981 329.061 417.981 329.797C417.981 329.061 418.054 328.326 418.128 327.591Z" fill="black"/>
<path fill-rule="evenodd" clip-rule="evenodd" d="M552.233 349.793C551.779 350.029 551.275 350.152 550.763 350.152C550.251 350.152 549.747 350.029 549.292 349.793H552.233Z" fill="black"/>
<path fill-rule="evenodd" clip-rule="evenodd" d="M435.773 451.835C435.7 451.099 435.7 450.364 435.626 449.629C435.626 450.364 435.7 451.099 435.773 451.835Z" fill="black"/>
<path fill-rule="evenodd" clip-rule="evenodd" d="M435.7 457.716C435.7 456.981 435.626 456.246 435.626 455.51C435.7 456.246 435.7 456.981 435.7 457.716Z" fill="black"/>
<path fill-rule="evenodd" clip-rule="evenodd" d="M505.914 477.933C506.405 477.945 506.897 477.921 507.384 477.86C506.897 477.919 506.405 477.943 505.914 477.933Z" fill="black"/>
<path fill-rule="evenodd" clip-rule="evenodd" d="M268.876 484.182C268.803 483.447 268.803 482.712 268.729 481.977C268.803 482.712 268.803 483.447 268.876 484.182Z" fill="black"/>
<path fill-rule="evenodd" clip-rule="evenodd" d="M427.98 490.358H429.45C428.963 490.431 428.467 490.431 427.98 490.358Z" fill="black"/>
<path fill-rule="evenodd" clip-rule="evenodd" d="M534.588 349.352C533.632 349.279 532.603 349.205 531.647 349.132C532.603 349.205 533.558 349.279 534.588 349.352Z" fill="black"/>
<path fill-rule="evenodd" clip-rule="evenodd" d="M539.734 350.161L537.529 349.867L539.734 350.161Z" fill="black"/>
<path fill-rule="evenodd" clip-rule="evenodd" d="M428.274 427.574C428.347 425.369 428.347 423.163 428.421 420.958C428.347 423.163 428.347 425.369 428.274 427.574Z" fill="black"/>
<path fill-rule="evenodd" clip-rule="evenodd" d="M370.926 346.706C370.926 348.396 371 350.161 371 351.852C371 350.087 371 348.396 370.926 346.706Z" fill="black"/>
<path fill-rule="evenodd" clip-rule="evenodd" d="M244.173 454.334C242.923 454.334 241.747 454.334 240.497 454.408C241.747 454.408 242.923 454.408 244.173 454.334Z" fill="black"/>
<path fill-rule="evenodd" clip-rule="evenodd" d="M344.899 308.109C343.649 308.109 342.473 308.036 341.223 308.036C342.473 308.109 343.649 308.109 344.899 308.109Z" fill="black"/>
<path fill-rule="evenodd" clip-rule="evenodd" d="M329.459 307.3C328.504 307.3 327.474 307.3 326.518 307.374C327.474 307.374 328.43 307.374 329.459 307.3Z" fill="black"/>
<path fill-rule="evenodd" clip-rule="evenodd" d="M382.396 78.8101C383.646 78.7366 384.822 78.6631 386.072 78.5895C384.822 78.6631 383.572 78.7366 382.396 78.8101Z" fill="black"/>
<path fill-rule="evenodd" clip-rule="evenodd" d="M398.865 165.119C398.938 163.869 398.938 162.693 399.012 161.443C398.938 162.619 398.865 163.869 398.865 165.119Z" fill="black"/>
<path fill-rule="evenodd" clip-rule="evenodd" d="M289.757 335.163C290.713 335.237 291.742 335.31 292.698 335.384C291.669 335.31 290.713 335.237 289.757 335.163Z" fill="black"/>
<path fill-rule="evenodd" clip-rule="evenodd" d="M287.845 372.436C287.845 371.481 287.845 370.451 287.919 369.496C287.919 370.451 287.919 371.407 287.845 372.436Z" fill="black"/>
<path fill-rule="evenodd" clip-rule="evenodd" d="M372.103 333.252C373.058 333.178 374.088 333.031 375.043 332.958C374.014 333.031 373.058 333.105 372.103 333.252Z" fill="black"/>
<path fill-rule="evenodd" clip-rule="evenodd" d="M439.302 315.828C439.376 314.873 439.449 313.844 439.449 312.888C439.376 313.844 439.302 314.799 439.302 315.828Z" fill="black"/>
<path fill-rule="evenodd" clip-rule="evenodd" d="M452.242 180.263C453.198 180.19 454.227 180.116 455.183 180.043C454.154 180.116 453.198 180.19 452.242 180.263Z" fill="black"/>
<path fill-rule="evenodd" clip-rule="evenodd" d="M287.992 427.574C287.919 426.839 287.919 426.104 287.919 425.369C287.919 426.104 287.919 426.839 287.992 427.574Z" fill="black"/>
<path fill-rule="evenodd" clip-rule="evenodd" d="M370.411 390.08C372.029 394.05 371.147 391.257 371.147 392.139C369.75 392.359 369.529 391.624 370.411 390.08Z" fill="black"/>
<path fill-rule="evenodd" clip-rule="evenodd" d="M302.991 305.169C302.256 305.169 301.521 305.095 300.785 305.095C301.521 305.169 302.256 305.169 302.991 305.169Z" fill="black"/>
<path fill-rule="evenodd" clip-rule="evenodd" d="M453.272 230.549C453.345 229.593 453.345 228.564 453.418 227.608C453.345 228.564 453.272 229.52 453.272 230.549Z" fill="black"/>
<path fill-rule="evenodd" clip-rule="evenodd" d="M287.845 398.167C287.919 397.432 287.919 396.697 287.992 395.962C287.919 396.697 287.845 397.432 287.845 398.167Z" fill="black"/>
<path fill-rule="evenodd" clip-rule="evenodd" d="M440.699 301.86L440.92 299.655L440.699 301.86Z" fill="black"/>
<path fill-rule="evenodd" clip-rule="evenodd" d="M278.214 400.373L278.434 402.578L278.214 400.373Z" fill="black"/>
<path fill-rule="evenodd" clip-rule="evenodd" d="M276.743 394.491L276.964 396.697L276.743 394.491Z" fill="black"/>
<path fill-rule="evenodd" clip-rule="evenodd" d="M423.863 293.773C423.936 293.038 423.936 292.303 424.009 291.568C423.936 292.303 423.863 293.038 423.863 293.773Z" fill="black"/>
<path fill-rule="evenodd" clip-rule="evenodd" d="M48.6022 393.462C49.558 393.389 50.5873 393.315 51.5431 393.242C50.5138 393.315 49.558 393.389 48.6022 393.462Z" fill="black"/>
<path fill-rule="evenodd" clip-rule="evenodd" d="M417.319 411.4C417.319 412.135 417.245 412.871 417.245 413.606C417.319 412.871 417.319 412.135 417.319 411.4Z" fill="black"/>
<path fill-rule="evenodd" clip-rule="evenodd" d="M429.009 413.606C429.083 412.871 429.083 412.135 429.156 411.4C429.083 412.135 429.009 412.871 429.009 413.606Z" fill="black"/>
<path fill-rule="evenodd" clip-rule="evenodd" d="M424.524 290.833L424.745 288.627L424.524 290.833Z" fill="black"/>
<path fill-rule="evenodd" clip-rule="evenodd" d="M54.484 392.797C55.4398 392.723 56.4691 392.576 57.4249 392.503C56.3956 392.576 55.4398 392.65 54.484 392.797Z" fill="black"/>
<path fill-rule="evenodd" clip-rule="evenodd" d="M430.626 390.08C430.45 389.734 430.371 389.346 430.396 388.957C430.422 388.569 430.552 388.195 430.773 387.875C430.7 388.61 430.626 389.345 430.626 390.08Z" fill="black"/>
<path fill-rule="evenodd" clip-rule="evenodd" d="M418.054 376.112C418.054 376.847 417.981 377.583 417.981 378.318C418.054 377.583 418.054 376.847 418.054 376.112Z" fill="black"/>
<path fill-rule="evenodd" clip-rule="evenodd" d="M418.716 448.894C418.789 449.629 418.789 450.364 418.863 451.099C418.789 450.364 418.716 449.629 418.716 448.894Z" fill="black"/>
<path fill-rule="evenodd" clip-rule="evenodd" d="M472.829 181.513C473.564 181.587 474.299 181.734 475.034 181.807C474.299 181.66 473.564 181.587 472.829 181.513Z" fill="black"/>
<path fill-rule="evenodd" clip-rule="evenodd" d="M469.888 181.513C470.844 181.587 471.946 181.072 472.829 181.807L469.888 181.513Z" fill="black"/>
<path fill-rule="evenodd" clip-rule="evenodd" d="M366.221 180.778L369.162 180.998C368.132 180.925 367.177 180.851 366.221 180.778Z" fill="black"/>
<path fill-rule="evenodd" clip-rule="evenodd" d="M317.696 336.56H320.637C320.188 336.813 319.681 336.946 319.166 336.946C318.651 336.946 318.144 336.813 317.696 336.56Z" fill="black"/>
<path fill-rule="evenodd" clip-rule="evenodd" d="M290.933 459.921C290.86 459.186 290.786 458.451 290.786 457.716C290.786 458.451 290.86 459.186 290.933 459.921Z" fill="black"/>
<path fill-rule="evenodd" clip-rule="evenodd" d="M336.076 336.854C337.032 336.781 338.061 336.707 339.017 336.634C337.988 336.707 337.032 336.781 336.076 336.854Z" fill="black"/>
<path fill-rule="evenodd" clip-rule="evenodd" d="M419.451 466.538C419.451 467.273 419.451 468.008 419.525 468.743C419.525 468.008 419.525 467.273 419.451 466.538Z" fill="black"/>
<path fill-rule="evenodd" clip-rule="evenodd" d="M422.098 163.428C423.054 163.354 424.083 163.207 425.039 163.134C424.01 163.207 423.054 163.281 422.098 163.428Z" fill="black"/>
<path fill-rule="evenodd" clip-rule="evenodd" d="M434.818 351.117L435.038 348.911L434.818 351.117Z" fill="black"/>
<path fill-rule="evenodd" clip-rule="evenodd" d="M468.711 154.827C468.785 154.091 468.858 153.356 468.858 152.621C468.785 153.356 468.711 154.091 468.711 154.827Z" fill="black"/>
<path fill-rule="evenodd" clip-rule="evenodd" d="M398.865 91.602C398.865 92.3372 398.865 93.0723 398.938 93.8075C398.938 93.0723 398.938 92.3372 398.865 91.602Z" fill="black"/>
<path fill-rule="evenodd" clip-rule="evenodd" d="M372.838 77.8544C373.793 77.9279 374.823 78.0014 375.779 78.0749C374.749 78.0014 373.793 77.9279 372.838 77.8544Z" fill="black"/>
<path fill-rule="evenodd" clip-rule="evenodd" d="M225.792 495.724C226.748 495.651 227.777 495.504 228.733 495.43C227.704 495.504 226.748 495.577 225.792 495.724Z" fill="black"/>
<path fill-rule="evenodd" clip-rule="evenodd" d="M193.442 505.281C193.902 505.064 194.404 504.951 194.913 504.951C195.421 504.951 195.923 505.064 196.383 505.281H193.442Z" fill="black"/>
<path fill-rule="evenodd" clip-rule="evenodd" d="M575.025 462.568C576.716 462.495 578.481 462.421 580.172 462.274C578.407 462.421 576.716 462.495 575.025 462.568Z" fill="black"/>
<path fill-rule="evenodd" clip-rule="evenodd" d="M575.025 449.923C574.07 449.923 573.04 449.997 572.085 449.997C573.04 449.997 573.996 449.997 575.025 449.923Z" fill="black"/>
<path fill-rule="evenodd" clip-rule="evenodd" d="M560.321 435.367C561.571 435.293 562.747 435.146 563.997 435.073C562.821 435.808 561.497 435.293 560.321 435.367Z" fill="black"/>
<path fill-rule="evenodd" clip-rule="evenodd" d="M546.351 436.907C547.601 436.833 548.778 436.76 550.028 436.613C548.778 436.686 547.528 436.76 546.351 436.907Z" fill="black"/>
<path fill-rule="evenodd" clip-rule="evenodd" d="M525.765 450.07C526.721 449.997 527.75 449.923 528.706 449.85C527.677 449.923 526.721 449.997 525.765 450.07Z" fill="black"/>
<path fill-rule="evenodd" clip-rule="evenodd" d="M530.912 450.07C531.867 449.997 532.897 449.923 533.853 449.85C532.823 449.923 531.867 449.997 530.912 450.07Z" fill="black"/>
<path fill-rule="evenodd" clip-rule="evenodd" d="M534.588 449.335C535.544 449.261 536.573 449.188 537.529 449.041C536.499 449.188 535.544 449.261 534.588 449.335Z" fill="black"/>
<path fill-rule="evenodd" clip-rule="evenodd" d="M558.115 464.774C559.071 464.7 560.1 464.627 561.056 464.553C560.1 465.141 559.071 464.774 558.115 464.774Z" fill="black"/>
<path fill-rule="evenodd" clip-rule="evenodd" d="M530.176 406.03C531.132 405.956 532.162 405.809 533.117 405.736C532.088 405.809 531.132 405.883 530.176 406.03Z" fill="black"/>
<path fill-rule="evenodd" clip-rule="evenodd" d="M501.503 397.653C501.282 398.241 499.959 398.167 500.032 397.579C500.523 397.569 501.015 397.593 501.503 397.653Z" fill="black"/>
<path fill-rule="evenodd" clip-rule="evenodd" d="M467.241 400.373C467.241 401.108 467.314 401.843 467.314 402.578C467.314 401.843 467.314 401.108 467.241 400.373Z" fill="black"/>
<path fill-rule="evenodd" clip-rule="evenodd" d="M567.673 404.269C568.408 404.269 569.144 404.269 569.879 404.196C569.559 404.422 569.179 404.55 568.787 404.563C568.395 404.576 568.008 404.474 567.673 404.269Z" fill="black"/>
<path fill-rule="evenodd" clip-rule="evenodd" d="M520.619 439.848C521.574 439.774 522.604 439.701 523.559 439.554C522.53 439.627 521.574 439.701 520.619 439.848Z" fill="black"/>
<path fill-rule="evenodd" clip-rule="evenodd" d="M508.855 441.248L511.796 441.028L508.855 441.248Z" fill="black"/>
<path fill-rule="evenodd" clip-rule="evenodd" d="M566.203 463.373C567.158 463.3 568.188 463.153 569.144 463.079C568.114 463.153 567.158 463.226 566.203 463.373Z" fill="black"/>
<path fill-rule="evenodd" clip-rule="evenodd" d="M530.912 467.784C531.371 467.566 531.874 467.453 532.382 467.453C532.891 467.453 533.393 467.566 533.853 467.784H530.912Z" fill="black"/>
<path fill-rule="evenodd" clip-rule="evenodd" d="M529.368 366.408L527.971 365.967C529.662 365.967 531.426 365.893 533.117 365.893C533.117 365.893 529.515 366.482 529.368 366.408Z" fill="black"/>
<path fill-rule="evenodd" clip-rule="evenodd" d="M469.888 381.769C471.073 381.328 472.378 381.328 473.564 381.769H469.888Z" fill="black"/>
<path fill-rule="evenodd" clip-rule="evenodd" d="M528.706 360.159C529.956 360.233 531.132 360.306 532.382 360.38C531.132 360.306 529.882 360.233 528.706 360.159Z" fill="black"/>
<path fill-rule="evenodd" clip-rule="evenodd" d="M513.266 367.731C514.516 367.658 515.692 367.584 516.942 367.437C515.692 367.584 514.443 367.658 513.266 367.731Z" fill="black"/>
<path fill-rule="evenodd" clip-rule="evenodd" d="M522.824 366.261C523.78 366.187 524.809 366.114 525.765 366.04C524.736 366.114 523.78 366.187 522.824 366.261Z" fill="black"/>
<path fill-rule="evenodd" clip-rule="evenodd" d="M514.737 359.424C515.692 359.497 516.722 359.571 517.678 359.644C516.648 359.571 515.692 359.497 514.737 359.424Z" fill="black"/>
<path fill-rule="evenodd" clip-rule="evenodd" d="M516.207 366.188C515.692 366.188 515.251 366.114 514.737 366.114C515.251 366.114 515.692 366.188 516.207 366.188Z" fill="black"/>
<path fill-rule="evenodd" clip-rule="evenodd" d="M506.649 366.188C506.158 366.2 505.666 366.175 505.179 366.114C505.666 366.175 506.158 366.2 506.649 366.188Z" fill="black"/>
<path fill-rule="evenodd" clip-rule="evenodd" d="M533.117 365.526C533.117 365.746 535.323 364.717 535.323 365.673L533.117 365.526Z" fill="black"/>
<path fill-rule="evenodd" clip-rule="evenodd" d="M264.024 318.769C264.833 315.534 264.612 312.961 267.406 315.02C268.95 316.196 271.523 321.93 271.303 323.915C271.082 326.341 269.979 327.297 267.7 326.488C265.127 325.68 264.098 321.269 264.024 318.769Z" fill="black"/>
<path fill-rule="evenodd" clip-rule="evenodd" d="M407.246 299.067C413.863 299.067 410.922 306.051 405.482 306.198C402.982 306.271 399.306 305.757 400.115 302.375C400.556 300.61 406.952 298.184 407.246 299.067Z" fill="black"/>
<path fill-rule="evenodd" clip-rule="evenodd" d="M336.665 312.888C341.444 315.167 334.753 325.312 330.415 322.813C324.827 319.578 334.679 314.285 336.665 312.888Z" fill="black"/>
<path fill-rule="evenodd" clip-rule="evenodd" d="M325.048 322.445C326.592 324.136 333.65 329.87 329.753 332.223C325.048 335.016 321.372 325.606 325.048 322.445Z" fill="black"/>
<path fill-rule="evenodd" clip-rule="evenodd" d="M245.423 318.034C243.879 315.02 246.011 307.227 250.716 308.624C255.422 310.094 247.996 317.225 245.423 318.034Z" fill="black"/>
<path fill-rule="evenodd" clip-rule="evenodd" d="M350.266 319.725C353.354 318.475 352.766 322.151 353.207 323.327C353.722 324.65 356.442 327.959 355.78 329.356C354.751 331.488 352.325 330.091 351.075 328.767C348.796 326.341 348.943 322.518 350.266 319.725Z" fill="black"/>
<path fill-rule="evenodd" clip-rule="evenodd" d="M303.285 323.107C300.712 323.107 294.61 315.681 298.212 314.432C302.697 312.961 306.447 323.695 303.285 323.107Z" fill="black"/>
<path fill-rule="evenodd" clip-rule="evenodd" d="M392.097 311.417C394.45 312.006 397.538 318.696 394.009 319.431C390.112 320.24 389.377 313.255 392.097 311.417Z" fill="black"/>
<path fill-rule="evenodd" clip-rule="evenodd" d="M377.837 323.915C375.999 320.386 375.558 312.741 380.043 318.843C380.999 320.166 382.028 319.651 381.513 321.783C381.072 323.695 379.308 323.915 377.837 323.915Z" fill="black"/>
<path fill-rule="evenodd" clip-rule="evenodd" d="M280.64 305.536C282.552 308.403 281.964 317.225 278.067 312.006C276.302 309.727 277.479 305.61 280.64 305.536Z" fill="black"/>
<path fill-rule="evenodd" clip-rule="evenodd" d="M375.19 38.7434C378.867 37.7877 379.749 46.3892 377.617 47.3449C374.602 48.6682 374.97 40.1402 375.19 38.7434Z" fill="black"/>
<path fill-rule="evenodd" clip-rule="evenodd" d="M605.978 475.801C602.596 475.581 597.817 474.698 602.964 472.272C606.199 470.728 611.052 470.655 614.507 471.243C616.86 471.684 620.463 473.669 616.786 476.169C614.728 477.713 608.552 475.875 605.978 475.801Z" fill="black"/>
<path fill-rule="evenodd" clip-rule="evenodd" d="M602.229 481.977C601.273 481.83 600.244 481.756 599.288 481.683C600.023 480.212 602.376 479.918 602.229 481.977Z" fill="black"/>
<path fill-rule="evenodd" clip-rule="evenodd" d="M606.64 475.654C607.596 475.654 608.625 475.728 609.581 475.728C608.552 475.728 607.596 475.728 606.64 475.654Z" fill="black"/>
</g>
<defs>
<clipPath id="clip0">
<rect width="653" height="517" fill="white"/>
</clipPath>
</defs>
</svg>
