<svg width="630" height="388" viewBox="0 0 630 388" fill="none" xmlns="http://www.w3.org/2000/svg">
<g clip-path="url(#clip0)">
<path fill-rule="evenodd" clip-rule="evenodd" d="M464.326 312.989C461.354 316.407 456.93 318.971 453.562 322.126C449.996 325.413 446.166 328.306 442.6 331.593C427.015 312.594 405.619 300.958 387.129 285.246C378.346 277.752 371.875 267.628 367.186 257.241C364.785 251.934 362.906 246.408 361.573 240.74C360.913 238.176 360.318 235.612 359.922 233.049C359.394 229.893 359.262 229.63 357.149 227.198C356.224 226.146 354.441 223.056 352.658 223.385C351.139 223.648 348.366 228.25 347.441 229.367C342.885 234.824 338.394 240.412 333.573 245.605C326.177 253.625 319.442 261.448 312.574 269.929C298.574 287.284 283.386 303.588 268.131 319.891C267.009 321.075 264.367 324.625 262.716 325.15C260.735 325.742 257.499 323.31 255.518 321.995C250.698 318.708 246.933 314.698 242.839 310.688C234.849 302.799 229.368 291.755 225.736 281.236C223.556 274.925 222.104 268.417 219.858 262.106C218.934 259.476 216.755 256.255 217.877 254.02C218.207 253.362 220.255 251.522 220.981 251.39C221.84 251.259 223.292 252.376 223.556 252.31C226.396 251.522 224.811 248.563 226.528 246.986C227.453 246.065 232.339 246.197 233.792 245.736C239.141 243.896 243.896 240.477 248.915 238.374C269.98 229.696 291.244 221.281 309.404 207.147C314.093 203.466 317.262 200.705 322.876 198.338C328.555 195.971 334.234 193.802 340.045 191.698C345.13 189.81 350.31 188.186 355.564 186.833C361.243 185.387 369.365 183.612 375.111 185.453C386.337 189.069 389.969 198.272 394.393 207.936C400.403 221.084 407.733 233.443 415.657 245.539C430.978 268.745 449.468 289.585 464.326 312.989Z" fill="#F9A61A"/>
<path fill-rule="evenodd" clip-rule="evenodd" d="M126.813 107.551C126.218 107.222 121.398 109.194 120.605 109.457C117.37 110.641 114.332 112.613 111.294 114.256C113.605 117.083 115.983 119.91 118.294 122.737C120.539 117.215 123.445 112.613 126.813 107.551ZM128.398 142.262C127.605 142.327 134.275 158.368 135.067 160.143C137.907 166.717 140.879 173.159 143.784 179.668C146.558 185.979 150.124 191.83 153.69 197.746C156.727 202.808 159.897 210.631 164.52 214.378C161.614 201.559 162.01 186.768 153.624 175.986C144.973 164.876 136.454 153.963 128.398 142.262ZM464.326 313.58C451.383 293.201 435.204 275.188 421.732 255.203C414.204 244.027 406.874 232.654 400.469 220.755C395.846 212.078 393.006 199.718 385.875 193.079C382.705 190.186 379.403 187.294 375.177 185.979C369.431 184.204 361.441 185.979 355.63 187.359C344.8 189.989 334.234 194.065 323.998 198.404C313.63 202.742 304.782 210.631 295.404 216.877C285.367 223.648 274.471 228.578 263.178 232.851C253.339 236.599 244.622 241.989 234.849 245.736C232.934 246.46 228.905 246.394 227.321 247.38C225.538 248.432 226.264 251.587 224.151 252.705C223.16 253.231 222.896 251.324 222.104 251.39C221.179 251.456 220.387 252.508 219.528 253.165C215.962 255.86 218.141 257.701 219.528 261.448C224.085 273.676 226.594 286.101 233 297.671C238.36 307.27 245.805 315.558 254.792 321.929C256.179 322.915 260.537 326.597 262.188 326.334C263.641 326.137 266.546 322.324 267.537 321.272C272.027 316.604 276.122 311.542 280.612 306.875C287.546 299.643 294.216 292.215 300.951 284.918C308.744 276.437 315.678 266.773 322.677 257.701C325.913 253.494 330.074 250.141 333.64 246.262C338.46 241.069 342.885 235.415 347.507 230.025C348.894 228.381 351.205 224.174 353.384 224.239C354.903 224.305 357.545 227.789 358.337 228.907C361.243 233.049 361.243 240.477 362.696 245.605C366.262 258.161 372.667 270.455 381.516 280.119C390.299 289.782 401.525 296.619 411.893 304.377C423.119 312.791 433.751 321.338 442.666 332.185C446.232 328.898 450.062 326.071 453.628 322.718C456.93 319.563 461.354 316.999 464.326 313.58ZM298.046 371.234C300.555 371.234 304.782 372.812 307.027 371.892C300.357 364.529 294.216 358.218 285.829 352.893C277.046 347.305 268.329 341.783 259.877 335.8C242.773 323.77 230.16 309.57 222.962 289.585C221.113 284.457 219.858 279.067 218.538 273.742C217.811 270.915 216.358 257.57 213.915 256.386C212.462 255.729 201.5 263.355 199.783 264.341C195.776 266.472 191.653 268.382 187.434 270.06C178.391 273.769 169.074 276.78 159.567 279.067C148.077 281.959 140.284 277.16 133.218 268.22C125.162 258.03 118.492 246.591 111.096 235.875C107.791 231.121 104.918 226.083 102.511 220.821C100.86 217.337 94.4548 207.87 96.7001 204.123C103.04 208.922 105.285 218.454 109.643 224.897C114.992 232.917 121.068 240.477 126.483 248.432C131.039 255.137 135.662 263.289 142.397 268.154C148.275 272.427 153.888 271.112 160.227 269.206C167.954 266.905 175.878 265.721 183.472 262.895C191.661 259.805 199.387 255.4 207.311 251.785C211.01 250.141 215.5 249.155 219 247.051C222.038 245.276 221.575 244.29 221.773 240.477C222.038 236.007 222.302 231.537 222.5 227.066C222.632 224.042 220.981 219.966 222.104 217.731C213.057 219.309 204.208 221.413 195.227 223.253C190.34 224.239 185.585 225.488 180.633 226.343C178.718 226.672 176.142 226.606 174.425 227.461C173.104 227.066 172.378 227.329 172.378 228.184C172.299 228.651 172.189 229.112 172.048 229.564C169.274 230.813 167.689 228.118 165.246 225.554C162.398 222.331 159.918 218.803 157.85 215.036C152.963 206.687 147.35 198.798 142.86 190.186C138.237 181.377 134.539 171.976 130.643 162.904C127.077 154.555 124.766 145.483 120.869 137.331C119.095 133.821 116.875 130.551 114.266 127.602C112.087 125.038 108.785 119.581 105.615 118.398C104.757 118.069 102.511 118.595 101.587 118.529C99.6717 118.398 97.9548 117.675 95.9737 117.872C91.6813 118.201 87.0587 120.896 83.6909 123.263C85.8701 125.235 91.4172 127.601 87.455 131.086C83.6248 134.504 81.5117 128.39 80.0589 125.695C73.191 131.349 74.1816 139.106 73.3892 147.061C72.9929 151.202 71.8703 155.344 71.1439 159.42C70.6156 162.378 71.0118 165.402 70.8798 168.426C70.4835 176.052 69.7571 183.415 69.7571 190.909C69.8232 198.995 70.3515 206.753 71.0118 214.773C72.1345 228.25 74.5778 241.726 76.757 255.072C77.9457 262.566 79.5966 269.863 81.1815 277.292C83.0305 285.706 86.3323 293.595 88.2474 302.01C90.1625 299.578 91.6153 299.578 94.719 299.906C97.0963 300.169 98.6812 299.578 98.5491 302.865C98.4831 305.034 96.568 306.612 94.4548 307.006C91.7473 307.466 90.7568 306.152 89.37 304.048C89.0398 307.927 91.6813 312.068 92.7379 315.881C93.7284 319.497 94.3888 323.047 96.0397 326.531C97.6906 329.884 99.0774 333.237 100.662 336.589C101.389 338.101 102.115 339.679 102.908 341.257C103.29 342.131 103.755 342.967 104.294 343.755C105.615 345.267 105.417 344.544 107.002 345.398C110.436 347.305 109.181 346.845 109.247 350.789C109.313 354.668 111.294 357.495 114.53 359.73C121.332 364.332 128.067 365.646 135.794 368.013C142.992 370.182 150.586 372.089 158.246 372.023C167.623 371.957 176.803 370.774 186.18 370.643C196.481 370.511 206.915 370.577 217.217 370.906C221.443 371.037 225.405 371.234 229.5 372.286C234.254 373.535 238.877 373.075 243.764 372.878C254.197 372.483 265.027 371.694 275.329 371.563C282.725 371.3 290.584 370.774 298.046 371.234ZM569.126 375.244C570.975 376.23 575.135 375.836 577.051 375.573C580.352 375.113 580.683 373.798 582.796 370.906C586.362 365.844 589.333 361.045 591.447 355.194C595.475 344.018 597.126 332.645 598.909 320.943C600.89 307.992 597.258 294.516 596.003 281.631C595.739 278.672 595.277 275.78 594.814 272.821C594.55 271.046 594.484 265.13 593.296 263.618C591.05 260.725 580.683 263.026 576.654 263.289C565.296 264.012 553.872 264.209 542.513 264.341C536.438 264.407 530.363 264.67 524.353 264.735C521.58 264.735 518.938 264.604 516.165 264.341C515.24 264.275 514.316 264.012 513.391 264.012C510.222 263.815 510.42 263.355 509.627 266.182C508.174 271.112 509.297 277.357 508.901 282.485C508.372 289.322 508.108 296.225 508.24 303.062C508.372 309.373 508.108 315.684 508.372 322.061C508.46 324.524 508.814 326.97 509.429 329.358C510.222 332.185 511.08 338.824 513.061 340.797C513.259 340.994 514.976 340.468 515.372 341.06C516.033 341.914 515.901 343.755 516.429 344.281C517.948 346.056 521.052 346.187 523.363 347.042C529.457 349.194 535.411 351.719 541.193 354.602C546.41 357.232 554.862 359.533 558.032 364.792C559.485 367.224 559.683 370.38 561.004 372.878C562.523 375.705 559.485 374.258 563.183 375.376C564.768 375.77 567.475 375.244 569.126 375.244ZM16.5976 343.229C16.1354 349.737 12.4373 355.983 11.1166 362.425C10.5223 365.449 9.46569 368.407 8.80532 371.366C8.14496 374.258 5.7016 377.611 5.89971 380.438C14.9467 377.217 24.1258 376.428 33.5691 375.573C42.55 374.784 51.9933 374.455 60.9082 374.39C69.9552 374.39 79.6626 373.535 88.9738 373.338C98.7472 373.206 108.653 372.943 118.228 371.957C113.209 368.276 106.936 364.792 103.172 359.598C99.1434 354.01 97.0303 346.976 93.4643 341.06C86.3323 329.161 81.7758 314.435 78.0778 301.09C70.5496 274.136 62.0969 247.709 60.0498 219.769C56.1536 221.741 53.1159 229.367 51.2008 233.18C48.7575 238.045 47.4368 243.304 45.8519 248.498C42.55 259.147 40.2388 270.192 36.2105 280.71C28.5503 300.958 23.5975 322.718 16.5976 343.229ZM507.976 186.307C509.627 198.338 513.193 210.565 513.325 222.727C513.325 225.423 512.929 228.381 513.457 231.011C514.052 233.837 516.033 236.336 517.155 239.031C518.938 243.304 523.495 252.047 519.07 255.597C519.004 252.179 515.835 247.84 514.25 244.816C511.872 240.28 508.703 236.204 506.127 231.8C500.757 222.487 494.569 213.665 487.637 205.438C480.835 197.549 472.977 190.515 465.779 182.955C463.6 180.719 446.232 158.894 445.506 159.222C450.921 179.931 460.1 197.943 472.647 215.299C478.788 223.779 486.184 229.367 493.712 236.599C499.92 242.581 511.74 249.023 509.561 258.819C519.335 257.898 528.976 256.386 538.815 256.386C537.164 243.961 535.976 231.8 533.07 219.572C529.768 205.701 527.589 191.435 524.816 177.498C521.976 163.233 517.155 149.427 514.184 135.162C511.344 121.553 508.835 107.945 506.788 94.1398C505.071 101.766 505.665 110.18 505.071 117.938C504.498 125.857 504.388 133.803 504.74 141.736C505.005 156.79 506.589 171.45 507.976 186.307ZM550.24 115.374C550.306 108.997 551.56 102.752 551.891 96.375C552.023 94.4028 553.938 81.1233 552.155 80.4659C550.636 83.6871 550.306 87.8945 548.919 91.2472C547.532 94.6657 545.749 97.887 544.428 101.305C541.589 108.734 540.664 117.149 540.334 125.038C539.674 142.919 539.278 160.669 540.466 178.55C540.995 186.176 541.391 193.868 541.259 201.559C541.127 209.974 539.806 217.337 541.391 225.686C542.927 233.919 543.942 242.241 544.428 250.601C544.825 256.518 544.957 256.058 550.57 255.663C554.664 255.334 558.758 255.663 562.853 255.466C560.938 232.457 560.607 209.448 557.57 186.505C555.985 174.803 555.985 162.97 554.004 151.334C553.013 145.549 551.428 139.895 550.504 134.11C549.645 127.864 550.174 121.619 550.24 115.374ZM136.784 100.911C147.68 101.831 159.237 105.118 170.397 102.949C168.548 102.226 163.727 101.174 165.906 98.2814C168.086 95.3231 171.85 99.0703 174.029 98.6759C175.416 98.4129 178.387 92.825 179.18 91.6417C181.095 89.0121 181.293 88.5519 184.727 87.8288C188.029 87.1714 188.755 87.8945 189.217 84.6075C189.68 80.8603 188.425 76.6529 188.491 72.7743C188.755 64.491 191.463 57.2596 193.972 49.5023C183.406 51.8032 173.038 54.4985 162.208 56.0105C157.586 56.668 150.388 58.1142 146.162 54.9587C145.039 54.1698 145.237 53.0522 144.379 52.0661C142.596 50.3121 140.39 49.0443 137.973 48.3847C124.898 45.6236 123.577 64.2281 130.181 71.1965C131.832 72.9715 134.143 73.8261 135.794 75.4039C138.039 77.5076 138.237 79.8085 138.567 83.0297C139.257 89.1146 138.276 95.2719 135.728 100.845L136.784 100.911ZM295.801 188.74C299.697 189.463 303.725 189.331 307.555 189.923C308.942 190.12 313.036 190.909 314.291 190.12C316.14 188.871 316.8 184.401 317.659 182.297C319.178 178.616 321.357 175.395 322.81 171.647C328.819 156.33 334.366 141.012 341.63 126.221C338.856 125.498 336.743 125.498 333.904 125.103C330.998 124.709 328.357 123 325.583 122.277C322.942 121.553 320.168 121.751 317.527 120.962C316.074 120.502 314.819 119.515 313.432 119.187C311.187 118.661 308.546 118.332 307.159 119.778C305.772 121.29 305.31 125.498 304.517 127.404C302.536 132.663 300.159 137.66 298.508 143.05C296.989 147.849 295.536 152.648 294.216 157.513C292.829 162.641 290.055 166.914 288.338 171.845C287.084 175.592 285.829 179.405 285.631 183.415C285.433 187.294 284.905 187.556 288.801 188.148C290.914 188.411 293.952 189.594 295.801 188.74ZM550.372 370.906C550.818 371.135 551.319 371.238 551.819 371.203C552.32 371.168 552.802 370.997 553.211 370.708C544.495 367.027 535.976 361.965 526.863 359.401C518.344 357.034 510.023 354.208 501.769 351.315C495.099 348.948 489.09 347.108 483.014 342.966C479.312 340.572 476.106 337.492 473.571 333.894C470.732 329.752 470.137 323.901 467.1 320.22C463.005 324.69 458.185 328.109 453.298 331.659C451.647 332.908 447.553 335.603 447.024 337.51C446.298 339.942 448.213 342.243 449.204 344.675C451.647 350.921 452.902 357.166 454.222 363.674C454.751 366.304 455.939 370.182 458.053 371.3C460.034 372.286 465.647 371.563 468.09 371.366C480.769 370.38 493.25 369.459 506.061 370.314C520.523 371.3 535.976 371.957 550.372 370.906ZM575.73 255.137C578.041 255.137 580.286 254.874 582.598 254.874C581.277 248.695 584.381 240.74 585.503 234.561C586.758 227.658 587.682 220.558 588.475 213.59C590.17 199.057 591.008 184.437 590.984 169.807C590.984 155.541 593.626 142.524 597.258 128.785C601.154 114.059 607.626 100.845 612.908 86.6454C607.097 89.7352 603.861 96.9009 600.824 102.357C596.983 109.367 594.265 116.931 592.767 124.775C589.73 139.763 586.362 154.818 582.862 169.807C579.23 185.387 577.051 201.165 572.824 216.614C570.777 224.174 568.004 233.443 567.872 241.2C567.805 244.422 566.815 251.193 568.268 253.954C569.721 256.584 572.758 255.4 575.73 255.137ZM227.387 235.744C227.255 237.322 227.122 238.899 226.858 240.477C230.028 240.477 234.122 237.124 236.83 235.678C240.198 233.903 243.5 231.865 246.801 230.09C253.141 226.606 260.273 224.305 267.009 221.413C274.735 218.126 281.867 214.115 289.263 210.105C291.838 208.725 310.395 200.704 310.13 198.535C306.036 198.404 302.008 198.272 297.914 198.141C294.414 198.009 288.999 198.798 285.631 197.746C283.782 197.155 281.735 194.985 281.074 193.276C280.414 191.567 281.933 183.875 281.008 183.349C276.452 188.017 273.546 194.13 269.518 199.127C265.027 204.649 259.216 207.87 252.745 210.828C245.679 214.05 238.283 216.614 231.085 219.375C228.047 220.558 228.113 221.215 227.849 224.568C227.453 228.25 227.519 231.997 227.387 235.744ZM595.805 376.033C603.465 376.822 611.39 376.362 619.116 377.019C621.956 377.282 625.852 377.611 623.012 381.358C621.229 383.725 615.484 383.002 612.908 383.133C605.975 383.593 598.578 383.33 591.579 383.265C590.126 383.265 588.475 382.804 587.022 382.936C585.305 383.067 583.258 384.251 581.673 384.251C580.683 384.251 580.352 383.265 579.56 383.133C577.762 382.925 575.955 382.816 574.145 382.804C546.542 382.804 519.335 382.279 491.797 382.213C478.656 382.213 465.251 381.95 452.109 381.358C449.336 381.227 433.619 381.818 434.015 376.822C434.213 374.258 439.364 373.93 441.279 373.667C442.666 373.469 444.119 373.469 445.506 373.404C449.204 373.206 450.855 374.061 450.062 370.051C447.09 354.799 441.808 342.177 430.449 331.199C421.204 322.192 410.044 314.106 399.544 306.546C386.799 297.408 376.497 287.876 368.903 273.939C364.479 265.787 360.781 257.504 358.535 248.498C357.743 245.276 357.677 241.595 356.686 238.439C355.894 236.007 354.177 234.363 353.12 231.865C340.441 252.902 323.668 270.586 308.281 289.585C300.782 298.74 292.568 307.291 283.716 315.158C281.14 317.525 278.697 319.957 276.254 322.455C274.207 324.559 270.971 326.465 269.254 328.766C267.603 331.001 267.999 330.936 270.509 332.711C273.81 335.077 277.508 337.049 280.876 339.35C286.291 343.032 292.169 346.122 296.989 350.526C302.206 355.325 306.763 360.847 311.319 366.238C314.357 369.854 318.319 374.455 319.111 378.992C319.376 380.504 320.3 384.185 319.045 385.303C317.989 386.223 318.055 385.894 316.734 385.303C314.951 384.579 314.423 382.804 312.31 382.016C306.829 379.912 300.159 380.635 294.414 380.635C288.669 380.635 282.923 381.227 277.178 381.227C264.103 381.161 251.292 382.213 238.217 382.804C224.349 383.396 210.283 381.95 196.415 382.147C186.18 382.279 175.614 381.555 165.114 382.081C159.699 382.344 154.35 381.687 149.067 381.621C142.133 381.49 135.067 382.476 128.067 382.607C116.577 382.804 105.285 382.804 93.7945 383.133C68.9647 383.725 44.333 384.317 19.5033 384.711C16.2014 384.777 12.5694 384.645 9.26758 385.04C5.76764 385.434 7.61666 386.157 5.23935 387.406C-1.43036 390.891 0.0884876 378.005 0.286598 375.442C1.14507 361.833 4.64502 348.488 8.80532 335.603C12.7675 323.375 16.0033 310.556 19.3051 298C23.0032 284.326 27.7578 271.178 32.1163 257.57C36.5407 243.698 40.1727 229.236 48.2292 216.942C50.0782 214.115 51.9933 211.091 54.8989 209.316C58.2007 207.344 58.3328 208.462 58.3328 204.846C58.3328 201.428 58.5309 196.892 57.7385 193.605C57.0121 190.646 57.1441 192.421 55.4932 190.318C54.1725 188.608 52.7197 187.425 51.7952 185.321C45.8519 191.304 32.3144 188.148 26.6352 183.875C19.6353 178.616 14.2864 169.741 12.3713 161.26C10.7864 154.489 12.7015 141.538 20.2957 138.251C23.9937 136.674 37.4652 135.425 38.0596 130.297C38.3237 127.601 33.5691 123.854 32.5125 121.553C30.2833 116.937 28.748 112.02 27.9559 106.959C26.8333 97.8212 30.9936 87.6315 37.6633 81.452C49.8141 70.1447 71.2099 64.3595 86.8606 71.5252C83.5588 58.9689 81.5777 48.1217 83.2286 35.0395C84.6814 23.7979 91.3511 17.4869 100.53 11.8332C116.181 2.23516 137.511 -1.51202 155.473 1.24906C159.567 1.90646 163.463 3.22126 167.227 4.33884C172.708 5.91661 179.246 5.39069 184.463 7.95455C188.227 9.79527 191.066 13.4767 194.368 15.9091C198.198 18.8017 201.434 23.0748 204.076 27.0192C209.821 35.4996 207.576 51.2115 202.755 59.692C201.766 61.4811 200.418 63.0477 198.793 64.2938C197.01 65.6086 194.302 66.003 193.444 67.6466C191.132 71.9197 193.378 81.2547 193.642 85.9223C193.972 91.313 191.265 95.3889 185.123 95.7833C181.557 96.0463 181.425 94.0083 179.774 98.2157C178.652 100.977 177.661 103.935 176.076 106.433C172.774 111.627 166.765 111.101 161.284 110.969C154.944 110.838 148.671 109.786 142.331 109.194C143.982 114.519 148.605 118.661 151.444 123.46C155.341 129.902 157.652 135.227 158.312 142.722C158.775 148.507 157.784 153.043 153.756 157.316C152.105 159.091 150.652 159.157 151.048 161.26C151.312 162.509 153.492 164.547 154.218 165.599C156.265 168.229 158.642 170.661 160.425 173.488C167.293 184.335 169.34 200.902 169.34 213.524C169.34 214.115 169.671 215.365 169.406 215.956C169.208 216.416 167.756 217.797 167.756 217.928C167.491 219.572 169.076 222.333 171.586 222.596C174.227 222.859 178.982 220.689 181.425 219.966C185.321 218.849 189.283 217.994 193.18 216.811C199.453 214.904 205.727 213.392 212.132 211.88C215.038 211.223 217.943 210.631 220.849 210.04C224.151 209.316 225.67 207.936 227.387 211.289C228.839 214.181 227.915 214.707 231.481 213.261C234.981 211.815 238.415 210.04 241.849 208.396C247.924 205.569 255.122 203.005 260.339 198.798C269.056 191.764 272.292 180.522 280.612 173.094C282.923 170.99 284.31 170.99 285.763 168.097C287.348 165.008 288.14 161.063 288.999 157.71C290.452 151.925 291.508 146.074 292.763 140.289C294.414 133.058 297.914 126.484 300.489 119.647C301.48 116.952 302.008 113.533 303.659 111.101C304.055 110.443 304.914 110.115 305.244 109.589C306.366 107.748 306.366 107.288 306.697 105.053C308.083 94.7972 314.225 100.188 320.894 102.555C323.734 103.541 337.139 109.917 331.989 114.191C338.064 115.966 347.837 114.979 347.771 123.723C347.705 128.193 345.064 132.926 343.611 137.134C342.356 140.815 341.102 144.562 339.781 148.244C336.941 156.33 333.507 164.219 330.734 172.371C329.479 176.052 328.423 179.865 326.64 183.349C325.055 186.439 321.357 189.857 320.696 193.21C336.941 186.307 351.998 176.315 370.224 176.972C378.214 177.235 385.412 180.588 389.837 187.556C395.384 196.3 399.016 206.095 404.365 214.904C423.978 246.985 447.355 276.174 468.949 306.94C470.599 309.307 472.713 311.542 473.307 314.435C473.703 316.341 472.977 318.248 473.373 320.088C474.298 323.901 478.986 328.635 482.222 330.804C488.363 335.011 498.269 340.928 505.929 340.402C501.108 328.963 501.174 316.407 501.439 304.114C501.637 292.478 502.891 280.973 504.41 269.469C504.674 266.916 505.138 264.389 505.797 261.908C506.656 259.016 507.844 259.279 505.269 256.715C501.307 252.705 496.552 249.418 492.59 245.342C483.939 236.599 475.024 229.696 468.222 219.243C461.751 209.316 454.883 199.061 450.128 188.148C445.175 176.907 443.194 164.942 440.751 153.043C439.76 148.244 436.128 142.853 436.855 137.791C437.779 131.414 440.751 136.082 441.94 139.5C445.638 149.953 454.222 159.288 461.42 167.703C469.147 176.775 478.59 184.401 486.646 193.21C495.429 202.808 501.439 213.852 509.231 224.108C509.231 211.354 504.873 198.404 503.09 185.847C501.505 174.737 501.042 163.627 500.052 152.517C497.807 127.207 499.722 101.24 502.891 76.127C504.41 64.2281 503.552 52.5921 503.618 40.6274C503.618 36.8144 502.033 28.071 504.08 24.6525C507.976 18.21 510.222 32.3441 510.42 34.4478C511.608 47.0042 509.495 59.429 510.552 71.9854C511.674 85.0677 514.118 97.7555 516.165 110.641C518.41 124.643 522.042 138.317 525.542 151.991C529.174 166.388 532.278 181.114 536.372 195.38C537.495 190.909 535.91 185.387 535.646 180.785C535.183 174.211 534.391 167.703 534.259 161.129C534.127 150.676 534.061 140.026 534.655 129.639C535.249 119.384 535.051 108.603 538.221 98.7416C539.851 94.0502 541.815 89.4806 544.098 85.0677C546.74 79.6112 547.664 74.352 549.183 68.5669C550.438 63.5707 552.287 58.7716 553.145 53.7097C553.674 50.5541 555.126 41.2848 558.758 48.319C560.872 52.3948 559.947 58.4429 560.013 62.8475C560.079 68.5012 559.221 73.9576 559.089 79.5455C558.824 90.5241 558.626 101.503 557.834 112.481C556.985 123.592 557.696 134.765 559.947 145.68C562.324 158.105 563.051 170.53 564.305 183.152C564.966 189.66 566.022 196.103 566.551 202.611C566.815 206.029 565.428 215.956 567.872 218.389C568.136 212.406 569.853 206.424 571.107 200.639C572.626 193.736 573.286 186.505 574.409 179.536C576.258 168.229 579.824 157.382 582.201 146.206C587.088 123.131 591.116 93.4824 611.522 78.4279C614.163 76.4557 617.135 75.0094 620.04 73.3659C621.691 72.4456 624.135 70.0789 625.984 69.6187C628.031 69.1586 628.889 69.4873 629.682 71.8539C630.804 75.1409 628.757 76.6529 626.776 79.0853C619.974 87.3686 617.069 97.9527 612.842 107.617C603.201 129.771 598.909 153.174 598.909 177.17C598.821 189.581 598.071 201.98 596.663 214.313C595.211 227.724 593.296 241.924 589.201 254.874C593.296 255.795 597.786 254.414 598.909 259.147C599.173 260.331 598.711 261.711 598.975 263.223C599.369 264.719 599.854 266.19 600.428 267.628C601.228 270.605 601.802 273.637 602.144 276.7C603.795 288.599 606.569 299.972 606.899 312.068C607.163 323.244 604.984 334.551 602.937 345.53C600.89 356.574 595.013 365.975 590.456 375.968C591.843 375.968 593.824 375.968 595.805 376.033Z" fill="black"/>
<path fill-rule="evenodd" clip-rule="evenodd" d="M334.96 350.592C332.781 351.184 322.215 352.367 322.215 355.654C322.215 357.626 332.781 357.56 334.63 357.823C334.762 355.457 334.894 353.024 334.96 350.592ZM358.271 373.338C364.346 374.521 372.601 372.878 376.497 367.553C378.346 365.055 379.205 361.242 379.799 358.284C380.393 355.457 382.11 348.357 380.922 345.727C379.469 342.44 365.469 345.859 361.441 346.253C354.283 346.899 347.085 346.987 339.913 346.516C339.913 353.813 339.517 360.913 343.875 367.224C346.913 371.76 352.724 372.812 358.271 373.338ZM357.082 382.41C350.479 379.978 343.545 381.556 339.253 374.521C338.147 372.726 337.26 370.806 336.611 368.802C336.269 367.933 336.025 367.029 335.885 366.107C336.215 364.134 335.488 363.608 333.706 364.463C330.206 363.806 326.375 366.172 322.677 365.449C313.762 363.74 315.347 350.986 321.357 346.582C322.545 345.727 323.734 345.464 325.055 345.004C328.026 344.084 329.677 345.135 332.385 344.873C334.63 344.675 335.224 342.374 337.602 341.323C339.187 340.665 341.3 340.731 342.951 340.665C351.535 340.336 360.12 340.336 368.705 339.745C372.733 339.482 377.092 340.139 380.988 339.416C382.837 339.087 382.573 337.904 384.29 338.956C386.073 340.074 385.346 344.149 385.214 345.793C384.686 355.259 384.091 365.383 379.007 373.667C374.384 381.227 365.205 382.016 357.082 382.41Z" fill="black"/>
<path fill-rule="evenodd" clip-rule="evenodd" d="M8.14496 384.974C10.2581 384.974 12.3713 384.908 14.4845 384.908C12.3713 384.974 10.2581 384.974 8.14496 384.974Z" fill="black"/>
<path fill-rule="evenodd" clip-rule="evenodd" d="M501.439 300.103C501.373 301.418 501.307 302.799 501.24 304.114C501.24 302.799 501.306 301.418 501.439 300.103Z" fill="black"/>
<path fill-rule="evenodd" clip-rule="evenodd" d="M595.805 376.033C594.484 376.033 593.163 376.033 591.909 375.968C592.525 375.701 593.192 375.57 593.864 375.581C594.536 375.592 595.198 375.747 595.805 376.033Z" fill="black"/>
<path fill-rule="evenodd" clip-rule="evenodd" d="M479.779 381.95C480.703 381.95 481.628 381.95 482.552 381.884C481.694 381.884 480.703 381.884 479.779 381.95Z" fill="black"/>
<path fill-rule="evenodd" clip-rule="evenodd" d="M597.852 199.718C597.852 198.732 597.918 197.68 597.918 196.694C597.918 197.746 597.918 198.732 597.852 199.718Z" fill="black"/>
<path fill-rule="evenodd" clip-rule="evenodd" d="M510.155 71.9197C510.089 70.8678 510.023 69.816 509.891 68.7641C510.023 69.8817 510.089 70.9336 510.155 71.9197Z" fill="black"/>
<path fill-rule="evenodd" clip-rule="evenodd" d="M598.314 187.228C598.314 186.176 598.314 185.124 598.38 184.072C598.38 185.124 598.314 186.176 598.314 187.228Z" fill="black"/>
<path fill-rule="evenodd" clip-rule="evenodd" d="M303.329 380.635C304.187 380.635 304.98 380.635 305.838 380.701C305.046 380.635 304.187 380.635 303.329 380.635Z" fill="black"/>
<path fill-rule="evenodd" clip-rule="evenodd" d="M518.212 382.344C519.004 382.344 519.863 382.344 520.655 382.41C519.797 382.344 519.004 382.344 518.212 382.344Z" fill="black"/>
<path fill-rule="evenodd" clip-rule="evenodd" d="M606.239 308.913L606.041 306.152L606.239 308.913Z" fill="black"/>
<path fill-rule="evenodd" clip-rule="evenodd" d="M501.174 382.344C501.835 382.344 502.495 382.344 503.155 382.279C502.495 382.344 501.835 382.344 501.174 382.344Z" fill="black"/>
<path fill-rule="evenodd" clip-rule="evenodd" d="M146.095 382.016C146.822 381.95 147.482 381.95 148.209 381.884C147.482 381.884 146.756 381.95 146.095 382.016Z" fill="black"/>
<path fill-rule="evenodd" clip-rule="evenodd" d="M340.375 115.966C339.319 115.9 338.262 115.768 337.271 115.703C338.262 115.768 339.385 115.177 340.375 115.966Z" fill="black"/>
<path fill-rule="evenodd" clip-rule="evenodd" d="M606.371 376.428C605.314 376.296 604.324 376.231 603.267 376.099C604.258 376.165 605.314 376.296 606.371 376.428Z" fill="black"/>
<path fill-rule="evenodd" clip-rule="evenodd" d="M534.589 122.277C534.523 123.197 534.457 124.052 534.391 124.972C534.457 124.117 534.523 123.197 534.589 122.277Z" fill="black"/>
<path fill-rule="evenodd" clip-rule="evenodd" d="M598.578 159.683L598.777 157.119C598.711 158.039 598.644 158.828 598.578 159.683Z" fill="black"/>
<path fill-rule="evenodd" clip-rule="evenodd" d="M534.193 136.213C534.127 137.134 534.061 137.988 533.995 138.909C533.995 138.007 534.061 137.106 534.193 136.213Z" fill="black"/>
<path fill-rule="evenodd" clip-rule="evenodd" d="M598.182 194.065V191.501C598.425 191.885 598.554 192.329 598.554 192.783C598.554 193.236 598.425 193.681 598.182 194.065Z" fill="black"/>
<path fill-rule="evenodd" clip-rule="evenodd" d="M501.439 318.379V321.009C501.165 320.625 501.017 320.165 501.017 319.694C501.017 319.223 501.165 318.763 501.439 318.379Z" fill="black"/>
<path fill-rule="evenodd" clip-rule="evenodd" d="M567.013 217.994C566.881 217.14 566.815 216.219 566.683 215.365C566.815 216.219 566.881 217.14 567.013 217.994Z" fill="black"/>
<path fill-rule="evenodd" clip-rule="evenodd" d="M23.9937 137.397C23.3333 138.317 22.4088 137.66 21.5504 137.791C22.4088 137.66 23.2013 137.528 23.9937 137.397Z" fill="black"/>
<path fill-rule="evenodd" clip-rule="evenodd" d="M498.995 141.078C499.061 141.801 499.127 142.525 499.259 143.248C499.127 142.525 499.061 141.801 498.995 141.078Z" fill="black"/>
<path fill-rule="evenodd" clip-rule="evenodd" d="M73.125 68.5669C72.2665 68.5669 71.408 68.6327 70.5496 68.6327C70.9158 68.35 71.3632 68.1912 71.8265 68.1794C72.2897 68.1676 72.7447 68.3033 73.125 68.5669Z" fill="black"/>
<path fill-rule="evenodd" clip-rule="evenodd" d="M534.127 148.836C534.061 149.624 533.995 150.348 533.929 151.136C534.061 150.348 534.061 149.624 534.127 148.836Z" fill="black"/>
<path fill-rule="evenodd" clip-rule="evenodd" d="M510.354 54.893C510.42 54.1698 510.486 53.5124 510.552 52.7893C510.554 53.4953 510.488 54.1998 510.354 54.893Z" fill="black"/>
<path fill-rule="evenodd" clip-rule="evenodd" d="M503.552 52.7236C503.486 53.5124 503.42 54.2356 503.354 55.0245C503.42 54.2356 503.486 53.4467 503.552 52.7236Z" fill="black"/>
<path fill-rule="evenodd" clip-rule="evenodd" d="M127.209 2.16942C126.35 2.3009 125.426 2.36664 124.568 2.49812C125.492 2.36664 126.35 2.3009 127.209 2.16942Z" fill="black"/>
<path fill-rule="evenodd" clip-rule="evenodd" d="M63.5497 69.1586C62.6252 69.2243 61.7667 69.3558 60.8422 69.4215C61.7667 69.3558 62.6912 69.2901 63.5497 69.1586Z" fill="black"/>
<path fill-rule="evenodd" clip-rule="evenodd" d="M559.353 71.3937C559.419 70.6706 559.485 70.0132 559.485 69.2901C559.419 70.0132 559.353 70.6706 559.353 71.3937Z" fill="black"/>
<path fill-rule="evenodd" clip-rule="evenodd" d="M503.618 274.531C503.552 275.32 503.486 276.108 503.486 276.897C503.486 276.043 503.552 275.254 503.618 274.531Z" fill="black"/>
<path fill-rule="evenodd" clip-rule="evenodd" d="M556.777 122.802C556.777 122.079 556.711 121.29 556.711 120.567C556.711 121.29 556.711 122.014 556.777 122.802Z" fill="black"/>
<path fill-rule="evenodd" clip-rule="evenodd" d="M149.463 0.394441H147.086C147.429 0.138405 147.846 0 148.275 0C148.703 0 149.12 0.138405 149.463 0.394441Z" fill="black"/>
<path fill-rule="evenodd" clip-rule="evenodd" d="M364.016 177.235C363.158 177.235 362.233 177.301 361.375 177.301C361.754 177.019 362.212 176.86 362.685 176.849C363.158 176.837 363.624 176.972 364.016 177.235Z" fill="black"/>
<path fill-rule="evenodd" clip-rule="evenodd" d="M440.949 380.569C441.478 380.558 442.007 380.58 442.534 380.635C442.005 380.649 441.475 380.627 440.949 380.569Z" fill="black"/>
<path fill-rule="evenodd" clip-rule="evenodd" d="M460.562 381.49C461.09 381.49 461.618 381.424 462.147 381.424C461.62 381.479 461.091 381.501 460.562 381.49Z" fill="black"/>
<path fill-rule="evenodd" clip-rule="evenodd" d="M153.029 381.884C153.58 381.875 154.132 381.897 154.68 381.95C154.132 381.897 153.58 381.875 153.029 381.884Z" fill="black"/>
<path fill-rule="evenodd" clip-rule="evenodd" d="M605.776 300.169C605.71 299.446 605.644 298.657 605.512 297.934C605.644 298.723 605.71 299.446 605.776 300.169Z" fill="black"/>
<path fill-rule="evenodd" clip-rule="evenodd" d="M534.787 175C534.853 175.723 534.919 176.446 534.985 177.104C534.919 176.381 534.853 175.658 534.787 175Z" fill="black"/>
<path fill-rule="evenodd" clip-rule="evenodd" d="M562.126 162.838C562.06 162.115 561.928 161.326 561.862 160.603C561.928 161.326 562.06 162.049 562.126 162.838Z" fill="black"/>
<path fill-rule="evenodd" clip-rule="evenodd" d="M157.454 382.344H159.105C158.555 382.311 158.004 382.311 157.454 382.344Z" fill="black"/>
<path fill-rule="evenodd" clip-rule="evenodd" d="M357.082 382.41C357.611 382.41 358.139 382.344 358.667 382.344C358.138 382.333 357.609 382.355 357.082 382.41Z" fill="black"/>
<path fill-rule="evenodd" clip-rule="evenodd" d="M557.636 108.011C557.636 107.222 557.57 106.499 557.57 105.71C557.636 106.499 557.636 107.222 557.636 108.011Z" fill="black"/>
<path fill-rule="evenodd" clip-rule="evenodd" d="M569.324 382.739C569.852 382.805 570.381 382.805 570.909 382.87C570.381 382.805 569.852 382.805 569.324 382.739Z" fill="black"/>
<path fill-rule="evenodd" clip-rule="evenodd" d="M574.079 382.739C574.608 382.728 575.137 382.75 575.664 382.805C575.137 382.747 574.608 382.725 574.079 382.739Z" fill="black"/>
<path fill-rule="evenodd" clip-rule="evenodd" d="M598.71 165.797C598.644 165.073 598.644 164.285 598.578 163.561C598.644 164.35 598.71 165.073 598.71 165.797Z" fill="black"/>
<path fill-rule="evenodd" clip-rule="evenodd" d="M235.971 372.944C237.622 372.878 239.273 372.746 240.924 372.681C239.273 372.746 237.622 372.812 235.971 372.944Z" fill="black"/>
<path fill-rule="evenodd" clip-rule="evenodd" d="M136.784 100.911C138.237 101.043 139.624 101.174 141.077 101.305C139.624 101.174 138.237 101.043 136.784 100.911Z" fill="black"/>
<path fill-rule="evenodd" clip-rule="evenodd" d="M539.674 162.641C539.74 164.022 539.74 165.336 539.806 166.717C539.806 165.402 539.74 164.022 539.674 162.641Z" fill="black"/>
<path fill-rule="evenodd" clip-rule="evenodd" d="M569.126 375.244C570.645 375.31 572.098 375.442 573.617 375.507C572.098 375.573 570.579 376.033 569.126 375.244Z" fill="black"/>
<path fill-rule="evenodd" clip-rule="evenodd" d="M560.343 214.904C560.343 213.59 560.343 212.341 560.409 211.026C560.343 212.341 560.343 213.59 560.343 214.904Z" fill="black"/>
<path fill-rule="evenodd" clip-rule="evenodd" d="M556.513 255.532C557.834 255.532 559.155 255.597 560.409 255.597C559.155 255.597 557.834 255.532 556.513 255.532Z" fill="black"/>
<path fill-rule="evenodd" clip-rule="evenodd" d="M227.453 232.786C227.387 233.772 227.387 234.758 227.387 235.744C227.387 234.758 227.453 233.772 227.453 232.786Z" fill="black"/>
<path fill-rule="evenodd" clip-rule="evenodd" d="M578.305 191.041C578.239 192.027 578.173 193.013 578.173 193.999C578.173 193.013 578.239 192.027 578.305 191.041Z" fill="black"/>
<path fill-rule="evenodd" clip-rule="evenodd" d="M550.372 370.906C551.296 370.84 552.287 370.774 553.211 370.708C552.551 371.234 551.824 371.3 550.372 370.906Z" fill="black"/>
<path fill-rule="evenodd" clip-rule="evenodd" d="M544.032 242.712L544.23 245.868L544.032 242.712Z" fill="black"/>
<path fill-rule="evenodd" clip-rule="evenodd" d="M545.155 255.729L548.721 255.663C548.172 255.949 547.565 256.104 546.946 256.115C546.327 256.126 545.713 255.994 545.155 255.729Z" fill="black"/>
<path fill-rule="evenodd" clip-rule="evenodd" d="M271.829 371.3C273.018 371.3 274.14 371.3 275.329 371.366C274.792 371.663 274.185 371.813 273.57 371.802C272.956 371.79 272.355 371.617 271.829 371.3Z" fill="black"/>
<path fill-rule="evenodd" clip-rule="evenodd" d="M53.9083 374.653C55.0969 374.521 56.2856 374.456 57.4082 374.324C56.2195 374.456 55.0309 374.587 53.9083 374.653Z" fill="black"/>
<path fill-rule="evenodd" clip-rule="evenodd" d="M540.136 171.384L540.334 174.54C540.202 173.493 540.136 172.439 540.136 171.384Z" fill="black"/>
<path fill-rule="evenodd" clip-rule="evenodd" d="M165.312 103.409C165.764 103.156 166.271 103.018 166.79 103.007C167.308 102.995 167.821 103.111 168.284 103.343C167.293 103.343 166.303 103.343 165.312 103.409Z" fill="black"/>
<path fill-rule="evenodd" clip-rule="evenodd" d="M507.712 183.612C507.778 184.532 507.844 185.387 507.976 186.307C507.91 185.387 507.844 184.532 507.712 183.612Z" fill="black"/>
<path fill-rule="evenodd" clip-rule="evenodd" d="M591.38 162.707C591.138 162.311 591.009 161.856 591.009 161.392C591.009 160.928 591.138 160.473 591.38 160.077V162.707Z" fill="black"/>
<path fill-rule="evenodd" clip-rule="evenodd" d="M575.73 255.137C576.72 254.809 577.777 254.414 578.767 255.137H575.73Z" fill="black"/>
<path fill-rule="evenodd" clip-rule="evenodd" d="M246.471 372.549C247.528 372.483 248.518 372.352 249.575 372.286C248.518 372.352 247.528 372.418 246.471 372.549Z" fill="black"/>
<path fill-rule="evenodd" clip-rule="evenodd" d="M105.945 372.549C106.87 372.155 107.794 371.892 108.719 372.549H105.945Z" fill="black"/>
<path fill-rule="evenodd" clip-rule="evenodd" d="M298.046 371.234C299.036 370.774 300.027 370.577 301.017 371.234H298.046Z" fill="black"/>
<path fill-rule="evenodd" clip-rule="evenodd" d="M74.5118 241.858C74.5778 242.778 74.6439 243.633 74.7099 244.553C74.6439 243.699 74.5778 242.778 74.5118 241.858Z" fill="black"/>
<path fill-rule="evenodd" clip-rule="evenodd" d="M307.621 189.923C308.612 189.594 309.602 189.397 310.593 189.989C309.602 189.923 308.612 189.923 307.621 189.923Z" fill="black"/>
<path fill-rule="evenodd" clip-rule="evenodd" d="M540.07 216.745C540.136 217.6 540.202 218.52 540.202 219.375C540.202 218.52 540.136 217.665 540.07 216.745Z" fill="black"/>
<path fill-rule="evenodd" clip-rule="evenodd" d="M73.8514 137.134C73.8 137.839 73.7119 138.541 73.5873 139.238C73.7119 138.541 73.8 137.839 73.8514 137.134Z" fill="black"/>
<path fill-rule="evenodd" clip-rule="evenodd" d="M16.5977 343.229C16.5316 343.952 16.4656 344.61 16.4656 345.333C16.4656 344.61 16.5316 343.952 16.5977 343.229Z" fill="black"/>
<path fill-rule="evenodd" clip-rule="evenodd" d="M560.805 221.413L560.607 219.243C560.673 220.032 560.739 220.689 560.805 221.413Z" fill="black"/>
<path fill-rule="evenodd" clip-rule="evenodd" d="M488.826 369.854H491.467C490.609 369.919 489.684 369.854 488.826 369.854Z" fill="black"/>
<path fill-rule="evenodd" clip-rule="evenodd" d="M227.122 238.899C227.255 239.425 227.453 239.951 227.585 240.477C226.528 240.74 226.396 240.214 227.122 238.899Z" fill="black"/>
<path fill-rule="evenodd" clip-rule="evenodd" d="M293.159 188.74H295.867C294.942 189.134 294.018 189.397 293.159 188.74Z" fill="black"/>
<path fill-rule="evenodd" clip-rule="evenodd" d="M74.9741 246.131C74.9741 246.92 75.0401 247.709 75.0401 248.498C75.0401 247.709 75.0401 246.92 74.9741 246.131Z" fill="black"/>
<path fill-rule="evenodd" clip-rule="evenodd" d="M509.891 254.48C509.891 255.203 509.957 255.926 509.957 256.649C509.957 255.926 509.957 255.203 509.891 254.48Z" fill="black"/>
<path fill-rule="evenodd" clip-rule="evenodd" d="M66.1251 374.258C66.4987 373.986 66.9497 373.839 67.4128 373.839C67.8759 373.839 68.3269 373.986 68.7005 374.258H66.1251Z" fill="black"/>
<path fill-rule="evenodd" clip-rule="evenodd" d="M88.4455 127.01C88.5115 127.733 88.5115 128.522 88.5776 129.245C88.5776 128.456 88.5115 127.733 88.4455 127.01Z" fill="black"/>
<path fill-rule="evenodd" clip-rule="evenodd" d="M61.7007 374.324H64.3421C63.9763 374.642 63.5071 374.817 63.0214 374.817C62.5357 374.817 62.0665 374.642 61.7007 374.324Z" fill="black"/>
<path fill-rule="evenodd" clip-rule="evenodd" d="M145.237 102.226C146.096 102.357 146.954 102.423 147.746 102.555C146.888 102.423 146.03 102.292 145.237 102.226Z" fill="black"/>
<path fill-rule="evenodd" clip-rule="evenodd" d="M70.7476 167.243C70.7476 167.966 70.7476 168.623 70.8136 169.346C70.7476 168.623 70.7476 167.9 70.7476 167.243Z" fill="black"/>
<path fill-rule="evenodd" clip-rule="evenodd" d="M555.919 167.111C555.853 166.388 555.853 165.665 555.787 164.942C555.853 165.665 555.853 166.388 555.919 167.111Z" fill="black"/>
<path fill-rule="evenodd" clip-rule="evenodd" d="M359.064 373.535C360.12 373.601 361.177 373.732 362.167 373.798C361.177 373.732 360.12 373.601 359.064 373.535Z" fill="black"/>
<path fill-rule="evenodd" clip-rule="evenodd" d="M355.63 346.648H353.979C354.527 346.713 355.081 346.713 355.63 346.648Z" fill="black"/>
<path fill-rule="evenodd" clip-rule="evenodd" d="M355.63 373.075C356.488 373.141 357.347 373.272 358.271 373.338C357.413 373.272 356.554 373.207 355.63 373.075Z" fill="black"/>
<path fill-rule="evenodd" clip-rule="evenodd" d="M198.463 314.566C199.585 320.943 189.614 327.188 188.821 318.116C188.557 314.764 190.736 312.463 193.246 310.425C196.812 307.532 198.793 310.293 198.463 314.566Z" fill="black"/>
<path fill-rule="evenodd" clip-rule="evenodd" d="M88.4455 236.533C90.8228 237.519 108.785 243.304 99.4076 246.262C96.9642 247.051 93.2002 247.183 91.087 245.802C88.5116 244.159 85.9361 239.294 88.4455 236.533Z" fill="black"/>
<path fill-rule="evenodd" clip-rule="evenodd" d="M92.8699 150.019C98.9453 149.296 104.558 159.288 97.0963 158.96C91.6152 158.697 84.2852 150.019 92.8699 150.019Z" fill="black"/>
<path fill-rule="evenodd" clip-rule="evenodd" d="M114.728 174.408C119.813 178.813 110.37 188.74 106.606 184.927C104.69 182.955 106.473 178.747 108.058 177.104C109.643 175.46 112.549 175.132 114.728 174.408Z" fill="black"/>
<path fill-rule="evenodd" clip-rule="evenodd" d="M129.85 289.059C126.813 289.519 113.605 293.858 116.379 286.035C117.436 283.077 120.341 283.931 123.049 284.063C127.407 284.26 129.85 284.063 129.85 289.059Z" fill="black"/>
<path fill-rule="evenodd" clip-rule="evenodd" d="M121.134 309.176C125.624 311.542 119.086 324.953 115.322 322.126C110.172 318.182 117.237 310.359 121.134 309.176Z" fill="black"/>
<path fill-rule="evenodd" clip-rule="evenodd" d="M140.747 298.394C142.926 297.474 153.227 307.401 149.331 310.096C147.35 311.477 143.52 309.11 142.265 307.664C140.02 304.968 139.822 301.55 140.747 298.394Z" fill="black"/>
<path fill-rule="evenodd" clip-rule="evenodd" d="M81.2474 217.665C83.4927 218.06 87.3228 218.126 87.5209 221.281C87.653 224.042 84.1531 224.897 81.7757 225.16C79.2664 225.357 75.8985 224.7 75.8324 221.478C75.7664 218.06 81.1814 218.257 81.2474 217.665Z" fill="black"/>
<path fill-rule="evenodd" clip-rule="evenodd" d="M136.388 353.813C138.765 355.259 149.86 360.453 145.105 364.2C143.322 365.581 137.907 362.688 136.718 361.242C135.265 359.467 133.879 355.325 136.388 353.813Z" fill="black"/>
<path fill-rule="evenodd" clip-rule="evenodd" d="M167.293 316.21C166.963 310.49 176.67 308.19 174.623 316.341C174.029 318.642 173.501 322.126 170.661 322.258C167.293 322.389 167.161 318.445 167.293 316.21Z" fill="black"/>
<path fill-rule="evenodd" clip-rule="evenodd" d="M137.379 216.745C137.445 221.084 129.124 224.897 129.058 218.06C128.926 211.88 137.643 210.105 137.379 216.745Z" fill="black"/>
<path fill-rule="evenodd" clip-rule="evenodd" d="M131.832 194.13C133.879 194.788 136.652 195.117 136.784 197.746C136.982 200.507 134.407 201.756 132.096 201.559C130.181 201.428 127.407 200.047 127.077 198.009C126.549 194.985 129.52 194.788 131.832 194.13Z" fill="black"/>
<path fill-rule="evenodd" clip-rule="evenodd" d="M93.5964 273.545C93.5304 269.995 100.794 265.656 102.115 269.797C102.511 271.112 99.1435 277.094 98.0209 277.555C94.9832 278.738 94.5869 276.043 93.5964 273.545Z" fill="black"/>
<path fill-rule="evenodd" clip-rule="evenodd" d="M152.633 333.171C150.19 335.34 142.86 341.454 143.454 333.237C143.784 328.043 153.293 328.306 152.633 333.171Z" fill="black"/>
<path fill-rule="evenodd" clip-rule="evenodd" d="M271.631 356.574C272.424 353.156 283.848 359.072 280.018 363.477C278.763 364.923 275.395 363.608 274.074 362.754C271.631 360.979 271.565 359.401 271.631 356.574Z" fill="black"/>
<path fill-rule="evenodd" clip-rule="evenodd" d="M207.972 282.88C208.434 281.368 208.896 278.607 210.415 277.686C213.057 275.911 215.368 278.607 215.368 281.433C215.368 286.627 209.359 288.27 207.972 282.88Z" fill="black"/>
<path fill-rule="evenodd" clip-rule="evenodd" d="M179.642 344.281C182.614 344.938 189.217 352.17 185.387 355.062C181.689 357.889 176.803 346.45 179.642 344.281Z" fill="black"/>
<path fill-rule="evenodd" clip-rule="evenodd" d="M182.482 289.98C186.312 290.308 191.529 296.422 185.585 297.408C180.963 298.131 175.548 291.492 182.482 289.98Z" fill="black"/>
<path fill-rule="evenodd" clip-rule="evenodd" d="M217.019 318.248C217.943 315.027 227.453 318.445 226.924 321.995C226.66 323.901 222.764 324.296 220.717 323.836C217.745 323.113 216.953 321.14 217.019 318.248Z" fill="black"/>
<path fill-rule="evenodd" clip-rule="evenodd" d="M105.483 139.04C105.549 134.899 113.539 133.189 114.134 137.397C114.662 141.144 105.351 145.154 105.483 139.04Z" fill="black"/>
<path fill-rule="evenodd" clip-rule="evenodd" d="M214.377 360.979C214.972 358.875 215.236 356.377 217.811 356.114C220.783 355.785 220.717 358.086 220.387 360.453C219.396 366.896 215.764 367.224 214.377 360.979Z" fill="black"/>
<path fill-rule="evenodd" clip-rule="evenodd" d="M87.9171 188.411C83.7568 189.331 76.0966 181.377 80.7852 179.602C84.087 178.419 87.9171 185.979 87.9171 188.411Z" fill="black"/>
<path fill-rule="evenodd" clip-rule="evenodd" d="M141.143 250.535C139.03 251.522 138.501 252.113 136.916 250.47C135.464 249.023 135.53 245.079 136.784 243.633C141.473 237.979 141.341 248.3 141.143 250.535Z" fill="black"/>
<path fill-rule="evenodd" clip-rule="evenodd" d="M158.51 239.097C160.756 239.36 167.293 245.605 163.859 248.037C159.699 251.061 157.322 241.595 158.51 239.097Z" fill="black"/>
<path fill-rule="evenodd" clip-rule="evenodd" d="M206.453 240.674C204.868 246.854 200.84 242.712 201.038 238.045C201.368 230.55 205.594 237.059 206.453 240.674Z" fill="black"/>
<path fill-rule="evenodd" clip-rule="evenodd" d="M230.887 339.876C233.594 340.994 237.292 351.381 233.396 351.907C229.037 352.498 230.49 342.046 230.887 339.876Z" fill="black"/>
<path fill-rule="evenodd" clip-rule="evenodd" d="M196.878 334.025C199.981 332.974 201.17 339.548 199.321 340.731C195.293 343.426 196.151 335.603 196.878 334.025Z" fill="black"/>
<path fill-rule="evenodd" clip-rule="evenodd" d="M167.293 316.21C167.227 317.064 167.227 317.919 167.161 318.839C167.227 317.919 167.227 317.064 167.293 316.21Z" fill="black"/>
<path fill-rule="evenodd" clip-rule="evenodd" d="M271.631 356.574C271.631 357.495 271.565 358.349 271.565 359.27C271.565 358.349 271.631 357.429 271.631 356.574Z" fill="black"/>
<path fill-rule="evenodd" clip-rule="evenodd" d="M217.019 318.248C217.019 318.971 216.953 319.76 216.953 320.483C216.953 319.76 217.019 319.037 217.019 318.248Z" fill="black"/>
<path fill-rule="evenodd" clip-rule="evenodd" d="M561.862 305.231C568.334 305.034 575.532 302.602 581.871 303.391C583.588 303.588 587.616 304.048 584.843 306.612C583.522 307.861 577.117 307.203 575.135 307.598C563.249 310.096 549.777 311.739 537.627 311.477C531.947 311.411 526.202 310.951 520.523 310.622C514.844 310.293 514.25 307.992 520.655 307.269C527.325 306.48 534.127 306.809 540.796 306.809C547.862 306.875 554.862 305.691 561.862 305.231Z" fill="black"/>
<path fill-rule="evenodd" clip-rule="evenodd" d="M576.06 289.717C575.466 291.492 574.871 295.502 572.494 295.765C569.126 296.159 568.598 290.44 568.73 288.336C568.862 285.838 569.786 281.631 572.956 282.485C575.598 283.274 575.862 287.744 576.06 289.717Z" fill="black"/>
<path fill-rule="evenodd" clip-rule="evenodd" d="M555.853 288.468C556.315 286.561 556.579 282.354 559.287 282.156C562.258 282.025 563.117 286.43 563.117 288.533C563.117 290.571 562.324 294.384 559.947 294.844C556.711 295.502 556.381 290.637 555.853 288.468Z" fill="black"/>
<path fill-rule="evenodd" clip-rule="evenodd" d="M522.174 291.82C521.183 294.121 520.589 297.211 517.551 295.699C515.24 294.516 514.91 289.651 515.372 287.481C515.835 285.18 516.759 282.551 519.4 283.603C522.438 284.786 522.174 289.322 522.174 291.82Z" fill="black"/>
<path fill-rule="evenodd" clip-rule="evenodd" d="M547.664 289.717C544.825 298.394 539.542 292.543 541.589 286.035C543.636 279.33 547.4 285.904 547.664 289.717Z" fill="black"/>
<path fill-rule="evenodd" clip-rule="evenodd" d="M533.73 290.177C532.938 291.689 532.08 294.976 529.966 294.647C527.325 294.253 527.259 289.191 527.523 287.284C527.787 285.641 528.514 282.88 530.693 282.945C533.863 283.011 533.664 288.205 533.73 290.177Z" fill="black"/>
<path fill-rule="evenodd" clip-rule="evenodd" d="M590.852 291.82C588.739 296.554 585.767 292.478 586.692 289.125C588.145 284.063 590.72 288.533 590.852 291.82Z" fill="black"/>
<path fill-rule="evenodd" clip-rule="evenodd" d="M538.617 306.875H531.617C533.917 306.316 536.318 306.316 538.617 306.875Z" fill="black"/>
<path fill-rule="evenodd" clip-rule="evenodd" d="M584.909 303.391C582.862 303.391 580.881 303.391 578.833 303.456C580.803 302.81 582.925 302.787 584.909 303.391Z" fill="black"/>
<path fill-rule="evenodd" clip-rule="evenodd" d="M561.862 305.231C560.277 305.363 558.626 305.428 557.041 305.56C558.626 305.494 560.211 305.363 561.862 305.231Z" fill="black"/>
<path fill-rule="evenodd" clip-rule="evenodd" d="M522.174 291.82C522.174 290.637 522.174 289.519 522.108 288.336C522.395 288.87 522.55 289.465 522.562 290.07C522.573 290.676 522.44 291.276 522.174 291.82Z" fill="black"/>
<path fill-rule="evenodd" clip-rule="evenodd" d="M526.863 306.94C525.542 307.072 524.221 307.138 522.9 307.269C524.221 307.203 525.542 307.072 526.863 306.94Z" fill="black"/>
<path fill-rule="evenodd" clip-rule="evenodd" d="M544.759 306.875H540.862C541.474 306.598 542.139 306.456 542.81 306.456C543.482 306.456 544.147 306.598 544.759 306.875Z" fill="black"/>
<path fill-rule="evenodd" clip-rule="evenodd" d="M533.73 290.177C533.73 288.993 533.664 287.744 533.664 286.561C533.664 287.744 533.664 288.993 533.73 290.177Z" fill="black"/>
<path fill-rule="evenodd" clip-rule="evenodd" d="M515.372 287.481V291.031C515.306 289.849 515.306 288.664 515.372 287.481Z" fill="black"/>
<path fill-rule="evenodd" clip-rule="evenodd" d="M569.258 304.837C568.136 304.968 566.947 305.034 565.824 305.166C566.947 305.034 568.136 304.903 569.258 304.837Z" fill="black"/>
<path fill-rule="evenodd" clip-rule="evenodd" d="M590.852 291.82C590.786 290.768 590.786 289.782 590.72 288.73C590.786 289.782 590.852 290.834 590.852 291.82Z" fill="black"/>
<path fill-rule="evenodd" clip-rule="evenodd" d="M541.787 311.542C542.579 311.542 543.372 311.542 544.164 311.477C543.438 311.542 542.645 311.542 541.787 311.542Z" fill="black"/>
<path fill-rule="evenodd" clip-rule="evenodd" d="M576.06 289.717C575.994 288.993 575.928 288.27 575.862 287.481C575.928 288.27 575.994 288.993 576.06 289.717Z" fill="black"/>
<path fill-rule="evenodd" clip-rule="evenodd" d="M547.664 289.717C547.598 288.928 547.532 288.205 547.532 287.416C547.532 288.205 547.598 288.993 547.664 289.717Z" fill="black"/>
<path fill-rule="evenodd" clip-rule="evenodd" d="M133.879 67.1864C130.709 66.3318 130.115 61.9272 130.643 59.2318C131.237 57.917 131.766 56.6022 132.36 55.2874C132.162 54.8272 131.898 54.3013 131.7 53.8411C131.964 51.1458 131.237 49.9625 134.341 51.08C140.086 53.118 141.011 66.9892 133.879 67.1864Z" fill="black"/>
<path fill-rule="evenodd" clip-rule="evenodd" d="M180.567 58.6402C183.142 58.4429 187.897 61.467 185.321 64.3596C183.736 66.1345 178.453 65.2799 176.274 65.6744C173.435 66.2003 170.463 66.8577 171.982 62.5846C173.17 59.2976 177.529 58.5744 180.567 58.6402Z" fill="black"/>
<path fill-rule="evenodd" clip-rule="evenodd" d="M177.859 78.6909C175.218 76.5872 176.406 66.9892 180.435 68.6984C184.529 70.4734 180.038 77.3104 177.859 78.6909Z" fill="black"/>
<path fill-rule="evenodd" clip-rule="evenodd" d="M130.643 59.2318V62.2559C130.352 61.8048 130.197 61.28 130.197 60.7438C130.197 60.2077 130.352 59.6829 130.643 59.2318Z" fill="black"/>
<path fill-rule="evenodd" clip-rule="evenodd" d="M133.879 67.1864C134.408 67.1973 134.937 67.1753 135.464 67.1206C134.937 67.1753 134.408 67.1973 133.879 67.1864Z" fill="black"/>
<path fill-rule="evenodd" clip-rule="evenodd" d="M459.901 343.755C459.637 348.094 454.949 344.873 455.279 341.98C455.939 336.655 458.911 341.914 459.901 343.755Z" fill="black"/>
</g>
<defs>
<clipPath id="clip0">
<rect width="630" height="388" fill="white"/>
</clipPath>
</defs>
</svg>
