<svg width="40" height="40" viewBox="0 0 40 40" fill="none" xmlns="http://www.w3.org/2000/svg">
<rect width="40" height="40" rx="5" fill="#E99307"/>
<g clip-path="url(#clip0)">
<path d="M31.6288 16.0364C31.2987 15.6222 30.8034 15.3846 30.2699 15.3846H25.4553L22.8445 9.40644C22.6826 9.03578 22.2509 8.8664 21.8802 9.02836C21.5095 9.19022 21.3402 9.62201 21.5021 9.99271L23.8568 15.3847H15.1431L17.4978 9.99271C17.6597 9.62201 17.4904 9.19027 17.1197 9.02836C16.7491 8.8664 16.3173 9.03568 16.1554 9.40644L13.5446 15.3847H8.72997C8.19647 15.3847 7.70121 15.6222 7.37108 16.0364C7.04701 16.4431 6.92743 16.9658 7.043 17.4708L9.61415 28.7013C9.79369 29.4854 10.4874 30.0331 11.3011 30.0331H27.6988C28.5125 30.0331 29.2062 29.4854 29.3857 28.7013L31.9569 17.4707C32.0725 16.9658 31.9529 16.443 31.6288 16.0364ZM27.6988 28.5682H11.3011C11.1767 28.5682 11.0678 28.4867 11.0421 28.3743L8.47093 17.1439C8.45077 17.0558 8.48461 16.9894 8.51664 16.9494C8.54633 16.9121 8.61356 16.8495 8.72997 16.8495H12.9049L12.7131 17.2888C12.5512 17.6595 12.7204 18.0912 13.0911 18.2532C13.1866 18.2949 13.286 18.3146 13.3839 18.3146C13.6662 18.3146 13.9352 18.1504 14.0555 17.8751L14.5034 16.8496H24.4966L24.9445 17.8751C25.0647 18.1504 25.3338 18.3146 25.6161 18.3146C25.714 18.3146 25.8134 18.2949 25.9088 18.2532C26.2795 18.0913 26.4488 17.6595 26.2869 17.2888L26.0951 16.8495H30.27C30.3864 16.8495 30.4537 16.9121 30.4833 16.9494C30.5153 16.9895 30.5492 17.0558 30.529 17.1438L27.9579 28.3743C27.9321 28.4867 27.8231 28.5682 27.6988 28.5682Z" fill="white"/>
<path d="M15.1055 20.0233C14.701 20.0233 14.373 20.3512 14.373 20.7557V26.1268C14.373 26.5313 14.701 26.8593 15.1055 26.8593C15.51 26.8593 15.8379 26.5313 15.8379 26.1268V20.7557C15.8379 20.3512 15.51 20.0233 15.1055 20.0233Z" fill="white"/>
<path d="M19.5 20.0233C19.0955 20.0233 18.7676 20.3512 18.7676 20.7557V26.1268C18.7676 26.5313 19.0955 26.8593 19.5 26.8593C19.9045 26.8593 20.2324 26.5313 20.2324 26.1268V20.7557C20.2324 20.3512 19.9045 20.0233 19.5 20.0233Z" fill="white"/>
<path d="M23.8945 20.0233C23.49 20.0233 23.1621 20.3512 23.1621 20.7557V26.1268C23.1621 26.5313 23.49 26.8593 23.8945 26.8593C24.299 26.8593 24.627 26.5313 24.627 26.1268V20.7557C24.6269 20.3512 24.299 20.0233 23.8945 20.0233Z" fill="white"/>
</g>
<defs>
<clipPath id="clip0">
<rect width="25" height="25" fill="white" transform="translate(7 7)"/>
</clipPath>
</defs>
</svg>
